<svg width="717" height="600" viewBox="0 0 717 600" fill="none" xmlns="http://www.w3.org/2000/svg">
<path d="M56.7884 594.704C28.6032 597.333 5.94183 571.894 11.7968 544.199L88.7662 180.115C92.0434 164.613 103.766 152.275 119.08 148.209L616.765 16.0614C645.625 8.39828 673.039 32.4527 669.193 62.0646L610.996 510.133C608.468 529.6 592.792 544.719 573.246 546.541L56.7884 594.704Z" fill="url(#paint0_linear_1_17)"/>
<mask id="path-2-outside-1_1_17" maskUnits="userSpaceOnUse" x="37" y="203" width="633" height="121" fill="black">
<rect fill="white" x="37" y="203" width="633" height="121"/>
<path d="M79.3608 307H62.4858L107.699 219.727H127.216L143.494 307H126.619L114.901 237.625H114.219L79.3608 307ZM85.5824 272.781H131.605L129.474 285.48H83.4517L85.5824 272.781ZM241.197 219.727L226.708 307H212.646L181.41 247.554H180.728L170.799 307H154.989L169.478 219.727H183.626L214.819 279.216H215.629L225.472 219.727H241.197ZM312.202 247.597C311.889 245.295 311.321 243.236 310.497 241.418C309.673 239.571 308.565 238.009 307.173 236.73C305.781 235.423 304.091 234.429 302.102 233.747C300.114 233.065 297.798 232.724 295.156 232.724C290.469 232.724 286.023 233.903 281.818 236.261C277.614 238.619 274.02 242.085 271.037 246.659C268.054 251.205 266.023 256.744 264.943 263.278C263.864 269.869 263.92 275.452 265.114 280.026C266.307 284.599 268.494 288.08 271.676 290.466C274.886 292.824 278.92 294.003 283.778 294.003C288.239 294.003 292.287 293.151 295.923 291.446C299.56 289.741 302.571 287.327 304.957 284.202C307.372 281.048 308.906 277.355 309.56 273.122L313.054 273.676H289.318L291.449 261.318H326.861L325.071 271.801C323.849 279.301 321.193 285.778 317.102 291.233C313.04 296.659 307.969 300.849 301.889 303.804C295.838 306.73 289.205 308.193 281.989 308.193C273.977 308.193 267.23 306.389 261.747 302.781C256.293 299.145 252.429 293.989 250.156 287.312C247.884 280.608 247.514 272.653 249.048 263.449C250.185 256.403 252.202 250.111 255.099 244.571C258.026 239.031 261.605 234.33 265.838 230.466C270.099 226.574 274.83 223.619 280.028 221.602C285.227 219.557 290.682 218.534 296.392 218.534C301.193 218.534 305.568 219.244 309.517 220.665C313.466 222.057 316.847 224.045 319.659 226.631C322.5 229.216 324.673 232.284 326.179 235.835C327.685 239.386 328.395 243.307 328.31 247.597H312.202ZM404.023 219.727H419.833L410.373 276.744C409.35 282.994 406.964 288.491 403.214 293.236C399.492 297.98 394.748 301.687 388.981 304.358C383.214 307 376.793 308.321 369.719 308.321C362.589 308.321 356.594 307 351.737 304.358C346.879 301.687 343.37 297.98 341.211 293.236C339.08 288.491 338.526 282.994 339.549 276.744L349.009 219.727H364.819L355.572 275.423C354.975 279.06 355.245 282.298 356.381 285.139C357.546 287.952 359.45 290.168 362.092 291.787C364.762 293.406 368.1 294.216 372.106 294.216C376.112 294.216 379.719 293.406 382.93 291.787C386.14 290.168 388.768 287.952 390.813 285.139C392.859 282.298 394.18 279.06 394.776 275.423L404.023 219.727ZM422.528 307L437.017 219.727H452.827L440.554 293.747H478.991L476.776 307H422.528ZM504.986 307H488.111L533.324 219.727H552.841L569.119 307H552.244L540.526 237.625H539.844L504.986 307ZM511.207 272.781H557.23L555.099 285.48H509.077L511.207 272.781ZM580.614 307L595.103 219.727H627.83C634.535 219.727 639.975 220.892 644.151 223.222C648.327 225.551 651.239 228.818 652.887 233.023C654.535 237.199 654.89 242.071 653.952 247.639C653.043 253.207 651.055 258.051 647.987 262.17C644.947 266.261 640.927 269.429 635.927 271.673C630.955 273.918 625.117 275.04 618.413 275.04H595.103L597.319 261.915H618.54C622.461 261.915 625.756 261.375 628.427 260.295C631.097 259.187 633.2 257.582 634.734 255.48C636.296 253.349 637.333 250.736 637.844 247.639C638.327 244.543 638.143 241.901 637.29 239.713C636.467 237.497 634.89 235.821 632.56 234.685C630.259 233.52 627.148 232.938 623.228 232.938H608.739L596.424 307H580.614ZM632.262 267.455L647.305 307H629.663L615.004 267.455H632.262Z"/>
</mask>
<path d="M79.3608 307H62.4858L107.699 219.727H127.216L143.494 307H126.619L114.901 237.625H114.219L79.3608 307ZM85.5824 272.781H131.605L129.474 285.48H83.4517L85.5824 272.781ZM241.197 219.727L226.708 307H212.646L181.41 247.554H180.728L170.799 307H154.989L169.478 219.727H183.626L214.819 279.216H215.629L225.472 219.727H241.197ZM312.202 247.597C311.889 245.295 311.321 243.236 310.497 241.418C309.673 239.571 308.565 238.009 307.173 236.73C305.781 235.423 304.091 234.429 302.102 233.747C300.114 233.065 297.798 232.724 295.156 232.724C290.469 232.724 286.023 233.903 281.818 236.261C277.614 238.619 274.02 242.085 271.037 246.659C268.054 251.205 266.023 256.744 264.943 263.278C263.864 269.869 263.92 275.452 265.114 280.026C266.307 284.599 268.494 288.08 271.676 290.466C274.886 292.824 278.92 294.003 283.778 294.003C288.239 294.003 292.287 293.151 295.923 291.446C299.56 289.741 302.571 287.327 304.957 284.202C307.372 281.048 308.906 277.355 309.56 273.122L313.054 273.676H289.318L291.449 261.318H326.861L325.071 271.801C323.849 279.301 321.193 285.778 317.102 291.233C313.04 296.659 307.969 300.849 301.889 303.804C295.838 306.73 289.205 308.193 281.989 308.193C273.977 308.193 267.23 306.389 261.747 302.781C256.293 299.145 252.429 293.989 250.156 287.312C247.884 280.608 247.514 272.653 249.048 263.449C250.185 256.403 252.202 250.111 255.099 244.571C258.026 239.031 261.605 234.33 265.838 230.466C270.099 226.574 274.83 223.619 280.028 221.602C285.227 219.557 290.682 218.534 296.392 218.534C301.193 218.534 305.568 219.244 309.517 220.665C313.466 222.057 316.847 224.045 319.659 226.631C322.5 229.216 324.673 232.284 326.179 235.835C327.685 239.386 328.395 243.307 328.31 247.597H312.202ZM404.023 219.727H419.833L410.373 276.744C409.35 282.994 406.964 288.491 403.214 293.236C399.492 297.98 394.748 301.687 388.981 304.358C383.214 307 376.793 308.321 369.719 308.321C362.589 308.321 356.594 307 351.737 304.358C346.879 301.687 343.37 297.98 341.211 293.236C339.08 288.491 338.526 282.994 339.549 276.744L349.009 219.727H364.819L355.572 275.423C354.975 279.06 355.245 282.298 356.381 285.139C357.546 287.952 359.45 290.168 362.092 291.787C364.762 293.406 368.1 294.216 372.106 294.216C376.112 294.216 379.719 293.406 382.93 291.787C386.14 290.168 388.768 287.952 390.813 285.139C392.859 282.298 394.18 279.06 394.776 275.423L404.023 219.727ZM422.528 307L437.017 219.727H452.827L440.554 293.747H478.991L476.776 307H422.528ZM504.986 307H488.111L533.324 219.727H552.841L569.119 307H552.244L540.526 237.625H539.844L504.986 307ZM511.207 272.781H557.23L555.099 285.48H509.077L511.207 272.781ZM580.614 307L595.103 219.727H627.83C634.535 219.727 639.975 220.892 644.151 223.222C648.327 225.551 651.239 228.818 652.887 233.023C654.535 237.199 654.89 242.071 653.952 247.639C653.043 253.207 651.055 258.051 647.987 262.17C644.947 266.261 640.927 269.429 635.927 271.673C630.955 273.918 625.117 275.04 618.413 275.04H595.103L597.319 261.915H618.54C622.461 261.915 625.756 261.375 628.427 260.295C631.097 259.187 633.2 257.582 634.734 255.48C636.296 253.349 637.333 250.736 637.844 247.639C638.327 244.543 638.143 241.901 637.29 239.713C636.467 237.497 634.89 235.821 632.56 234.685C630.259 233.52 627.148 232.938 623.228 232.938H608.739L596.424 307H580.614ZM632.262 267.455L647.305 307H629.663L615.004 267.455H632.262Z" fill="url(#paint1_linear_1_17)"/>
<path d="M79.3608 307V322H88.611L92.764 313.735L79.3608 307ZM62.4858 307L49.167 300.1L37.8214 322H62.4858V307ZM107.699 219.727V204.727H98.5764L94.3801 212.827L107.699 219.727ZM127.216 219.727L141.962 216.977L139.677 204.727H127.216V219.727ZM143.494 307V322H161.551L158.24 304.25L143.494 307ZM126.619 307L111.829 309.498L113.941 322H126.619V307ZM114.901 237.625L129.691 235.127L127.579 222.625H114.901V237.625ZM114.219 237.625V222.625H104.969L100.816 230.89L114.219 237.625ZM85.5824 272.781V257.781H72.8895L70.7892 270.299L85.5824 272.781ZM131.605 272.781L146.398 275.263L149.332 257.781H131.605V272.781ZM129.474 285.48V300.48H142.167L144.268 287.962L129.474 285.48ZM83.4517 285.48L68.6585 282.998L65.7253 300.48H83.4517V285.48ZM79.3608 292H62.4858V322H79.3608V292ZM75.8046 313.9L121.018 226.627L94.3801 212.827L49.167 300.1L75.8046 313.9ZM107.699 234.727H127.216V204.727H107.699V234.727ZM112.47 222.478L128.749 309.75L158.24 304.25L141.962 216.977L112.47 222.478ZM143.494 292H126.619V322H143.494V292ZM141.41 304.502L129.691 235.127L100.11 240.123L111.829 309.498L141.41 304.502ZM114.901 222.625H114.219V252.625H114.901V222.625ZM100.816 230.89L65.9576 300.265L92.764 313.735L127.622 244.36L100.816 230.89ZM85.5824 287.781H131.605V257.781H85.5824V287.781ZM116.812 270.299L114.681 282.998L144.268 287.962L146.398 275.263L116.812 270.299ZM129.474 270.48H83.4517V300.48H129.474V270.48ZM98.2449 287.962L100.376 275.263L70.7892 270.299L68.6585 282.998L98.2449 287.962ZM241.197 219.727L255.994 222.184L258.892 204.727H241.197V219.727ZM226.708 307V322H239.423L241.506 309.457L226.708 307ZM212.646 307L199.367 313.977L203.583 322H212.646V307ZM181.41 247.554L194.688 240.577L190.473 232.554H181.41V247.554ZM180.728 247.554V232.554H168.026L165.933 245.083L180.728 247.554ZM170.799 307V322H183.501L185.594 309.471L170.799 307ZM154.989 307L140.192 304.543L137.294 322H154.989V307ZM169.478 219.727V204.727H156.763L154.681 217.271L169.478 219.727ZM183.626 219.727L196.91 212.761L192.697 204.727H183.626V219.727ZM214.819 279.216L201.534 286.182L205.747 294.216H214.819V279.216ZM215.629 279.216V294.216H228.35L230.427 281.665L215.629 279.216ZM225.472 219.727V204.727H212.75L210.674 217.278L225.472 219.727ZM226.399 217.271L211.911 304.543L241.506 309.457L255.994 222.184L226.399 217.271ZM226.708 292H212.646V322H226.708V292ZM225.924 300.023L194.688 240.577L168.131 254.531L199.367 313.977L225.924 300.023ZM181.41 232.554H180.728V262.554H181.41V232.554ZM165.933 245.083L156.004 304.529L185.594 309.471L195.523 250.025L165.933 245.083ZM170.799 292H154.989V322H170.799V292ZM169.787 309.457L184.275 222.184L154.681 217.271L140.192 304.543L169.787 309.457ZM169.478 234.727H183.626V204.727H169.478V234.727ZM170.341 226.693L201.534 286.182L228.103 272.25L196.91 212.761L170.341 226.693ZM214.819 294.216H215.629V264.216H214.819V294.216ZM230.427 281.665L240.271 222.176L210.674 217.278L200.83 276.767L230.427 281.665ZM225.472 234.727H241.197V204.727H225.472V234.727ZM312.202 247.597L297.338 249.615L299.101 262.597H312.202V247.597ZM310.497 241.418L296.799 247.529L296.816 247.569L296.834 247.609L310.497 241.418ZM307.173 236.73L296.907 247.666L296.967 247.722L297.027 247.778L307.173 236.73ZM302.102 233.747L306.967 219.558L306.967 219.558L302.102 233.747ZM281.818 236.261L289.155 249.344L289.155 249.344L281.818 236.261ZM271.037 246.659L283.578 254.889L283.589 254.871L283.601 254.853L271.037 246.659ZM264.943 263.278L250.144 260.833L250.142 260.844L250.14 260.854L264.943 263.278ZM265.114 280.026L250.599 283.812L250.599 283.812L265.114 280.026ZM271.676 290.466L262.676 302.466L262.736 302.511L262.796 302.555L271.676 290.466ZM295.923 291.446L289.557 277.864L289.557 277.864L295.923 291.446ZM304.957 284.202L293.048 275.082L293.042 275.09L293.036 275.098L304.957 284.202ZM309.56 273.122L311.908 258.307L297.033 255.949L294.735 270.834L309.56 273.122ZM313.054 273.676V288.676L315.403 258.861L313.054 273.676ZM289.318 273.676L274.536 271.128L271.511 288.676H289.318V273.676ZM291.449 261.318V246.318H278.814L276.667 258.77L291.449 261.318ZM326.861 261.318L341.647 263.843L344.639 246.318H326.861V261.318ZM325.071 271.801L310.285 269.277L310.275 269.333L310.266 269.39L325.071 271.801ZM317.102 291.233L305.102 282.233L305.095 282.243L317.102 291.233ZM301.889 303.804L308.419 317.308L308.433 317.302L308.446 317.295L301.889 303.804ZM261.747 302.781L253.427 315.262L253.464 315.287L253.502 315.312L261.747 302.781ZM250.156 287.312L235.95 292.128L235.953 292.137L235.957 292.146L250.156 287.312ZM249.048 263.449L263.844 265.915L263.851 265.876L263.857 265.837L249.048 263.449ZM255.099 244.571L241.836 237.565L241.822 237.592L241.808 237.619L255.099 244.571ZM265.838 230.466L275.95 241.545L275.954 241.542L265.838 230.466ZM280.028 221.602L285.454 235.587L285.487 235.574L285.52 235.561L280.028 221.602ZM309.517 220.665L304.44 234.779L304.485 234.796L304.53 234.812L309.517 220.665ZM319.659 226.631L309.508 237.674L309.536 237.699L309.563 237.725L319.659 226.631ZM326.179 235.835L339.989 229.98L339.989 229.98L326.179 235.835ZM328.31 247.597V262.597H343.015L343.307 247.895L328.31 247.597ZM327.065 245.578C326.588 242.065 325.673 238.566 324.16 235.227L296.834 247.609C296.969 247.906 297.19 248.526 297.338 249.615L327.065 245.578ZM324.196 235.306C322.596 231.721 320.324 228.441 317.319 225.682L297.027 247.778C296.935 247.693 296.861 247.606 296.812 247.537C296.765 247.47 296.767 247.457 296.799 247.529L324.196 235.306ZM317.44 225.794C314.348 222.891 310.762 220.859 306.967 219.558L297.237 247.936C297.346 247.974 297.34 247.982 297.256 247.933C297.169 247.882 297.043 247.794 296.907 247.666L317.44 225.794ZM306.967 219.558C303.07 218.222 299.047 217.724 295.156 217.724V247.724C296.549 247.724 297.158 247.909 297.237 247.936L306.967 219.558ZM295.156 217.724C287.824 217.724 280.86 219.601 274.481 223.178L289.155 249.344C291.185 248.206 293.113 247.724 295.156 247.724V217.724ZM274.481 223.178C267.899 226.87 262.601 232.136 258.473 238.465L283.601 254.853C285.439 252.035 287.328 250.369 289.155 249.344L274.481 223.178ZM258.496 238.429C254.143 245.062 251.492 252.675 250.144 260.833L279.743 265.724C280.554 260.814 281.965 257.347 283.578 254.889L258.496 238.429ZM250.14 260.854C248.852 268.719 248.706 276.555 250.599 283.812L279.628 276.239C279.135 274.348 278.875 271.02 279.746 265.703L250.14 260.854ZM250.599 283.812C252.481 291.025 256.293 297.678 262.676 302.466L280.676 278.466C280.603 278.411 280.499 278.322 280.349 278.083C280.182 277.819 279.894 277.261 279.628 276.239L250.599 283.812ZM262.796 302.555C269.104 307.188 276.442 309.003 283.778 309.003V279.003C281.399 279.003 280.669 278.46 280.556 278.377L262.796 302.555ZM283.778 309.003C290.194 309.003 296.45 307.765 302.29 305.028L289.557 277.864C288.124 278.536 286.284 279.003 283.778 279.003V309.003ZM302.29 305.028C308.063 302.322 312.996 298.39 316.879 293.305L293.036 275.098C292.146 276.263 291.057 277.161 289.557 277.864L302.29 305.028ZM316.867 293.321C320.929 288.016 323.378 281.929 324.384 275.41L294.735 270.834C294.435 272.782 293.815 274.08 293.048 275.082L316.867 293.321ZM307.211 287.937L310.705 288.491L315.403 258.861L311.908 258.307L307.211 287.937ZM313.054 258.676H289.318V288.676H313.054V258.676ZM304.1 276.225L306.231 263.867L276.667 258.77L274.536 271.128L304.1 276.225ZM291.449 276.318H326.861V246.318H291.449V276.318ZM312.075 258.794L310.285 269.277L339.857 274.326L341.647 263.843L312.075 258.794ZM310.266 269.39C309.389 274.777 307.58 278.929 305.102 282.233L329.102 300.233C334.806 292.628 338.31 283.825 339.876 274.213L310.266 269.39ZM305.095 282.243C302.461 285.761 299.256 288.406 295.333 290.313L308.446 317.295C316.681 313.293 323.619 307.557 329.11 300.223L305.095 282.243ZM295.359 290.3C291.492 292.17 287.113 293.193 281.989 293.193V323.193C291.296 323.193 300.185 321.29 308.419 317.308L295.359 290.3ZM281.989 293.193C276.256 293.193 272.534 291.923 269.993 290.251L253.502 315.312C261.926 320.855 271.698 323.193 281.989 323.193V293.193ZM270.068 290.3C267.575 288.639 265.65 286.28 264.356 282.479L235.957 292.146C239.208 301.697 245.01 309.651 253.427 315.262L270.068 290.3ZM264.362 282.497C263.096 278.76 262.592 273.429 263.844 265.915L234.252 260.983C232.437 271.878 232.671 282.456 235.95 292.128L264.362 282.497ZM263.857 265.837C264.772 260.163 266.339 255.447 268.391 251.523L241.808 237.619C238.065 244.774 235.597 252.644 234.24 261.06L263.857 265.837ZM268.363 251.577C270.556 247.424 273.108 244.139 275.95 241.545L255.726 219.387C250.102 224.52 245.495 230.639 241.836 237.565L268.363 251.577ZM275.954 241.542C278.894 238.856 282.045 236.909 285.454 235.587L274.603 207.618C267.614 210.33 261.305 214.291 255.722 219.39L275.954 241.542ZM285.52 235.561C288.931 234.219 292.519 233.534 296.392 233.534V203.534C288.845 203.534 281.524 204.895 274.537 207.644L285.52 235.561ZM296.392 233.534C299.708 233.534 302.336 234.023 304.44 234.779L314.594 206.55C308.8 204.466 302.678 203.534 296.392 203.534V233.534ZM304.53 234.812C306.75 235.594 308.327 236.589 309.508 237.674L329.81 215.587C325.366 211.502 320.181 208.519 314.504 206.518L304.53 234.812ZM309.563 237.725C310.796 238.846 311.705 240.125 312.369 241.691L339.989 229.98C337.641 224.443 334.204 219.586 329.755 215.537L309.563 237.725ZM312.369 241.691C312.962 243.089 313.361 244.882 313.313 247.299L343.307 247.895C343.429 241.731 342.407 235.684 339.989 229.98L312.369 241.691ZM328.31 232.597H312.202V262.597H328.31V232.597ZM404.023 219.727V204.727H391.309L389.226 217.27L404.023 219.727ZM419.833 219.727L434.631 222.182L437.527 204.727H419.833V219.727ZM410.373 276.744L395.575 274.289L395.572 274.306L395.57 274.322L410.373 276.744ZM403.214 293.236L391.446 283.934L391.429 283.956L391.412 283.978L403.214 293.236ZM388.981 304.358L395.228 317.995L395.256 317.982L395.284 317.969L388.981 304.358ZM351.737 304.358L344.511 317.503L344.54 317.519L344.57 317.535L351.737 304.358ZM341.211 293.236L327.528 299.381L327.543 299.415L327.558 299.449L341.211 293.236ZM339.549 276.744L324.751 274.289L324.749 274.306L324.746 274.322L339.549 276.744ZM349.009 219.727V204.727H336.293L334.212 217.272L349.009 219.727ZM364.819 219.727L379.616 222.184L382.515 204.727H364.819V219.727ZM355.572 275.423L340.774 272.966L340.772 272.981L340.77 272.995L355.572 275.423ZM356.381 285.139L342.454 290.71L342.488 290.795L342.523 290.879L356.381 285.139ZM362.092 291.787L354.253 304.576L354.284 304.595L354.314 304.613L362.092 291.787ZM382.93 291.787L376.174 278.394L376.174 278.394L382.93 291.787ZM390.813 285.139L402.944 293.962L402.965 293.933L402.986 293.904L390.813 285.139ZM394.776 275.423L379.979 272.966L379.976 272.981L379.974 272.995L394.776 275.423ZM404.023 234.727H419.833V204.727H404.023V234.727ZM405.035 217.272L395.575 274.289L425.171 279.2L434.631 222.182L405.035 217.272ZM395.57 274.322C394.938 278.182 393.541 281.284 391.446 283.934L414.982 302.537C420.387 295.699 423.762 287.807 425.176 279.167L395.57 274.322ZM391.412 283.978C389.233 286.756 386.413 289.017 382.678 290.746L395.284 317.969C403.083 314.358 409.752 309.204 415.016 302.494L391.412 283.978ZM382.733 290.721C379.142 292.366 374.887 293.321 369.719 293.321V323.321C378.7 323.321 387.286 321.634 395.228 317.995L382.733 290.721ZM369.719 293.321C364.387 293.321 361.016 292.33 358.903 291.181L344.57 317.535C352.173 321.67 360.79 323.321 369.719 323.321V293.321ZM358.962 291.213C356.746 289.995 355.596 288.631 354.864 287.023L327.558 299.449C331.144 307.329 337.011 313.38 344.511 317.503L358.962 291.213ZM354.894 287.091C354.209 285.565 353.7 283.151 354.352 279.167L324.746 274.322C323.352 282.838 323.951 291.418 327.528 299.381L354.894 287.091ZM354.347 279.2L363.807 222.182L334.212 217.272L324.751 274.289L354.347 279.2ZM349.009 234.727H364.819V204.727H349.009V234.727ZM350.021 217.27L340.774 272.966L370.369 277.88L379.616 222.184L350.021 217.27ZM340.77 272.995C339.821 278.774 340.113 284.858 342.454 290.71L370.309 279.568C370.327 279.614 370.294 279.561 370.275 279.334C370.255 279.091 370.249 278.615 370.374 277.852L340.77 272.995ZM342.523 290.879C344.923 296.674 348.962 301.333 354.253 304.576L369.93 278.998C369.887 278.971 369.889 278.969 369.922 278.996C369.955 279.025 370.005 279.072 370.061 279.137C370.117 279.202 370.163 279.267 370.198 279.324C370.232 279.38 370.244 279.409 370.24 279.4L342.523 290.879ZM354.314 304.613C359.906 308.004 366.12 309.216 372.106 309.216V279.216C370.08 279.216 369.618 278.809 369.869 278.961L354.314 304.613ZM372.106 309.216C378.187 309.216 384.151 307.971 389.685 305.18L376.174 278.394C375.288 278.841 374.036 279.216 372.106 279.216V309.216ZM389.685 305.18C394.95 302.524 399.447 298.77 402.944 293.962L378.682 276.317C378.088 277.133 377.329 277.812 376.174 278.394L389.685 305.18ZM402.986 293.904C406.457 289.083 408.627 283.651 409.578 277.852L379.974 272.995C379.732 274.468 379.26 275.513 378.64 276.375L402.986 293.904ZM409.574 277.88L418.821 222.184L389.226 217.27L379.979 272.966L409.574 277.88ZM422.528 307L407.731 304.543L404.833 322H422.528V307ZM437.017 219.727V204.727H424.302L422.22 217.271L437.017 219.727ZM452.827 219.727L467.625 222.181L470.519 204.727H452.827V219.727ZM440.554 293.747L425.756 291.294L422.862 308.747H440.554V293.747ZM478.991 293.747L493.786 296.221L496.708 278.747H478.991V293.747ZM476.776 307V322H489.476L491.57 309.474L476.776 307ZM437.326 309.457L451.815 222.184L422.22 217.271L407.731 304.543L437.326 309.457ZM437.017 234.727H452.827V204.727H437.017V234.727ZM438.029 217.274L425.756 291.294L455.352 296.201L467.625 222.181L438.029 217.274ZM440.554 308.747H478.991V278.747H440.554V308.747ZM464.197 291.273L461.981 304.526L491.57 309.474L493.786 296.221L464.197 291.273ZM476.776 292H422.528V322H476.776V292ZM504.986 307V322H514.236L518.389 313.735L504.986 307ZM488.111 307L474.792 300.1L463.446 322H488.111V307ZM533.324 219.727V204.727H524.201L520.005 212.827L533.324 219.727ZM552.841 219.727L567.587 216.977L565.302 204.727H552.841V219.727ZM569.119 307V322H587.176L583.865 304.25L569.119 307ZM552.244 307L537.454 309.498L539.566 322H552.244V307ZM540.526 237.625L555.316 235.127L553.204 222.625H540.526V237.625ZM539.844 237.625V222.625H530.594L526.441 230.89L539.844 237.625ZM511.207 272.781V257.781H498.514L496.414 270.299L511.207 272.781ZM557.23 272.781L572.023 275.263L574.957 257.781H557.23V272.781ZM555.099 285.48V300.48H567.792L569.893 287.962L555.099 285.48ZM509.077 285.48L494.283 282.998L491.35 300.48H509.077V285.48ZM504.986 292H488.111V322H504.986V292ZM501.43 313.9L546.643 226.627L520.005 212.827L474.792 300.1L501.43 313.9ZM533.324 234.727H552.841V204.727H533.324V234.727ZM538.095 222.478L554.374 309.75L583.865 304.25L567.587 216.977L538.095 222.478ZM569.119 292H552.244V322H569.119V292ZM567.035 304.502L555.316 235.127L525.735 240.123L537.454 309.498L567.035 304.502ZM540.526 222.625H539.844V252.625H540.526V222.625ZM526.441 230.89L491.583 300.265L518.389 313.735L553.247 244.36L526.441 230.89ZM511.207 287.781H557.23V257.781H511.207V287.781ZM542.437 270.299L540.306 282.998L569.893 287.962L572.023 275.263L542.437 270.299ZM555.099 270.48H509.077V300.48H555.099V270.48ZM523.87 287.962L526.001 275.263L496.414 270.299L494.283 282.998L523.87 287.962ZM580.614 307L565.817 304.543L562.919 322H580.614V307ZM595.103 219.727V204.727H582.388L580.306 217.271L595.103 219.727ZM644.151 223.222L651.459 210.122L651.459 210.122L644.151 223.222ZM652.887 233.023L638.921 238.496L638.928 238.512L638.934 238.528L652.887 233.023ZM653.952 247.639L639.161 245.149L639.154 245.185L639.148 245.222L653.952 247.639ZM647.987 262.17L635.957 253.21L635.952 253.217L635.946 253.224L647.987 262.17ZM635.927 271.673L629.784 257.989L629.77 257.995L629.755 258.002L635.927 271.673ZM595.103 275.04L580.312 272.543L577.358 290.04H595.103V275.04ZM597.319 261.915V246.915H584.639L582.528 259.418L597.319 261.915ZM628.427 260.295L634.049 274.202L634.112 274.176L634.175 274.15L628.427 260.295ZM634.734 255.48L622.638 246.61L622.627 246.624L622.617 246.638L634.734 255.48ZM637.844 247.639L652.644 250.083L652.655 250.017L652.665 249.951L637.844 247.639ZM637.29 239.713L623.231 244.94L623.271 245.05L623.314 245.159L637.29 239.713ZM632.56 234.685L625.786 248.068L625.885 248.118L625.984 248.166L632.56 234.685ZM608.739 232.938V217.938H596.028L593.943 230.477L608.739 232.938ZM596.424 307V322H609.136L611.221 309.46L596.424 307ZM632.262 267.455L646.282 262.122L642.605 252.455H632.262V267.455ZM647.305 307V322H669.059L661.325 301.667L647.305 307ZM629.663 307L615.598 312.214L619.226 322H629.663V307ZM615.004 267.455V252.455H593.446L600.939 272.668L615.004 267.455ZM595.412 309.457L609.9 222.184L580.306 217.271L565.817 304.543L595.412 309.457ZM595.103 234.727H627.83V204.727H595.103V234.727ZM627.83 234.727C632.951 234.727 635.621 235.639 636.844 236.321L651.459 210.122C644.329 206.145 636.119 204.727 627.83 204.727V234.727ZM636.844 236.321C638.177 237.065 638.62 237.728 638.921 238.496L666.853 227.55C663.858 219.908 658.478 214.037 651.459 210.122L636.844 236.321ZM638.934 238.528C639.352 239.587 639.761 241.586 639.161 245.149L668.744 250.13C670.019 242.556 669.718 234.811 666.84 227.517L638.934 238.528ZM639.148 245.222C638.588 248.656 637.452 251.203 635.957 253.21L660.016 271.131C664.657 264.9 667.499 257.758 668.756 250.056L639.148 245.222ZM635.946 253.224C634.55 255.104 632.628 256.712 629.784 257.989L642.069 285.358C649.226 282.146 655.344 277.419 660.027 271.117L635.946 253.224ZM629.755 258.002C627.115 259.194 623.465 260.04 618.413 260.04V290.04C626.77 290.04 634.796 288.641 642.099 285.345L629.755 258.002ZM618.413 260.04H595.103V290.04H618.413V260.04ZM609.894 277.537L612.11 264.412L582.528 259.418L580.312 272.543L609.894 277.537ZM597.319 276.915H618.54V246.915H597.319V276.915ZM618.54 276.915C623.736 276.915 629.073 276.213 634.049 274.202L622.805 246.389C622.44 246.537 621.186 246.915 618.54 246.915V276.915ZM634.175 274.15C639.098 272.108 643.518 268.889 646.851 264.322L622.617 246.638C622.661 246.578 622.712 246.517 622.768 246.46C622.823 246.403 622.871 246.363 622.904 246.338C622.935 246.314 622.941 246.313 622.91 246.331C622.879 246.349 622.805 246.388 622.679 246.441L634.175 274.15ZM646.83 264.351C650.024 259.994 651.82 255.071 652.644 250.083L623.045 245.195C622.846 246.401 622.568 246.705 622.638 246.61L646.83 264.351ZM652.665 249.951C653.424 245.086 653.35 239.613 651.267 234.268L623.314 245.159C623.126 244.676 623.104 244.378 623.105 244.381C623.105 244.386 623.11 244.463 623.102 244.623C623.093 244.784 623.072 245.016 623.024 245.328L652.665 249.951ZM651.35 234.486C649.049 228.297 644.564 223.851 639.137 221.203L625.984 248.166C625.722 248.038 625.167 247.712 624.564 247.072C623.944 246.412 623.497 245.656 623.231 244.94L651.35 234.486ZM639.335 221.301C634.124 218.664 628.386 217.938 623.228 217.938V247.938C624.472 247.938 625.281 248.032 625.741 248.118C626.205 248.205 626.151 248.253 625.786 248.068L639.335 221.301ZM623.228 217.938H608.739V247.938H623.228V217.938ZM593.943 230.477L581.627 304.54L611.221 309.46L623.536 235.398L593.943 230.477ZM596.424 292H580.614V322H596.424V292ZM618.242 272.788L633.285 312.333L661.325 301.667L646.282 262.122L618.242 272.788ZM647.305 292H629.663V322H647.305V292ZM643.727 301.786L629.068 262.241L600.939 272.668L615.598 312.214L643.727 301.786ZM615.004 282.455H632.262V252.455H615.004V282.455Z" fill="black" mask="url(#path-2-outside-1_1_17)"/>
<mask id="path-4-outside-2_1_17" maskUnits="userSpaceOnUse" x="186" y="340" width="356" height="121" fill="black">
<rect fill="white" x="186" y="340" width="356" height="121"/>
<path d="M204.153 444L218.642 356.727H252.051C258.358 356.727 263.443 357.722 267.307 359.71C271.17 361.67 273.855 364.355 275.361 367.764C276.895 371.173 277.293 375.037 276.554 379.355C275.957 382.878 274.764 385.903 272.974 388.432C271.213 390.932 269.054 392.977 266.497 394.568C263.94 396.131 261.199 397.253 258.273 397.935L258.102 398.787C261.17 398.929 263.983 399.866 266.54 401.599C269.097 403.332 271.028 405.776 272.335 408.929C273.642 412.054 273.94 415.818 273.23 420.222C272.463 424.739 270.688 428.801 267.903 432.409C265.119 435.989 261.341 438.815 256.568 440.889C251.824 442.963 246.128 444 239.48 444H204.153ZM222.179 430.79H239.182C244.892 430.79 249.21 429.696 252.136 427.509C255.063 425.293 256.81 422.452 257.378 418.986C257.804 416.401 257.548 414.071 256.611 411.997C255.673 409.895 254.125 408.247 251.966 407.054C249.807 405.832 247.108 405.222 243.869 405.222H226.398L222.179 430.79ZM228.358 393.844H243.997C246.724 393.844 249.253 393.347 251.582 392.352C253.94 391.33 255.901 389.895 257.463 388.048C259.054 386.173 260.034 383.957 260.403 381.401C261 378.02 260.29 375.236 258.273 373.048C256.256 370.861 252.932 369.767 248.301 369.767H232.278L228.358 393.844ZM283.021 444L297.509 356.727H313.319L301.046 430.747H339.484L337.268 444H283.021ZM432.648 401.386C431.114 410.648 428.088 418.545 423.571 425.08C419.082 431.585 413.599 436.571 407.122 440.037C400.673 443.474 393.727 445.193 386.284 445.193C378.472 445.193 371.767 443.375 366.17 439.739C360.574 436.074 356.54 430.832 354.068 424.014C351.625 417.196 351.199 409.014 352.79 399.469C354.324 390.236 357.335 382.338 361.824 375.776C366.313 369.213 371.81 364.199 378.315 360.733C384.821 357.267 391.838 355.534 399.366 355.534C407.122 355.534 413.77 357.366 419.31 361.031C424.878 364.668 428.884 369.909 431.327 376.756C433.798 383.602 434.239 391.812 432.648 401.386ZM417.094 399.469C418.145 393.02 418.045 387.58 416.795 383.148C415.574 378.716 413.401 375.378 410.276 373.134C407.151 370.861 403.301 369.724 398.727 369.724C393.784 369.724 389.21 370.96 385.006 373.432C380.83 375.875 377.278 379.455 374.352 384.17C371.455 388.886 369.466 394.625 368.386 401.386C367.25 407.864 367.321 413.304 368.599 417.707C369.878 422.111 372.094 425.435 375.247 427.679C378.401 429.895 382.25 431.003 386.795 431.003C391.71 431.003 396.256 429.781 400.432 427.338C404.608 424.895 408.145 421.33 411.043 416.642C413.969 411.955 415.986 406.23 417.094 399.469ZM508.788 384.597C508.475 382.295 507.907 380.236 507.083 378.418C506.259 376.571 505.151 375.009 503.759 373.73C502.367 372.423 500.677 371.429 498.688 370.747C496.7 370.065 494.384 369.724 491.742 369.724C487.055 369.724 482.609 370.903 478.404 373.261C474.2 375.619 470.606 379.085 467.623 383.659C464.64 388.205 462.609 393.744 461.529 400.278C460.45 406.869 460.506 412.452 461.7 417.026C462.893 421.599 465.08 425.08 468.262 427.466C471.472 429.824 475.506 431.003 480.364 431.003C484.825 431.003 488.873 430.151 492.509 428.446C496.146 426.741 499.157 424.327 501.543 421.202C503.958 418.048 505.492 414.355 506.146 410.122L509.64 410.676H485.904L488.035 398.318H523.447L521.657 408.801C520.435 416.301 517.779 422.778 513.688 428.233C509.626 433.659 504.555 437.849 498.475 440.804C492.424 443.73 485.79 445.193 478.575 445.193C470.563 445.193 463.816 443.389 458.333 439.781C452.879 436.145 449.015 430.989 446.742 424.312C444.469 417.608 444.1 409.653 445.634 400.449C446.771 393.403 448.788 387.111 451.685 381.571C454.612 376.031 458.191 371.33 462.424 367.466C466.685 363.574 471.415 360.619 476.614 358.602C481.813 356.557 487.268 355.534 492.978 355.534C497.779 355.534 502.154 356.244 506.103 357.665C510.052 359.057 513.433 361.045 516.245 363.631C519.086 366.216 521.259 369.284 522.765 372.835C524.271 376.386 524.981 380.307 524.896 384.597H508.788Z"/>
</mask>
<path d="M204.153 444L218.642 356.727H252.051C258.358 356.727 263.443 357.722 267.307 359.71C271.17 361.67 273.855 364.355 275.361 367.764C276.895 371.173 277.293 375.037 276.554 379.355C275.957 382.878 274.764 385.903 272.974 388.432C271.213 390.932 269.054 392.977 266.497 394.568C263.94 396.131 261.199 397.253 258.273 397.935L258.102 398.787C261.17 398.929 263.983 399.866 266.54 401.599C269.097 403.332 271.028 405.776 272.335 408.929C273.642 412.054 273.94 415.818 273.23 420.222C272.463 424.739 270.688 428.801 267.903 432.409C265.119 435.989 261.341 438.815 256.568 440.889C251.824 442.963 246.128 444 239.48 444H204.153ZM222.179 430.79H239.182C244.892 430.79 249.21 429.696 252.136 427.509C255.063 425.293 256.81 422.452 257.378 418.986C257.804 416.401 257.548 414.071 256.611 411.997C255.673 409.895 254.125 408.247 251.966 407.054C249.807 405.832 247.108 405.222 243.869 405.222H226.398L222.179 430.79ZM228.358 393.844H243.997C246.724 393.844 249.253 393.347 251.582 392.352C253.94 391.33 255.901 389.895 257.463 388.048C259.054 386.173 260.034 383.957 260.403 381.401C261 378.02 260.29 375.236 258.273 373.048C256.256 370.861 252.932 369.767 248.301 369.767H232.278L228.358 393.844ZM283.021 444L297.509 356.727H313.319L301.046 430.747H339.484L337.268 444H283.021ZM432.648 401.386C431.114 410.648 428.088 418.545 423.571 425.08C419.082 431.585 413.599 436.571 407.122 440.037C400.673 443.474 393.727 445.193 386.284 445.193C378.472 445.193 371.767 443.375 366.17 439.739C360.574 436.074 356.54 430.832 354.068 424.014C351.625 417.196 351.199 409.014 352.79 399.469C354.324 390.236 357.335 382.338 361.824 375.776C366.313 369.213 371.81 364.199 378.315 360.733C384.821 357.267 391.838 355.534 399.366 355.534C407.122 355.534 413.77 357.366 419.31 361.031C424.878 364.668 428.884 369.909 431.327 376.756C433.798 383.602 434.239 391.812 432.648 401.386ZM417.094 399.469C418.145 393.02 418.045 387.58 416.795 383.148C415.574 378.716 413.401 375.378 410.276 373.134C407.151 370.861 403.301 369.724 398.727 369.724C393.784 369.724 389.21 370.96 385.006 373.432C380.83 375.875 377.278 379.455 374.352 384.17C371.455 388.886 369.466 394.625 368.386 401.386C367.25 407.864 367.321 413.304 368.599 417.707C369.878 422.111 372.094 425.435 375.247 427.679C378.401 429.895 382.25 431.003 386.795 431.003C391.71 431.003 396.256 429.781 400.432 427.338C404.608 424.895 408.145 421.33 411.043 416.642C413.969 411.955 415.986 406.23 417.094 399.469ZM508.788 384.597C508.475 382.295 507.907 380.236 507.083 378.418C506.259 376.571 505.151 375.009 503.759 373.73C502.367 372.423 500.677 371.429 498.688 370.747C496.7 370.065 494.384 369.724 491.742 369.724C487.055 369.724 482.609 370.903 478.404 373.261C474.2 375.619 470.606 379.085 467.623 383.659C464.64 388.205 462.609 393.744 461.529 400.278C460.45 406.869 460.506 412.452 461.7 417.026C462.893 421.599 465.08 425.08 468.262 427.466C471.472 429.824 475.506 431.003 480.364 431.003C484.825 431.003 488.873 430.151 492.509 428.446C496.146 426.741 499.157 424.327 501.543 421.202C503.958 418.048 505.492 414.355 506.146 410.122L509.64 410.676H485.904L488.035 398.318H523.447L521.657 408.801C520.435 416.301 517.779 422.778 513.688 428.233C509.626 433.659 504.555 437.849 498.475 440.804C492.424 443.73 485.79 445.193 478.575 445.193C470.563 445.193 463.816 443.389 458.333 439.781C452.879 436.145 449.015 430.989 446.742 424.312C444.469 417.608 444.1 409.653 445.634 400.449C446.771 393.403 448.788 387.111 451.685 381.571C454.612 376.031 458.191 371.33 462.424 367.466C466.685 363.574 471.415 360.619 476.614 358.602C481.813 356.557 487.268 355.534 492.978 355.534C497.779 355.534 502.154 356.244 506.103 357.665C510.052 359.057 513.433 361.045 516.245 363.631C519.086 366.216 521.259 369.284 522.765 372.835C524.271 376.386 524.981 380.307 524.896 384.597H508.788Z" fill="url(#paint2_linear_1_17)"/>
<path d="M204.153 444L189.356 441.543L186.458 459H204.153V444ZM218.642 356.727V341.727H205.927L203.845 354.271L218.642 356.727ZM267.307 359.71L260.442 373.047L260.481 373.067L260.52 373.087L267.307 359.71ZM275.361 367.764L261.64 373.824L261.661 373.872L261.682 373.92L275.361 367.764ZM276.554 379.355L261.769 376.826L261.767 376.838L261.765 376.85L276.554 379.355ZM272.974 388.432L260.731 379.765L260.722 379.779L260.712 379.793L272.974 388.432ZM266.497 394.568L274.319 407.367L274.37 407.336L274.422 407.304L266.497 394.568ZM258.273 397.935L254.869 383.326L245.459 385.519L243.564 394.993L258.273 397.935ZM258.102 398.787L243.394 395.845L239.97 412.964L257.409 413.771L258.102 398.787ZM266.54 401.599L274.956 389.183L274.956 389.183L266.54 401.599ZM272.335 408.929L258.478 414.672L258.487 414.694L258.497 414.716L272.335 408.929ZM273.23 420.222L288.018 422.733L288.029 422.671L288.039 422.61L273.23 420.222ZM267.903 432.409L279.744 441.618L279.761 441.596L279.779 441.573L267.903 432.409ZM256.568 440.889L250.59 427.132L250.575 427.138L250.56 427.145L256.568 440.889ZM222.179 430.79L207.379 428.348L204.501 445.79H222.179V430.79ZM252.136 427.509L261.118 439.523L261.155 439.495L261.192 439.467L252.136 427.509ZM257.378 418.986L242.578 416.546L242.575 416.559L257.378 418.986ZM256.611 411.997L242.911 418.106L242.927 418.141L242.943 418.176L256.611 411.997ZM251.966 407.054L244.579 420.109L244.645 420.146L244.711 420.183L251.966 407.054ZM226.398 405.222V390.222H213.67L211.598 402.78L226.398 405.222ZM228.358 393.844L213.553 391.433L210.718 408.844H228.358V393.844ZM251.582 392.352L257.471 406.148L257.511 406.131L257.551 406.114L251.582 392.352ZM257.463 388.048L246.025 378.344L246.019 378.351L246.012 378.359L257.463 388.048ZM260.403 381.401L245.632 378.794L245.591 379.024L245.557 379.256L260.403 381.401ZM232.278 369.767V354.767H219.523L217.473 367.356L232.278 369.767ZM218.951 446.457L233.44 359.184L203.845 354.271L189.356 441.543L218.951 446.457ZM218.642 371.727H252.051V341.727H218.642V371.727ZM252.051 371.727C256.971 371.727 259.442 372.533 260.442 373.047L274.171 346.373C267.444 342.911 259.745 341.727 252.051 341.727V371.727ZM260.52 373.087C261.236 373.45 261.534 373.723 261.611 373.8C261.652 373.841 261.659 373.855 261.651 373.842C261.642 373.829 261.637 373.819 261.64 373.824L289.082 361.704C285.957 354.628 280.517 349.592 274.094 346.333L260.52 373.087ZM261.682 373.92C261.793 374.166 262.093 374.931 261.769 376.826L291.339 381.884C292.492 375.143 291.997 368.18 289.04 361.609L261.682 373.92ZM261.765 376.85C261.486 378.494 261.035 379.336 260.731 379.765L285.217 397.098C288.493 392.471 290.429 387.261 291.343 381.86L261.765 376.85ZM260.712 379.793C260.089 380.677 259.397 381.32 258.573 381.832L274.422 407.304C278.711 404.635 282.337 401.187 285.237 397.071L260.712 379.793ZM258.675 381.769C257.489 382.494 256.239 383.007 254.869 383.326L261.677 412.543C266.158 411.499 270.392 409.767 274.319 407.367L258.675 381.769ZM243.564 394.993L243.394 395.845L272.811 401.729L272.981 400.876L243.564 394.993ZM257.409 413.771C257.699 413.784 257.842 413.825 258.124 414.016L274.956 389.183C270.124 385.908 264.642 384.074 258.796 383.803L257.409 413.771ZM258.124 414.016C258.132 414.021 258.129 414.02 258.123 414.014C258.117 414.009 258.122 414.013 258.14 414.035C258.17 414.073 258.304 414.251 258.478 414.672L286.192 403.186C283.886 397.62 280.192 392.732 274.956 389.183L258.124 414.016ZM258.497 414.716C258.432 414.563 258.824 415.337 258.421 417.833L288.039 422.61C289.057 416.3 288.852 409.545 286.174 403.142L258.497 414.716ZM258.442 417.71C258.084 419.818 257.302 421.594 256.028 423.245L279.779 441.573C284.073 436.009 286.842 429.659 288.018 422.733L258.442 417.71ZM256.063 423.2C255.036 424.521 253.402 425.91 250.59 427.132L262.546 454.647C269.28 451.721 275.203 447.457 279.744 441.618L256.063 423.2ZM250.56 427.145C248.167 428.191 244.624 429 239.48 429V459C247.632 459 255.481 457.735 262.576 454.633L250.56 427.145ZM239.48 429H204.153V459H239.48V429ZM222.179 445.79H239.182V415.79H222.179V445.79ZM239.182 445.79C246.426 445.79 254.504 444.467 261.118 439.523L243.155 415.495C243.58 415.176 243.673 415.263 243.02 415.429C242.347 415.599 241.125 415.79 239.182 415.79V445.79ZM261.192 439.467C267.032 435.044 270.959 428.86 272.18 421.412L242.575 416.559C242.58 416.533 242.598 416.439 242.65 416.299C242.702 416.156 242.774 416.004 242.864 415.858C243.06 415.541 243.209 415.453 243.081 415.55L261.192 439.467ZM272.178 421.425C273.011 416.373 272.613 410.981 270.279 405.818L242.943 418.176C242.741 417.731 242.635 417.294 242.595 416.936C242.558 416.594 242.594 416.444 242.578 416.546L272.178 421.425ZM270.31 405.888C267.947 400.588 264.017 396.575 259.221 393.925L244.711 420.183C244.547 420.092 244.203 419.869 243.815 419.456C243.419 419.035 243.113 418.56 242.911 418.106L270.31 405.888ZM259.352 393.999C254.354 391.171 248.928 390.222 243.869 390.222V420.222C244.558 420.222 244.914 420.288 245.011 420.31C245.096 420.329 244.912 420.297 244.579 420.109L259.352 393.999ZM243.869 390.222H226.398V420.222H243.869V390.222ZM211.598 402.78L207.379 428.348L236.979 433.232L241.198 407.664L211.598 402.78ZM228.358 408.844H243.997V378.844H228.358V408.844ZM243.997 408.844C248.591 408.844 253.141 407.996 257.471 406.148L245.694 378.556C245.365 378.697 244.858 378.844 243.997 378.844V408.844ZM257.551 406.114C261.89 404.232 265.769 401.454 268.914 397.737L246.012 378.359C246 378.374 245.99 378.384 245.962 378.405C245.931 378.427 245.83 378.497 245.614 378.591L257.551 406.114ZM268.901 397.753C272.41 393.617 274.498 388.744 275.249 383.545L245.557 379.256C245.555 379.271 245.575 379.135 245.673 378.913C245.774 378.685 245.904 378.486 246.025 378.344L268.901 397.753ZM275.175 384.007C276.443 376.821 275.005 369.067 269.3 362.88L247.245 383.217C246.629 382.549 246.066 381.591 245.784 380.485C245.52 379.45 245.631 378.799 245.632 378.794L275.175 384.007ZM269.3 362.88C263.191 356.254 254.824 354.767 248.301 354.767V384.767C249.507 384.767 249.829 384.918 249.578 384.836C249.428 384.786 249.097 384.66 248.663 384.393C248.22 384.121 247.723 383.735 247.245 383.217L269.3 362.88ZM248.301 354.767H232.278V384.767H248.301V354.767ZM217.473 367.356L213.553 391.433L243.163 396.254L247.083 372.178L217.473 367.356ZM283.021 444L268.223 441.543L265.325 459H283.021V444ZM297.509 356.727V341.727H284.794L282.712 354.271L297.509 356.727ZM313.319 356.727L328.117 359.181L331.011 341.727H313.319V356.727ZM301.046 430.747L286.248 428.294L283.354 445.747H301.046V430.747ZM339.484 430.747L354.278 433.221L357.2 415.747H339.484V430.747ZM337.268 444V459H349.968L352.062 446.474L337.268 444ZM297.818 446.457L312.307 359.184L282.712 354.271L268.223 441.543L297.818 446.457ZM297.509 371.727H313.319V341.727H297.509V371.727ZM298.521 354.274L286.248 428.294L315.844 433.201L328.117 359.181L298.521 354.274ZM301.046 445.747H339.484V415.747H301.046V445.747ZM324.689 428.273L322.473 441.526L352.062 446.474L354.278 433.221L324.689 428.273ZM337.268 429H283.021V459H337.268V429ZM432.648 401.386L417.851 398.927L417.849 398.935L432.648 401.386ZM423.571 425.08L411.232 416.55L411.225 416.561L423.571 425.08ZM407.122 440.037L414.178 453.274L414.189 453.268L414.199 453.263L407.122 440.037ZM366.17 439.739L357.953 452.288L357.975 452.302L357.998 452.317L366.17 439.739ZM354.068 424.014L339.947 429.074L339.957 429.1L339.966 429.126L354.068 424.014ZM352.79 399.469L367.586 401.935L367.587 401.927L352.79 399.469ZM361.824 375.776L374.205 384.244L374.205 384.244L361.824 375.776ZM378.315 360.733L371.263 347.494L371.263 347.494L378.315 360.733ZM419.31 361.031L411.034 373.542L411.071 373.566L411.108 373.59L419.31 361.031ZM431.327 376.756L417.199 381.797L417.209 381.823L417.218 381.849L431.327 376.756ZM417.094 399.469L431.896 401.894L431.898 401.882L417.094 399.469ZM416.795 383.148L402.335 387.134L402.347 387.177L402.359 387.22L416.795 383.148ZM410.276 373.134L401.453 385.265L401.489 385.291L401.526 385.317L410.276 373.134ZM385.006 373.432L392.58 386.379L392.594 386.371L392.607 386.363L385.006 373.432ZM374.352 384.17L361.606 376.262L361.589 376.29L361.572 376.318L374.352 384.17ZM368.386 401.386L383.161 403.978L383.181 403.865L383.199 403.751L368.386 401.386ZM375.247 427.679L366.549 439.9L366.586 439.926L366.623 439.952L375.247 427.679ZM400.432 427.338L392.857 414.391L392.857 414.391L400.432 427.338ZM411.043 416.642L398.318 408.699L398.301 408.727L398.284 408.755L411.043 416.642ZM417.849 398.935C416.612 406.407 414.283 412.137 411.232 416.55L435.91 433.609C441.893 424.954 445.616 414.889 447.446 403.838L417.849 398.935ZM411.225 416.561C407.987 421.253 404.258 424.557 400.045 426.811L414.199 453.263C422.94 448.585 430.178 441.917 435.917 433.598L411.225 416.561ZM400.066 426.8C395.831 429.058 391.314 430.193 386.284 430.193V460.193C396.141 460.193 405.516 457.891 414.178 453.274L400.066 426.8ZM386.284 430.193C380.868 430.193 377.116 428.962 374.343 427.161L357.998 452.317C366.418 457.788 376.075 460.193 386.284 460.193V430.193ZM374.388 427.19C371.738 425.454 369.635 422.942 368.17 418.902L339.966 429.126C343.445 438.723 349.41 446.693 357.953 452.288L374.388 427.19ZM368.189 418.954C366.851 415.222 366.279 409.773 367.586 401.935L337.994 397.003C336.118 408.256 336.399 419.17 339.947 429.074L368.189 418.954ZM367.587 401.927C368.826 394.471 371.149 388.711 374.205 384.244L349.443 367.307C343.521 375.965 339.822 386 337.993 397.01L367.587 401.927ZM374.205 384.244C377.438 379.517 381.163 376.212 385.368 373.971L371.263 347.494C362.457 352.186 355.187 358.909 349.443 367.307L374.205 384.244ZM385.368 373.971C389.655 371.687 394.243 370.534 399.366 370.534V340.534C389.433 340.534 379.987 342.847 371.263 347.494L385.368 373.971ZM399.366 370.534C404.683 370.534 408.338 371.758 411.034 373.542L427.586 348.521C419.202 342.975 409.561 340.534 399.366 340.534V370.534ZM411.108 373.59C413.674 375.266 415.749 377.732 417.199 381.797L445.454 371.714C442.018 362.086 436.082 354.069 427.511 348.472L411.108 373.59ZM417.218 381.849C418.574 385.605 419.156 391.074 417.851 398.927L447.445 403.845C449.322 392.551 449.023 381.599 445.436 371.662L417.218 381.849ZM431.898 401.882C433.165 394.114 433.272 386.308 431.232 379.076L402.359 387.22C402.819 388.851 403.125 391.926 402.289 397.056L431.898 401.882ZM431.256 379.162C429.308 372.094 425.451 365.565 419.026 360.95L401.526 385.317C401.54 385.327 401.549 385.335 401.561 385.348C401.574 385.362 401.615 385.407 401.679 385.505C401.805 385.698 402.072 386.182 402.335 387.134L431.256 379.162ZM419.098 361.002C412.964 356.541 405.872 354.724 398.727 354.724V384.724C400.73 384.724 401.337 385.18 401.453 385.265L419.098 361.002ZM398.727 354.724C391.149 354.724 383.946 356.655 377.404 360.501L392.607 386.363C394.475 385.265 396.419 384.724 398.727 384.724V354.724ZM377.431 360.485C370.855 364.332 365.63 369.778 361.606 376.262L387.098 392.079C388.927 389.131 390.804 387.418 392.58 386.379L377.431 360.485ZM361.572 376.318C357.43 383.058 354.893 390.762 353.574 399.021L383.199 403.751C384.039 398.488 385.479 394.714 387.132 392.023L361.572 376.318ZM353.612 398.794C352.24 406.617 352.061 414.543 354.194 421.89L383.005 413.525C382.581 412.065 382.26 409.11 383.161 403.978L353.612 398.794ZM354.194 421.89C356.234 428.916 360.156 435.35 366.549 439.9L383.945 415.458C383.904 415.429 383.829 415.374 383.701 415.182C383.557 414.966 383.279 414.47 383.005 413.525L354.194 421.89ZM366.623 439.952C372.73 444.243 379.731 446.003 386.795 446.003V416.003C384.769 416.003 384.071 415.546 383.871 415.406L366.623 439.952ZM386.795 446.003C394.328 446.003 401.494 444.095 408.006 440.285L392.857 414.391C391.017 415.468 389.092 416.003 386.795 416.003V446.003ZM408.006 440.285C414.576 436.441 419.796 431.009 423.802 424.529L398.284 408.755C396.494 411.65 394.64 413.348 392.857 414.391L408.006 440.285ZM423.767 424.585C427.963 417.863 430.542 410.159 431.896 401.894L402.291 397.043C401.43 402.301 399.974 406.047 398.318 408.699L423.767 424.585ZM508.788 384.597L493.924 386.615L495.687 399.597H508.788V384.597ZM507.083 378.418L493.385 384.529L493.402 384.569L493.42 384.609L507.083 378.418ZM503.759 373.73L493.493 384.666L493.553 384.722L493.613 384.778L503.759 373.73ZM498.688 370.747L503.553 356.558L503.553 356.558L498.688 370.747ZM478.404 373.261L485.741 386.344L485.741 386.344L478.404 373.261ZM467.623 383.659L480.164 391.889L480.175 391.871L480.187 391.853L467.623 383.659ZM461.529 400.278L446.73 397.833L446.728 397.844L446.726 397.854L461.529 400.278ZM461.7 417.026L447.185 420.812L447.185 420.812L461.7 417.026ZM468.262 427.466L459.262 439.466L459.322 439.511L459.382 439.555L468.262 427.466ZM492.509 428.446L486.143 414.864L486.143 414.864L492.509 428.446ZM501.543 421.202L489.634 412.082L489.628 412.09L489.622 412.098L501.543 421.202ZM506.146 410.122L508.494 395.307L493.619 392.949L491.321 407.834L506.146 410.122ZM509.64 410.676V425.676L511.989 395.861L509.64 410.676ZM485.904 410.676L471.122 408.128L468.097 425.676H485.904V410.676ZM488.035 398.318V383.318H475.4L473.253 395.77L488.035 398.318ZM523.447 398.318L538.233 400.843L541.225 383.318H523.447V398.318ZM521.657 408.801L506.871 406.277L506.861 406.333L506.852 406.39L521.657 408.801ZM513.688 428.233L501.688 419.233L501.681 419.243L513.688 428.233ZM498.475 440.804L505.005 454.308L505.018 454.302L505.032 454.295L498.475 440.804ZM458.333 439.781L450.013 452.262L450.05 452.287L450.088 452.312L458.333 439.781ZM446.742 424.312L432.536 429.128L432.539 429.137L432.542 429.146L446.742 424.312ZM445.634 400.449L460.43 402.915L460.437 402.876L460.443 402.837L445.634 400.449ZM451.685 381.571L438.422 374.565L438.408 374.592L438.394 374.619L451.685 381.571ZM462.424 367.466L472.536 378.545L472.54 378.542L462.424 367.466ZM476.614 358.602L482.04 372.587L482.073 372.574L482.106 372.561L476.614 358.602ZM506.103 357.665L501.026 371.779L501.071 371.796L501.116 371.812L506.103 357.665ZM516.245 363.631L506.094 374.674L506.122 374.699L506.149 374.725L516.245 363.631ZM522.765 372.835L536.575 366.98L536.575 366.98L522.765 372.835ZM524.896 384.597V399.597H539.601L539.893 384.895L524.896 384.597ZM523.651 382.578C523.174 379.065 522.259 375.566 520.746 372.227L493.42 384.609C493.555 384.906 493.776 385.526 493.924 386.615L523.651 382.578ZM520.782 372.306C519.182 368.721 516.909 365.441 513.905 362.682L493.613 384.778C493.521 384.693 493.447 384.606 493.398 384.537C493.351 384.47 493.352 384.457 493.385 384.529L520.782 372.306ZM514.026 362.794C510.934 359.891 507.348 357.859 503.553 356.558L493.823 384.936C493.932 384.974 493.926 384.982 493.842 384.933C493.755 384.882 493.629 384.794 493.493 384.666L514.026 362.794ZM503.553 356.558C499.656 355.222 495.633 354.724 491.742 354.724V384.724C493.135 384.724 493.743 384.909 493.823 384.936L503.553 356.558ZM491.742 354.724C484.41 354.724 477.446 356.601 471.067 360.178L485.741 386.344C487.771 385.206 489.699 384.724 491.742 384.724V354.724ZM471.067 360.178C464.485 363.87 459.187 369.136 455.059 375.465L480.187 391.853C482.025 389.035 483.914 387.369 485.741 386.344L471.067 360.178ZM455.082 375.429C450.729 382.062 448.078 389.675 446.73 397.833L476.328 402.724C477.14 397.814 478.551 394.347 480.164 391.889L455.082 375.429ZM446.726 397.854C445.438 405.719 445.292 413.555 447.185 420.812L476.214 413.239C475.721 411.348 475.461 408.02 476.332 402.703L446.726 397.854ZM447.185 420.812C449.067 428.025 452.879 434.678 459.262 439.466L477.262 415.466C477.189 415.411 477.085 415.322 476.935 415.083C476.768 414.819 476.48 414.261 476.214 413.239L447.185 420.812ZM459.382 439.555C465.69 444.188 473.028 446.003 480.364 446.003V416.003C477.985 416.003 477.255 415.46 477.142 415.377L459.382 439.555ZM480.364 446.003C486.78 446.003 493.036 444.765 498.876 442.028L486.143 414.864C484.71 415.536 482.869 416.003 480.364 416.003V446.003ZM498.876 442.028C504.648 439.322 509.582 435.39 513.465 430.305L489.622 412.098C488.732 413.263 487.643 414.161 486.143 414.864L498.876 442.028ZM513.453 430.321C517.515 425.016 519.964 418.929 520.97 412.41L491.321 407.834C491.021 409.782 490.401 411.08 489.634 412.082L513.453 430.321ZM503.797 424.937L507.291 425.491L511.989 395.861L508.494 395.307L503.797 424.937ZM509.64 395.676H485.904V425.676H509.64V395.676ZM500.686 413.225L502.817 400.867L473.253 395.77L471.122 408.128L500.686 413.225ZM488.035 413.318H523.447V383.318H488.035V413.318ZM508.661 395.794L506.871 406.277L536.443 411.326L538.233 400.843L508.661 395.794ZM506.852 406.39C505.975 411.777 504.166 415.929 501.688 419.233L525.688 437.233C531.392 429.628 534.896 420.825 536.462 411.213L506.852 406.39ZM501.681 419.243C499.046 422.761 495.842 425.406 491.919 427.313L505.032 454.295C513.267 450.293 520.205 444.557 525.696 437.223L501.681 419.243ZM491.945 427.3C488.077 429.17 483.699 430.193 478.575 430.193V460.193C487.882 460.193 496.771 458.29 505.005 454.308L491.945 427.3ZM478.575 430.193C472.842 430.193 469.12 428.923 466.579 427.251L450.088 452.312C458.512 457.855 468.284 460.193 478.575 460.193V430.193ZM466.654 427.3C464.161 425.639 462.236 423.28 460.942 419.479L432.542 429.146C435.794 438.697 441.596 446.651 450.013 452.262L466.654 427.3ZM460.948 419.497C459.682 415.76 459.178 410.429 460.43 402.915L430.838 397.983C429.023 408.878 429.257 419.456 432.536 429.128L460.948 419.497ZM460.443 402.837C461.358 397.163 462.924 392.447 464.977 388.523L438.394 374.619C434.651 381.774 432.183 389.644 430.826 398.06L460.443 402.837ZM464.949 388.577C467.142 384.424 469.694 381.139 472.536 378.545L452.312 356.387C446.688 361.52 442.081 367.639 438.422 374.565L464.949 388.577ZM472.54 378.542C475.48 375.856 478.631 373.909 482.04 372.587L471.189 344.618C464.2 347.33 457.891 351.291 452.308 356.39L472.54 378.542ZM482.106 372.561C485.517 371.219 489.105 370.534 492.978 370.534V340.534C485.43 340.534 478.11 341.895 471.122 344.644L482.106 372.561ZM492.978 370.534C496.294 370.534 498.922 371.023 501.026 371.779L511.18 343.55C505.386 341.466 499.264 340.534 492.978 340.534V370.534ZM501.116 371.812C503.336 372.594 504.913 373.589 506.094 374.674L526.396 352.587C521.952 348.502 516.767 345.519 511.09 343.518L501.116 371.812ZM506.149 374.725C507.382 375.846 508.291 377.125 508.955 378.691L536.575 366.98C534.227 361.443 530.79 356.586 526.341 352.537L506.149 374.725ZM508.955 378.691C509.548 380.089 509.947 381.882 509.899 384.299L539.893 384.895C540.015 378.731 538.993 372.684 536.575 366.98L508.955 378.691ZM524.896 369.597H508.788V399.597H524.896V369.597Z" fill="url(#paint3_linear_1_17)" mask="url(#path-4-outside-2_1_17)"/>
<defs>
<linearGradient id="paint0_linear_1_17" x1="-83.5502" y1="171.961" x2="593.704" y2="171.961" gradientUnits="userSpaceOnUse">
<stop stop-color="#E26CD7"/>
<stop offset="1" stop-color="#6696E9"/>
</linearGradient>
<linearGradient id="paint1_linear_1_17" x1="65" y1="251.929" x2="753.911" y2="251.929" gradientUnits="userSpaceOnUse">
<stop stop-color="#6292FA"/>
<stop offset="1" stop-color="#D63EC6"/>
</linearGradient>
<linearGradient id="paint2_linear_1_17" x1="391.587" y1="328" x2="391.587" y2="477.742" gradientUnits="userSpaceOnUse">
<stop stop-color="#6292FA"/>
<stop offset="1" stop-color="#D63EC6"/>
</linearGradient>
<linearGradient id="paint3_linear_1_17" x1="391.587" y1="328" x2="391.587" y2="477.742" gradientUnits="userSpaceOnUse">
<stop/>
<stop offset="1" stop-color="#666666"/>
</linearGradient>
</defs>
</svg>
