<svg width="63" height="29" viewBox="0 0 63 29" fill="none" xmlns="http://www.w3.org/2000/svg">
<mask id="path-1-outside-1_2_2" maskUnits="userSpaceOnUse" x="3" y="0" width="56" height="13" fill="black">
<rect fill="white" x="3" width="56" height="13"/>
<path d="M8.07271 10H6.66646L10.4342 2.72727H12.0606L13.4172 10H12.0109L11.0344 4.21875H10.9775L8.07271 10ZM8.59118 7.14844H12.4264L12.2488 8.20668H8.41362L8.59118 7.14844ZM21.559 2.72727L20.3517 10H19.1798L16.5768 5.04616H16.52L15.6926 10H14.3751L15.5825 2.72727H16.7615L19.3609 7.68466H19.4284L20.2487 2.72727H21.559ZM27.4761 5.04972C27.4501 4.85795 27.4027 4.68632 27.3341 4.5348C27.2654 4.38092 27.1731 4.25071 27.0571 4.14418C26.9411 4.03527 26.8002 3.95241 26.6345 3.8956C26.4688 3.83878 26.2758 3.81037 26.0557 3.81037C25.665 3.81037 25.2945 3.90862 24.9442 4.10511C24.5938 4.30161 24.2943 4.59044 24.0457 4.97159C23.7971 5.35038 23.6279 5.81203 23.5379 6.35653C23.4479 6.90578 23.4527 7.37098 23.5521 7.75213C23.6515 8.13329 23.8338 8.4233 24.099 8.62216C24.3665 8.81866 24.7027 8.9169 25.1075 8.9169C25.4792 8.9169 25.8166 8.84588 26.1196 8.70384C26.4226 8.56179 26.6736 8.36056 26.8724 8.10014C27.0737 7.83736 27.2015 7.52959 27.2559 7.17685L27.5471 7.22301H25.5692L25.7467 6.19318H28.6977L28.5486 7.06676C28.4468 7.69176 28.2254 8.23153 27.8845 8.68608C27.546 9.13826 27.1234 9.48745 26.6167 9.73366C26.1125 9.97751 25.5597 10.0994 24.9584 10.0994C24.2907 10.0994 23.7285 9.9491 23.2716 9.64844C22.817 9.34541 22.4951 8.91572 22.3057 8.35938C22.1163 7.80066 22.0855 7.13778 22.2133 6.37074C22.308 5.78362 22.4761 5.25923 22.7176 4.79759C22.9614 4.33594 23.2597 3.94413 23.6125 3.62216C23.9676 3.29782 24.3618 3.05161 24.795 2.88352C25.2282 2.71307 25.6828 2.62784 26.1586 2.62784C26.5587 2.62784 26.9233 2.68703 27.2524 2.8054C27.5815 2.9214 27.8632 3.08712 28.0976 3.30256C28.3343 3.51799 28.5154 3.77367 28.6409 4.0696C28.7664 4.36553 28.8256 4.69223 28.8184 5.04972H27.4761ZM35.1279 2.72727H36.4454L35.657 7.47869C35.5718 7.99953 35.373 8.45762 35.0605 8.85298C34.7503 9.24834 34.355 9.55729 33.8744 9.77983C33.3938 10 32.8588 10.1101 32.2693 10.1101C31.675 10.1101 31.1755 10 30.7707 9.77983C30.3659 9.55729 30.0735 9.24834 29.8936 8.85298C29.716 8.45762 29.6698 7.99953 29.7551 7.47869L30.5434 2.72727H31.8609L31.0903 7.36861C31.0406 7.67164 31.0631 7.94152 31.1578 8.17827C31.2548 8.41264 31.4134 8.5973 31.6336 8.73224C31.8561 8.86719 32.1343 8.93466 32.4681 8.93466C32.8019 8.93466 33.1026 8.86719 33.3701 8.73224C33.6376 8.5973 33.8566 8.41264 34.0271 8.17827C34.1975 7.94152 34.3076 7.67164 34.3573 7.36861L35.1279 2.72727ZM36.67 10L37.8774 2.72727H39.1949L38.1721 8.8956H41.3753L41.1906 10H36.67ZM43.5415 10H42.1352L45.903 2.72727H47.5294L48.8859 10H47.4797L46.5031 4.21875H46.4463L43.5415 10ZM44.0599 7.14844H47.8952L47.7176 8.20668H43.8824L44.0599 7.14844ZM49.8438 10L51.0512 2.72727H53.7785C54.3372 2.72727 54.7906 2.82434 55.1386 3.01847C55.4866 3.21259 55.7293 3.48485 55.8666 3.83523C56.0039 4.18324 56.0335 4.58925 55.9553 5.05327C55.8796 5.51728 55.7139 5.92093 55.4582 6.2642C55.2049 6.60511 54.8699 6.86908 54.4532 7.05611C54.0389 7.24313 53.5524 7.33665 52.9937 7.33665H51.0512L51.2359 6.2429H53.0044C53.3311 6.2429 53.6057 6.19792 53.8282 6.10795C54.0508 6.01562 54.2259 5.88187 54.3538 5.70668C54.484 5.52912 54.5704 5.31132 54.613 5.05327C54.6533 4.79522 54.6379 4.57505 54.5669 4.39276C54.4982 4.2081 54.3668 4.06842 54.1727 3.97372C53.9809 3.87666 53.7217 3.82812 53.395 3.82812H52.1876L51.1613 10H49.8438ZM54.1478 6.70455L55.4014 10H53.9312L52.7096 6.70455H54.1478Z"/>
</mask>
<path d="M8.07271 10H6.66646L10.4342 2.72727H12.0606L13.4172 10H12.0109L11.0344 4.21875H10.9775L8.07271 10ZM8.59118 7.14844H12.4264L12.2488 8.20668H8.41362L8.59118 7.14844ZM21.559 2.72727L20.3517 10H19.1798L16.5768 5.04616H16.52L15.6926 10H14.3751L15.5825 2.72727H16.7615L19.3609 7.68466H19.4284L20.2487 2.72727H21.559ZM27.4761 5.04972C27.4501 4.85795 27.4027 4.68632 27.3341 4.5348C27.2654 4.38092 27.1731 4.25071 27.0571 4.14418C26.9411 4.03527 26.8002 3.95241 26.6345 3.8956C26.4688 3.83878 26.2758 3.81037 26.0557 3.81037C25.665 3.81037 25.2945 3.90862 24.9442 4.10511C24.5938 4.30161 24.2943 4.59044 24.0457 4.97159C23.7971 5.35038 23.6279 5.81203 23.5379 6.35653C23.4479 6.90578 23.4527 7.37098 23.5521 7.75213C23.6515 8.13329 23.8338 8.4233 24.099 8.62216C24.3665 8.81866 24.7027 8.9169 25.1075 8.9169C25.4792 8.9169 25.8166 8.84588 26.1196 8.70384C26.4226 8.56179 26.6736 8.36056 26.8724 8.10014C27.0737 7.83736 27.2015 7.52959 27.2559 7.17685L27.5471 7.22301H25.5692L25.7467 6.19318H28.6977L28.5486 7.06676C28.4468 7.69176 28.2254 8.23153 27.8845 8.68608C27.546 9.13826 27.1234 9.48745 26.6167 9.73366C26.1125 9.97751 25.5597 10.0994 24.9584 10.0994C24.2907 10.0994 23.7285 9.9491 23.2716 9.64844C22.817 9.34541 22.4951 8.91572 22.3057 8.35938C22.1163 7.80066 22.0855 7.13778 22.2133 6.37074C22.308 5.78362 22.4761 5.25923 22.7176 4.79759C22.9614 4.33594 23.2597 3.94413 23.6125 3.62216C23.9676 3.29782 24.3618 3.05161 24.795 2.88352C25.2282 2.71307 25.6828 2.62784 26.1586 2.62784C26.5587 2.62784 26.9233 2.68703 27.2524 2.8054C27.5815 2.9214 27.8632 3.08712 28.0976 3.30256C28.3343 3.51799 28.5154 3.77367 28.6409 4.0696C28.7664 4.36553 28.8256 4.69223 28.8184 5.04972H27.4761ZM35.1279 2.72727H36.4454L35.657 7.47869C35.5718 7.99953 35.373 8.45762 35.0605 8.85298C34.7503 9.24834 34.355 9.55729 33.8744 9.77983C33.3938 10 32.8588 10.1101 32.2693 10.1101C31.675 10.1101 31.1755 10 30.7707 9.77983C30.3659 9.55729 30.0735 9.24834 29.8936 8.85298C29.716 8.45762 29.6698 7.99953 29.7551 7.47869L30.5434 2.72727H31.8609L31.0903 7.36861C31.0406 7.67164 31.0631 7.94152 31.1578 8.17827C31.2548 8.41264 31.4134 8.5973 31.6336 8.73224C31.8561 8.86719 32.1343 8.93466 32.4681 8.93466C32.8019 8.93466 33.1026 8.86719 33.3701 8.73224C33.6376 8.5973 33.8566 8.41264 34.0271 8.17827C34.1975 7.94152 34.3076 7.67164 34.3573 7.36861L35.1279 2.72727ZM36.67 10L37.8774 2.72727H39.1949L38.1721 8.8956H41.3753L41.1906 10H36.67ZM43.5415 10H42.1352L45.903 2.72727H47.5294L48.8859 10H47.4797L46.5031 4.21875H46.4463L43.5415 10ZM44.0599 7.14844H47.8952L47.7176 8.20668H43.8824L44.0599 7.14844ZM49.8438 10L51.0512 2.72727H53.7785C54.3372 2.72727 54.7906 2.82434 55.1386 3.01847C55.4866 3.21259 55.7293 3.48485 55.8666 3.83523C56.0039 4.18324 56.0335 4.58925 55.9553 5.05327C55.8796 5.51728 55.7139 5.92093 55.4582 6.2642C55.2049 6.60511 54.8699 6.86908 54.4532 7.05611C54.0389 7.24313 53.5524 7.33665 52.9937 7.33665H51.0512L51.2359 6.2429H53.0044C53.3311 6.2429 53.6057 6.19792 53.8282 6.10795C54.0508 6.01562 54.2259 5.88187 54.3538 5.70668C54.484 5.52912 54.5704 5.31132 54.613 5.05327C54.6533 4.79522 54.6379 4.57505 54.5669 4.39276C54.4982 4.2081 54.3668 4.06842 54.1727 3.97372C53.9809 3.87666 53.7217 3.82812 53.395 3.82812H52.1876L51.1613 10H49.8438ZM54.1478 6.70455L55.4014 10H53.9312L52.7096 6.70455H54.1478Z" fill="url(#paint0_linear_2_2)"/>
<path d="M8.07271 10V12H9.30607L9.8598 10.8979L8.07271 10ZM6.66646 10L4.89062 9.08L3.37787 12H6.66646V10ZM10.4342 2.72727V0.727273H9.21789L8.65838 1.80727L10.4342 2.72727ZM12.0606 2.72727L14.0267 2.36055L13.7221 0.727273H12.0606V2.72727ZM13.4172 10V12H15.8247L15.3833 9.63328L13.4172 10ZM12.0109 10L10.0389 10.3331L10.3204 12H12.0109V10ZM11.0344 4.21875L13.0064 3.88563L12.7249 2.21875H11.0344V4.21875ZM10.9775 4.21875V2.21875H9.74418L9.19044 3.32081L10.9775 4.21875ZM8.59118 7.14844V5.14844H6.89879L6.61875 6.81749L8.59118 7.14844ZM12.4264 7.14844L14.3988 7.47938L14.7899 5.14844H12.4264V7.14844ZM12.2488 8.20668V10.2067H13.9412L14.2213 8.53762L12.2488 8.20668ZM8.41362 8.20668L6.44119 7.87573L6.05009 10.2067H8.41362V8.20668ZM8.07271 8H6.66646V12H8.07271V8ZM8.4423 10.92L12.2101 3.64727L8.65838 1.80727L4.89062 9.08L8.4423 10.92ZM10.4342 4.72727H12.0606V0.727273H10.4342V4.72727ZM10.0945 3.09399L11.4511 10.3667L15.3833 9.63328L14.0267 2.36055L10.0945 3.09399ZM13.4172 8H12.0109V12H13.4172V8ZM13.983 9.66688L13.0064 3.88563L9.06229 4.55187L10.0389 10.3331L13.983 9.66688ZM11.0344 2.21875H10.9775V6.21875H11.0344V2.21875ZM9.19044 3.32081L6.28561 9.10206L9.8598 10.8979L12.7646 5.11669L9.19044 3.32081ZM8.59118 9.14844H12.4264V5.14844H8.59118V9.14844ZM10.454 6.81749L10.2764 7.87573L14.2213 8.53762L14.3988 7.47938L10.454 6.81749ZM12.2488 6.20668H8.41362V10.2067H12.2488V6.20668ZM10.386 8.53762L10.5636 7.47938L6.61875 6.81749L6.44119 7.87573L10.386 8.53762ZM21.559 2.72727L23.532 3.05482L23.9184 0.727273H21.559V2.72727ZM20.3517 10V12H22.047L22.3246 10.3275L20.3517 10ZM19.1798 10L17.4093 10.9303L17.9714 12H19.1798V10ZM16.5768 5.04616L18.3473 4.11588L17.7852 3.04616H16.5768V5.04616ZM16.52 5.04616V3.04616H14.8263L14.5473 4.71668L16.52 5.04616ZM15.6926 10V12H17.3862L17.6652 10.3295L15.6926 10ZM14.3751 10L12.4021 9.67245L12.0157 12H14.3751V10ZM15.5825 2.72727V0.727273H13.8871L13.6095 2.39972L15.5825 2.72727ZM16.7615 2.72727L18.5327 1.7985L17.971 0.727273H16.7615V2.72727ZM19.3609 7.68466L17.5896 8.61343L18.1513 9.68466H19.3609V7.68466ZM19.4284 7.68466V9.68466H21.1246L21.4015 8.01116L19.4284 7.68466ZM20.2487 2.72727V0.727273H18.5524L18.2755 2.40077L20.2487 2.72727ZM19.586 2.39972L18.3787 9.67245L22.3246 10.3275L23.532 3.05482L19.586 2.39972ZM20.3517 8H19.1798V12H20.3517V8ZM20.9502 9.06971L18.3473 4.11588L14.8063 5.97645L17.4093 10.9303L20.9502 9.06971ZM16.5768 3.04616H16.52V7.04616H16.5768V3.04616ZM14.5473 4.71668L13.7199 9.67051L17.6652 10.3295L18.4926 5.37565L14.5473 4.71668ZM15.6926 8H14.3751V12H15.6926V8ZM16.3481 10.3275L17.5555 3.05482L13.6095 2.39972L12.4021 9.67245L16.3481 10.3275ZM15.5825 4.72727H16.7615V0.727273H15.5825V4.72727ZM14.9902 3.65605L17.5896 8.61343L21.1322 6.75589L18.5327 1.7985L14.9902 3.65605ZM19.3609 9.68466H19.4284V5.68466H19.3609V9.68466ZM21.4015 8.01116L22.2218 3.05378L18.2755 2.40077L17.4552 7.35815L21.4015 8.01116ZM20.2487 4.72727H21.559V0.727273H20.2487V4.72727ZM27.4761 5.04972L25.4943 5.31885L25.7294 7.04972H27.4761V5.04972ZM27.3341 4.5348L25.5076 5.3497L25.5124 5.36026L27.3341 4.5348ZM27.0571 4.14418L25.6882 5.60232L25.6962 5.60982L25.7043 5.61724L27.0571 4.14418ZM26.6345 3.8956L27.2832 2.00371L27.2831 2.0037L26.6345 3.8956ZM24.9442 4.10511L25.9224 5.84952L25.9224 5.84952L24.9442 4.10511ZM24.0457 4.97159L25.7178 6.06891L25.7209 6.06413L24.0457 4.97159ZM23.5379 6.35653L21.5647 6.03052L21.5642 6.03326L23.5379 6.35653ZM23.5521 7.75213L21.6169 8.25697L21.6169 8.25697L23.5521 7.75213ZM24.099 8.62216L22.899 10.2222L22.907 10.2282L22.915 10.2341L24.099 8.62216ZM26.1196 8.70384L25.2707 6.89292L25.2707 6.89292L26.1196 8.70384ZM26.8724 8.10014L25.2845 6.88418L25.2829 6.88632L26.8724 8.10014ZM27.2559 7.17685L27.5691 5.20152L25.5857 4.88708L25.2794 6.87173L27.2559 7.17685ZM27.5471 7.22301V9.22301L27.8603 5.24768L27.5471 7.22301ZM25.5692 7.22301L23.5982 6.8832L23.1948 9.22301H25.5692V7.22301ZM25.7467 6.19318V4.19318H24.062L23.7758 5.85337L25.7467 6.19318ZM28.6977 6.19318L30.6692 6.52977L31.0681 4.19318H28.6977V6.19318ZM28.5486 7.06676L26.5771 6.73017L26.5758 6.7377L26.5746 6.74524L28.5486 7.06676ZM27.8845 8.68608L26.2845 7.48608L26.2835 7.48742L27.8845 8.68608ZM26.6167 9.73366L27.4874 11.5342L27.4909 11.5325L26.6167 9.73366ZM23.2716 9.64844L22.1622 11.3126L22.1722 11.3192L23.2716 9.64844ZM22.3057 8.35938L20.4115 9.00145L20.4124 9.0039L22.3057 8.35938ZM22.2133 6.37074L24.1861 6.69954L24.1878 6.6892L22.2133 6.37074ZM22.7176 4.79759L20.9491 3.86347L20.9454 3.87059L22.7176 4.79759ZM23.6125 3.62216L24.9608 5.09934L24.9613 5.09892L23.6125 3.62216ZM24.795 2.88352L25.5184 4.74813L25.5273 4.74465L24.795 2.88352ZM27.2524 2.8054L26.5754 4.68738L26.5875 4.69163L27.2524 2.8054ZM28.0976 3.30256L26.7441 4.77503L26.7515 4.78177L28.0976 3.30256ZM28.6409 4.0696L30.4822 3.28888L30.4822 3.28888L28.6409 4.0696ZM28.8184 5.04972V7.04972H30.7791L30.8181 5.08944L28.8184 5.04972ZM29.4579 4.78058C29.4099 4.4272 29.3163 4.06364 29.1558 3.70934L25.5124 5.36026C25.4891 5.30899 25.4902 5.2887 25.4943 5.31885L29.4579 4.78058ZM29.1605 3.71992C28.9885 3.33427 28.7408 2.97505 28.4099 2.67111L25.7043 5.61724C25.6053 5.52637 25.5424 5.42756 25.5076 5.34968L29.1605 3.71992ZM28.426 2.68603C28.0833 2.36431 27.6896 2.14308 27.2832 2.00371L25.9858 5.78749C25.9108 5.76175 25.7989 5.70624 25.6882 5.60232L28.426 2.68603ZM27.2831 2.0037C26.8629 1.85963 26.4424 1.81037 26.0557 1.81037V5.81037C26.0805 5.81037 26.0855 5.81202 26.0742 5.81034C26.0626 5.80864 26.0314 5.8031 25.9859 5.78749L27.2831 2.0037ZM26.0557 1.81037C25.3124 1.81037 24.6062 2.00159 23.9659 2.36071L25.9224 5.84952C25.9829 5.81564 26.0177 5.81037 26.0557 5.81037V1.81037ZM23.9659 2.3607C23.2985 2.73497 22.7717 3.26382 22.3705 3.87906L25.7209 6.06413C25.8169 5.91705 25.8891 5.86825 25.9224 5.84952L23.9659 2.3607ZM22.3736 3.87428C21.9424 4.53141 21.6904 5.26941 21.5647 6.03052L25.5112 6.68255C25.5653 6.35464 25.6519 6.16934 25.7178 6.0689L22.3736 3.87428ZM21.5642 6.03326C21.4464 6.7524 21.4241 7.51811 21.6169 8.25697L25.4873 7.24729C25.4812 7.22384 25.4495 7.05915 25.5116 6.67981L21.5642 6.03326ZM21.6169 8.25697C21.8081 8.99009 22.2069 9.70312 22.899 10.2222L25.299 7.02216C25.3688 7.07451 25.422 7.13599 25.4567 7.19116C25.4892 7.24291 25.4931 7.26915 25.4873 7.24729L21.6169 8.25697ZM22.915 10.2341C23.5955 10.7339 24.3722 10.9169 25.1075 10.9169V6.9169C25.0661 6.9169 25.0728 6.91184 25.1128 6.92352C25.1563 6.93622 25.2184 6.96286 25.283 7.01026L22.915 10.2341ZM25.1075 10.9169C25.7399 10.9169 26.3716 10.7945 26.9685 10.5148L25.2707 6.89292C25.2615 6.89725 25.2185 6.9169 25.1075 6.9169V10.9169ZM26.9685 10.5148C27.5563 10.2392 28.0635 9.83572 28.462 9.31397L25.2829 6.88632C25.281 6.88876 25.2804 6.8893 25.2811 6.88863C25.2817 6.88794 25.2828 6.88697 25.2839 6.88608C25.285 6.88519 25.2851 6.88523 25.2836 6.88614C25.2821 6.88707 25.2781 6.88947 25.2707 6.89292L26.9685 10.5148ZM28.4603 9.3161C28.8813 8.76643 29.1311 8.1394 29.2325 7.48196L25.2794 6.87173C25.2771 6.88656 25.2748 6.89601 25.2734 6.90089C25.2721 6.90571 25.2715 6.90681 25.2722 6.90502C25.273 6.90318 25.2746 6.89974 25.2771 6.89538C25.2796 6.89101 25.2822 6.88716 25.2845 6.88418L28.4603 9.3161ZM26.9428 9.15218L27.234 9.19834L27.8603 5.24768L27.5691 5.20152L26.9428 9.15218ZM27.5471 5.22301H25.5692V9.22301H27.5471V5.22301ZM27.5401 7.56283L27.7176 6.533L23.7758 5.85337L23.5982 6.8832L27.5401 7.56283ZM25.7467 8.19318H28.6977V4.19318H25.7467V8.19318ZM26.7262 5.85659L26.5771 6.73017L30.52 7.40335L30.6692 6.52977L26.7262 5.85659ZM26.5746 6.74524C26.5187 7.08856 26.4103 7.31832 26.2845 7.48608L29.4845 9.88608C30.0405 9.14475 30.3749 8.29496 30.5225 7.38828L26.5746 6.74524ZM26.2835 7.48742C26.1354 7.68524 25.9617 7.82833 25.7425 7.93484L27.4909 11.5325C28.285 11.1466 28.9565 10.5913 29.4855 9.88474L26.2835 7.48742ZM25.7461 7.93313C25.5329 8.03619 25.2808 8.09943 24.9584 8.09943V12.0994C25.8386 12.0994 26.692 11.9188 27.4874 11.5342L25.7461 7.93313ZM24.9584 8.09943C24.5946 8.09943 24.4357 8.02033 24.371 7.97771L22.1722 11.3192C23.0212 11.8779 23.9869 12.0994 24.9584 12.0994V8.09943ZM24.381 7.98434C24.3214 7.9446 24.2579 7.88795 24.199 7.71485L20.4124 9.0039C20.7322 9.94349 21.3127 10.7462 22.1622 11.3125L24.381 7.98434ZM24.1998 7.7173C24.1445 7.5543 24.0958 7.24122 24.1861 6.69954L20.2405 6.04194C20.0751 7.03435 20.088 8.04702 20.4115 9.00145L24.1998 7.7173ZM24.1878 6.6892C24.253 6.28492 24.361 5.97074 24.4898 5.72458L20.9454 3.87059C20.5912 4.54772 20.363 5.28232 20.2389 6.05227L24.1878 6.6892ZM24.4861 5.73169C24.6322 5.45496 24.7935 5.25202 24.9608 5.09934L22.2642 2.14497C21.726 2.63623 21.2907 3.21691 20.9491 3.86348L24.4861 5.73169ZM24.9613 5.09892C25.1402 4.93549 25.3239 4.82358 25.5184 4.7481L24.0716 1.01894C23.3997 1.27964 22.795 1.66015 22.2637 2.1454L24.9613 5.09892ZM25.5273 4.74465C25.7221 4.66801 25.9278 4.62784 26.1586 4.62784V0.627841C25.4378 0.627841 24.7344 0.758127 24.0628 1.02239L25.5273 4.74465ZM26.1586 4.62784C26.3607 4.62784 26.4924 4.65746 26.5754 4.68734L27.9294 0.92345C27.3543 0.716592 26.7567 0.627841 26.1586 0.627841V4.62784ZM26.5875 4.69163C26.6861 4.72639 26.7273 4.75955 26.7441 4.77501L29.451 1.8301C28.9991 1.41469 28.4769 1.11641 27.9173 0.919166L26.5875 4.69163ZM26.7515 4.78177C26.7737 4.80202 26.7863 4.8191 26.7996 4.85032L30.4822 3.28888C30.2445 2.72825 29.8949 2.23397 29.4436 1.82335L26.7515 4.78177ZM26.7996 4.85032C26.8033 4.85919 26.821 4.90228 26.8188 5.00999L30.8181 5.08944C30.8301 4.48219 30.7294 3.87187 30.4822 3.28888L26.7996 4.85032ZM28.8184 3.04972H27.4761V7.04972H28.8184V3.04972ZM35.1279 2.72727V0.727273H33.4326L33.1549 2.3997L35.1279 2.72727ZM36.4454 2.72727L38.4184 3.05464L38.8046 0.727273H36.4454V2.72727ZM35.657 7.47869L33.684 7.15133L33.6833 7.15572L35.657 7.47869ZM35.0605 8.85298L33.4914 7.61277L33.4868 7.61859L35.0605 8.85298ZM33.8744 9.77983L34.7074 11.5981L34.7148 11.5947L33.8744 9.77983ZM30.7707 9.77983L29.8072 11.5325L29.8151 11.5368L30.7707 9.77983ZM29.8936 8.85298L28.0691 9.67236L28.0732 9.68141L29.8936 8.85298ZM29.7551 7.47869L27.782 7.15133L27.7813 7.15572L29.7551 7.47869ZM30.5434 2.72727V0.727273H28.8479L28.5704 2.39991L30.5434 2.72727ZM31.8609 2.72727L33.8339 3.05485L34.2203 0.727273H31.8609V2.72727ZM31.0903 7.36861L29.1173 7.04103L29.1167 7.04481L31.0903 7.36861ZM31.1578 8.17827L29.3008 8.92105L29.3053 8.93231L29.31 8.94352L31.1578 8.17827ZM31.6336 8.73224L30.5885 10.4375L30.5966 10.4424L31.6336 8.73224ZM33.3701 8.73224L32.4694 6.94656L32.4694 6.94656L33.3701 8.73224ZM34.0271 8.17827L35.6446 9.35462L35.6501 9.34688L34.0271 8.17827ZM34.3573 7.36861L32.3843 7.04103L32.3837 7.04481L34.3573 7.36861ZM35.1279 4.72727H36.4454V0.727273H35.1279V4.72727ZM34.4724 2.39991L33.684 7.15133L37.6301 7.80606L38.4184 3.05464L34.4724 2.39991ZM33.6833 7.15572C33.6502 7.35784 33.5832 7.49661 33.4914 7.61278L36.6295 10.0932C37.1627 9.41864 37.4934 8.64122 37.6308 7.80167L33.6833 7.15572ZM33.4868 7.61859C33.3824 7.75177 33.2437 7.86787 33.034 7.96496L34.7148 11.5947C35.4663 11.2467 36.1183 10.7449 36.6341 10.0874L33.4868 7.61859ZM33.0414 7.96156C32.8508 8.04885 32.6045 8.11009 32.2693 8.11009V12.1101C33.113 12.1101 33.9367 11.9511 34.7074 11.5981L33.0414 7.96156ZM32.2693 8.11009C31.9148 8.11009 31.765 8.04397 31.7262 8.02286L29.8151 11.5368C30.586 11.956 31.4353 12.1101 32.2693 12.1101V8.11009ZM31.7341 8.02718C31.7152 8.01678 31.7048 8.00935 31.7006 8.00617C31.6966 8.0031 31.6972 8.00309 31.7004 8.0065C31.7037 8.00997 31.7074 8.01454 31.7107 8.01939C31.7139 8.0242 31.7148 8.02648 31.7139 8.02456L28.0732 9.68141C28.4434 10.4949 29.0502 11.1163 29.8072 11.5325L31.7341 8.02718ZM31.718 8.03362C31.7226 8.04389 31.7186 8.04096 31.7157 8.01236C31.7125 7.98103 31.7105 7.91375 31.7288 7.80167L27.7813 7.15572C27.6467 7.97864 27.6988 8.8478 28.0691 9.67235L31.718 8.03362ZM31.7281 7.80606L32.5164 3.05464L28.5704 2.39991L27.782 7.15133L31.7281 7.80606ZM30.5434 4.72727H31.8609V0.727273H30.5434V4.72727ZM29.8879 2.3997L29.1173 7.04103L33.0633 7.69618L33.8339 3.05485L29.8879 2.3997ZM29.1167 7.04481C29.0201 7.63361 29.0455 8.2828 29.3008 8.92105L33.0147 7.43549C33.0456 7.51265 33.0587 7.58153 33.063 7.6322C33.067 7.68083 33.0621 7.70323 33.0639 7.6924L29.1167 7.04481ZM29.31 8.94352C29.5717 9.57556 30.0152 10.0861 30.5885 10.4374L32.6787 7.02704C32.7351 7.0616 32.8025 7.11462 32.8667 7.18936C32.9311 7.26438 32.9765 7.34282 33.0056 7.41301L29.31 8.94352ZM30.5966 10.4424C31.2086 10.8135 31.8703 10.9347 32.4681 10.9347V6.93466C32.3983 6.93466 32.5037 6.92086 32.6706 7.02209L30.5966 10.4424ZM32.4681 10.9347C33.0787 10.9347 33.6934 10.8092 34.2709 10.5179L32.4694 6.94656C32.4774 6.94253 32.4851 6.93926 32.4921 6.93678C32.499 6.93432 32.5039 6.93308 32.5061 6.93259C32.5108 6.93152 32.4998 6.93466 32.4681 6.93466V10.9347ZM34.2709 10.5179C34.8124 10.2448 35.2806 9.85507 35.6445 9.35461L32.4096 7.00192C32.418 6.99032 32.4306 6.97636 32.4457 6.96358C32.4606 6.95099 32.4705 6.94602 32.4694 6.94656L34.2709 10.5179ZM35.6501 9.34688C36.0107 8.84617 36.2339 8.28384 36.3309 7.6924L32.3837 7.04481C32.3818 7.05625 32.3811 7.05404 32.3856 7.04293C32.3877 7.03777 32.3905 7.03185 32.3939 7.02564C32.3974 7.01943 32.4009 7.01402 32.404 7.00966L35.6501 9.34688ZM36.3303 7.69618L37.1009 3.05485L33.1549 2.3997L32.3843 7.04103L36.3303 7.69618ZM36.67 10L34.697 9.67245L34.3106 12H36.67V10ZM37.8774 2.72727V0.727273H36.1821L35.9044 2.39972L37.8774 2.72727ZM39.1949 2.72727L41.1679 3.05441L41.5538 0.727273H39.1949V2.72727ZM38.1721 8.8956L36.1991 8.56846L35.8132 10.8956H38.1721V8.8956ZM41.3753 8.8956L43.3479 9.22542L43.7374 6.8956H41.3753V8.8956ZM41.1906 10V12H42.884L43.1632 10.3298L41.1906 10ZM38.643 10.3275L39.8504 3.05482L35.9044 2.39972L34.697 9.67245L38.643 10.3275ZM37.8774 4.72727H39.1949V0.727273H37.8774V4.72727ZM37.2218 2.40013L36.1991 8.56846L40.1452 9.22274L41.1679 3.05441L37.2218 2.40013ZM38.1721 10.8956H41.3753V6.8956H38.1721V10.8956ZM39.4027 8.56577L39.218 9.67017L43.1632 10.3298L43.3479 9.22542L39.4027 8.56577ZM41.1906 8H36.67V12H41.1906V8ZM43.5415 10V12H44.7748L45.3286 10.8979L43.5415 10ZM42.1352 10L40.3594 9.08L38.8466 12H42.1352V10ZM45.903 2.72727V0.727273H44.6866L44.1271 1.80727L45.903 2.72727ZM47.5294 2.72727L49.4955 2.36055L49.1908 0.727273H47.5294V2.72727ZM48.8859 10V12H51.2935L50.852 9.63328L48.8859 10ZM47.4797 10L45.5076 10.3331L45.7892 12H47.4797V10ZM46.5031 4.21875L48.4752 3.88563L48.1936 2.21875H46.5031V4.21875ZM46.4463 4.21875V2.21875H45.2129L44.6592 3.32081L46.4463 4.21875ZM44.0599 7.14844V5.14844H42.3675L42.0875 6.81749L44.0599 7.14844ZM47.8952 7.14844L49.8676 7.47938L50.2587 5.14844H47.8952V7.14844ZM47.7176 8.20668V10.2067H49.41L49.69 8.53762L47.7176 8.20668ZM43.8824 8.20668L41.9099 7.87573L41.5188 10.2067H43.8824V8.20668ZM43.5415 8H42.1352V12H43.5415V8ZM43.911 10.92L47.6788 3.64727L44.1271 1.80727L40.3594 9.08L43.911 10.92ZM45.903 4.72727H47.5294V0.727273H45.903V4.72727ZM45.5633 3.09399L46.9198 10.3667L50.852 9.63328L49.4955 2.36055L45.5633 3.09399ZM48.8859 8H47.4797V12H48.8859V8ZM49.4517 9.66688L48.4752 3.88563L44.531 4.55187L45.5076 10.3331L49.4517 9.66688ZM46.5031 2.21875H46.4463V6.21875H46.5031V2.21875ZM44.6592 3.32081L41.7544 9.10206L45.3286 10.8979L48.2334 5.11669L44.6592 3.32081ZM44.0599 9.14844H47.8952V5.14844H44.0599V9.14844ZM45.9227 6.81749L45.7452 7.87573L49.69 8.53762L49.8676 7.47938L45.9227 6.81749ZM47.7176 6.20668H43.8824V10.2067H47.7176V6.20668ZM45.8548 8.53762L46.0324 7.47938L42.0875 6.81749L41.9099 7.87573L45.8548 8.53762ZM49.8438 10L47.8708 9.67245L47.4844 12H49.8438V10ZM51.0512 2.72727V0.727273H49.3559L49.0782 2.39972L51.0512 2.72727ZM55.1386 3.01847L56.1129 1.27184L56.1129 1.27183L55.1386 3.01847ZM55.8666 3.83523L54.0044 4.56498L54.0061 4.56927L55.8666 3.83523ZM55.9553 5.05327L53.9831 4.7212L53.9815 4.731L55.9553 5.05327ZM55.4582 6.2642L53.8542 5.06952L53.8528 5.07135L55.4582 6.2642ZM54.4532 7.05611L53.6342 5.23149L53.6303 5.23324L54.4532 7.05611ZM51.0512 7.33665L49.0791 7.0037L48.6853 9.33665H51.0512V7.33665ZM51.2359 6.2429V4.2429H49.5452L49.2638 5.90995L51.2359 6.2429ZM53.8282 6.10795L54.5778 7.96217L54.5862 7.95876L54.5947 7.95527L53.8282 6.10795ZM54.3538 5.70668L52.741 4.52395L52.7382 4.52774L54.3538 5.70668ZM54.613 5.05327L56.5863 5.37913L56.5877 5.37031L56.5891 5.36147L54.613 5.05327ZM54.5669 4.39276L52.6922 5.08973L52.6976 5.10432L52.7033 5.11882L54.5669 4.39276ZM54.1727 3.97372L53.2694 5.75815L53.2826 5.7648L53.2958 5.77126L54.1727 3.97372ZM52.1876 3.82812V1.82812H50.4927L50.2147 3.50006L52.1876 3.82812ZM51.1613 10V12H52.8562L53.1342 10.3281L51.1613 10ZM54.1478 6.70455L56.0171 5.99348L55.5268 4.70455H54.1478V6.70455ZM55.4014 10V12H58.302L57.2707 9.28893L55.4014 10ZM53.9312 10L52.0559 10.6952L52.5396 12H53.9312V10ZM52.7096 6.70455V4.70455H49.8352L50.8343 7.3997L52.7096 6.70455ZM51.8168 10.3275L53.0242 3.05482L49.0782 2.39972L47.8708 9.67245L51.8168 10.3275ZM51.0512 4.72727H53.7785V0.727273H51.0512V4.72727ZM53.7785 4.72727C54.126 4.72727 54.21 4.79061 54.1643 4.7651L56.1129 1.27183C55.3711 0.858068 54.5484 0.727273 53.7785 0.727273V4.72727ZM54.1643 4.7651C54.1614 4.76349 54.1289 4.7442 54.0886 4.69899C54.0472 4.6526 54.0195 4.60326 54.0045 4.56497L57.7287 3.10548C57.4118 2.29683 56.84 1.67743 56.1129 1.27184L54.1643 4.7651ZM54.0061 4.56927C53.9943 4.53916 53.9957 4.52731 53.997 4.54613C53.9986 4.5672 53.9996 4.623 53.9831 4.72121L57.9276 5.38533C58.0507 4.65396 58.0283 3.86482 57.727 3.10118L54.0061 4.56927ZM53.9815 4.731C53.9522 4.91048 53.9002 5.0078 53.8542 5.06952L57.0622 7.45889C57.5276 6.83405 57.807 6.12408 57.9292 5.37553L53.9815 4.731ZM53.8528 5.07135C53.8186 5.11741 53.7633 5.17354 53.6342 5.23149L55.2722 8.88073C55.9765 8.56462 56.5911 8.09282 57.0635 7.45706L53.8528 5.07135ZM53.6303 5.23324C53.5268 5.27996 53.3321 5.33665 52.9937 5.33665V9.33665C53.7727 9.33665 54.551 9.2063 55.2761 8.87898L53.6303 5.23324ZM52.9937 5.33665H51.0512V9.33665H52.9937V5.33665ZM53.0233 7.6696L53.208 6.57585L49.2638 5.90995L49.0791 7.0037L53.0233 7.6696ZM51.2359 8.2429H53.0044V4.2429H51.2359V8.2429ZM53.0044 8.2429C53.501 8.2429 54.0479 8.17638 54.5778 7.96217L53.0786 4.25373C53.1243 4.23528 53.1459 4.2332 53.1321 4.23546C53.1181 4.23774 53.0775 4.2429 53.0044 4.2429V8.2429ZM54.5947 7.95527C55.1175 7.73834 55.6017 7.38941 55.9694 6.88561L52.7382 4.52774C52.7896 4.45726 52.8499 4.39679 52.9128 4.34876C52.9746 4.30155 53.0281 4.27459 53.0618 4.26064L54.5947 7.95527ZM55.9666 6.8894C56.3144 6.4151 56.502 5.88928 56.5863 5.37913L52.6397 4.7274C52.6388 4.73335 52.6536 4.64314 52.741 4.52395L55.9666 6.8894ZM56.5891 5.36147C56.6661 4.86769 56.6655 4.27001 56.4304 3.66669L52.7033 5.11882C52.6103 4.88008 52.6404 4.72275 52.6369 4.74507L56.5891 5.36147ZM56.4415 3.69578C56.1759 2.98142 55.6567 2.47235 55.0495 2.17618L53.2958 5.77126C53.2026 5.72579 53.0798 5.64717 52.9601 5.51985C52.8379 5.38998 52.7483 5.24048 52.6922 5.08973L56.4415 3.69578ZM55.0759 2.18929C54.4962 1.89588 53.8867 1.82812 53.395 1.82812V5.82812C53.4628 5.82812 53.4828 5.83344 53.4664 5.83037C53.4504 5.82738 53.3757 5.81191 53.2694 5.75815L55.0759 2.18929ZM53.395 1.82812H52.1876V5.82812H53.395V1.82812ZM50.2147 3.50006L49.1884 9.67194L53.1342 10.3281L54.1605 4.15619L50.2147 3.50006ZM51.1613 8H49.8438V12H51.1613V8ZM52.2785 7.41561L53.532 10.7111L57.2707 9.28893L56.0171 5.99348L52.2785 7.41561ZM55.4014 8H53.9312V12H55.4014V8ZM55.8065 9.30484L54.5849 6.00939L50.8343 7.3997L52.0559 10.6952L55.8065 9.30484ZM52.7096 8.70455H54.1478V4.70455H52.7096V8.70455Z" fill="black" mask="url(#path-1-outside-1_2_2)"/>
<mask id="path-3-outside-2_2_2" maskUnits="userSpaceOnUse" x="16" y="12" width="32" height="13" fill="black">
<rect fill="white" x="16" y="12" width="32" height="13"/>
<path d="M18.8592 22L20.0666 14.7273H22.8507C23.3763 14.7273 23.8001 14.8101 24.122 14.9759C24.444 15.1392 24.6677 15.3629 24.7932 15.647C24.921 15.9311 24.9542 16.2531 24.8926 16.6129C24.8429 16.9065 24.7435 17.1586 24.5943 17.3693C24.4476 17.5777 24.2676 17.7481 24.0546 17.8807C23.8415 18.0109 23.613 18.1044 23.3692 18.1612L23.355 18.2322C23.6107 18.2441 23.845 18.3222 24.0581 18.4666C24.2712 18.611 24.4322 18.8146 24.5411 19.0774C24.65 19.3378 24.6748 19.6515 24.6156 20.0185C24.5517 20.3949 24.4038 20.7334 24.1717 21.0341C23.9397 21.3324 23.6249 21.5679 23.2271 21.7408C22.8318 21.9136 22.3571 22 21.8031 22H18.8592ZM20.3614 20.8991H21.7783C22.2541 20.8991 22.614 20.808 22.8578 20.6257C23.1017 20.4411 23.2473 20.2043 23.2946 19.9155C23.3301 19.7 23.3088 19.5059 23.2307 19.3331C23.1526 19.1579 23.0235 19.0206 22.8436 18.9212C22.6637 18.8194 22.4388 18.7685 22.1689 18.7685H20.7129L20.3614 20.8991ZM20.8763 17.8203H22.1796C22.4068 17.8203 22.6175 17.7789 22.8117 17.696C23.0082 17.6108 23.1715 17.4912 23.3017 17.3374C23.4343 17.1811 23.516 16.9964 23.5467 16.7834C23.5965 16.5017 23.5373 16.2696 23.3692 16.0874C23.2011 15.9051 22.9241 15.8139 22.5382 15.8139H21.203L20.8763 17.8203ZM25.4315 22L26.6389 14.7273H27.9564L26.9336 20.8956H30.1368L29.9521 22H25.4315ZM37.9004 18.4489C37.7726 19.2206 37.5205 19.8788 37.144 20.4233C36.77 20.9654 36.3131 21.3809 35.7733 21.6697C35.2359 21.9562 34.6571 22.0994 34.0368 22.0994C33.3858 22.0994 32.8271 21.9479 32.3607 21.6449C31.8943 21.3395 31.5581 20.9027 31.3521 20.3345C31.1485 19.7663 31.113 19.0845 31.2456 18.2891C31.3735 17.5196 31.6244 16.8615 31.9985 16.3146C32.3725 15.7678 32.8306 15.3499 33.3727 15.0611C33.9149 14.7723 34.4996 14.6278 35.127 14.6278C35.7733 14.6278 36.3273 14.7805 36.7889 15.0859C37.253 15.389 37.5868 15.8258 37.7904 16.3963C37.9963 16.9669 38.033 17.651 37.9004 18.4489ZM36.6043 18.2891C36.6919 17.7517 36.6836 17.2983 36.5794 16.929C36.4776 16.5597 36.2965 16.2815 36.0361 16.0945C35.7757 15.9051 35.4549 15.8104 35.0737 15.8104C34.6618 15.8104 34.2806 15.9134 33.9303 16.1193C33.5823 16.3229 33.2863 16.6212 33.0425 17.0142C32.801 17.4072 32.6353 17.8854 32.5453 18.4489C32.4506 18.9886 32.4565 19.442 32.5631 19.8089C32.6696 20.1759 32.8543 20.4529 33.1171 20.6399C33.3798 20.8246 33.7006 20.9169 34.0794 20.9169C34.489 20.9169 34.8678 20.8151 35.2158 20.6115C35.5638 20.4079 35.8585 20.1108 36.1 19.7202C36.3439 19.3295 36.5119 18.8525 36.6043 18.2891ZM44.2454 17.0497C44.2194 16.858 44.172 16.6863 44.1034 16.5348C44.0347 16.3809 43.9424 16.2507 43.8264 16.1442C43.7104 16.0353 43.5695 15.9524 43.4038 15.8956C43.2381 15.8388 43.0452 15.8104 42.825 15.8104C42.4344 15.8104 42.0639 15.9086 41.7135 16.1051C41.3631 16.3016 41.0636 16.5904 40.815 16.9716C40.5665 17.3504 40.3972 17.812 40.3072 18.3565C40.2173 18.9058 40.222 19.371 40.3214 19.7521C40.4209 20.1333 40.6032 20.4233 40.8683 20.6222C41.1358 20.8187 41.472 20.9169 41.8768 20.9169C42.2485 20.9169 42.5859 20.8459 42.8889 20.7038C43.1919 20.5618 43.4429 20.3606 43.6417 20.1001C43.843 19.8374 43.9708 19.5296 44.0253 19.1768L44.3165 19.223H42.3385L42.516 18.1932H45.467L45.3179 19.0668C45.2161 19.6918 44.9947 20.2315 44.6538 20.6861C44.3153 21.1383 43.8927 21.4875 43.3861 21.7337C42.8818 21.9775 42.329 22.0994 41.7277 22.0994C41.0601 22.0994 40.4978 21.9491 40.0409 21.6484C39.5863 21.3454 39.2644 20.9157 39.075 20.3594C38.8856 19.8007 38.8548 19.1378 38.9827 18.3707C39.0773 17.7836 39.2454 17.2592 39.4869 16.7976C39.7308 16.3359 40.0291 15.9441 40.3818 15.6222C40.7369 15.2978 41.1311 15.0516 41.5643 14.8835C41.9976 14.7131 42.4521 14.6278 42.928 14.6278C43.3281 14.6278 43.6926 14.687 44.0217 14.8054C44.3508 14.9214 44.6325 15.0871 44.8669 15.3026C45.1036 15.518 45.2847 15.7737 45.4102 16.0696C45.5357 16.3655 45.5949 16.6922 45.5878 17.0497H44.2454Z"/>
</mask>
<path d="M18.8592 22L20.0666 14.7273H22.8507C23.3763 14.7273 23.8001 14.8101 24.122 14.9759C24.444 15.1392 24.6677 15.3629 24.7932 15.647C24.921 15.9311 24.9542 16.2531 24.8926 16.6129C24.8429 16.9065 24.7435 17.1586 24.5943 17.3693C24.4476 17.5777 24.2676 17.7481 24.0546 17.8807C23.8415 18.0109 23.613 18.1044 23.3692 18.1612L23.355 18.2322C23.6107 18.2441 23.845 18.3222 24.0581 18.4666C24.2712 18.611 24.4322 18.8146 24.5411 19.0774C24.65 19.3378 24.6748 19.6515 24.6156 20.0185C24.5517 20.3949 24.4038 20.7334 24.1717 21.0341C23.9397 21.3324 23.6249 21.5679 23.2271 21.7408C22.8318 21.9136 22.3571 22 21.8031 22H18.8592ZM20.3614 20.8991H21.7783C22.2541 20.8991 22.614 20.808 22.8578 20.6257C23.1017 20.4411 23.2473 20.2043 23.2946 19.9155C23.3301 19.7 23.3088 19.5059 23.2307 19.3331C23.1526 19.1579 23.0235 19.0206 22.8436 18.9212C22.6637 18.8194 22.4388 18.7685 22.1689 18.7685H20.7129L20.3614 20.8991ZM20.8763 17.8203H22.1796C22.4068 17.8203 22.6175 17.7789 22.8117 17.696C23.0082 17.6108 23.1715 17.4912 23.3017 17.3374C23.4343 17.1811 23.516 16.9964 23.5467 16.7834C23.5965 16.5017 23.5373 16.2696 23.3692 16.0874C23.2011 15.9051 22.9241 15.8139 22.5382 15.8139H21.203L20.8763 17.8203ZM25.4315 22L26.6389 14.7273H27.9564L26.9336 20.8956H30.1368L29.9521 22H25.4315ZM37.9004 18.4489C37.7726 19.2206 37.5205 19.8788 37.144 20.4233C36.77 20.9654 36.3131 21.3809 35.7733 21.6697C35.2359 21.9562 34.6571 22.0994 34.0368 22.0994C33.3858 22.0994 32.8271 21.9479 32.3607 21.6449C31.8943 21.3395 31.5581 20.9027 31.3521 20.3345C31.1485 19.7663 31.113 19.0845 31.2456 18.2891C31.3735 17.5196 31.6244 16.8615 31.9985 16.3146C32.3725 15.7678 32.8306 15.3499 33.3727 15.0611C33.9149 14.7723 34.4996 14.6278 35.127 14.6278C35.7733 14.6278 36.3273 14.7805 36.7889 15.0859C37.253 15.389 37.5868 15.8258 37.7904 16.3963C37.9963 16.9669 38.033 17.651 37.9004 18.4489ZM36.6043 18.2891C36.6919 17.7517 36.6836 17.2983 36.5794 16.929C36.4776 16.5597 36.2965 16.2815 36.0361 16.0945C35.7757 15.9051 35.4549 15.8104 35.0737 15.8104C34.6618 15.8104 34.2806 15.9134 33.9303 16.1193C33.5823 16.3229 33.2863 16.6212 33.0425 17.0142C32.801 17.4072 32.6353 17.8854 32.5453 18.4489C32.4506 18.9886 32.4565 19.442 32.5631 19.8089C32.6696 20.1759 32.8543 20.4529 33.1171 20.6399C33.3798 20.8246 33.7006 20.9169 34.0794 20.9169C34.489 20.9169 34.8678 20.8151 35.2158 20.6115C35.5638 20.4079 35.8585 20.1108 36.1 19.7202C36.3439 19.3295 36.5119 18.8525 36.6043 18.2891ZM44.2454 17.0497C44.2194 16.858 44.172 16.6863 44.1034 16.5348C44.0347 16.3809 43.9424 16.2507 43.8264 16.1442C43.7104 16.0353 43.5695 15.9524 43.4038 15.8956C43.2381 15.8388 43.0452 15.8104 42.825 15.8104C42.4344 15.8104 42.0639 15.9086 41.7135 16.1051C41.3631 16.3016 41.0636 16.5904 40.815 16.9716C40.5665 17.3504 40.3972 17.812 40.3072 18.3565C40.2173 18.9058 40.222 19.371 40.3214 19.7521C40.4209 20.1333 40.6032 20.4233 40.8683 20.6222C41.1358 20.8187 41.472 20.9169 41.8768 20.9169C42.2485 20.9169 42.5859 20.8459 42.8889 20.7038C43.1919 20.5618 43.4429 20.3606 43.6417 20.1001C43.843 19.8374 43.9708 19.5296 44.0253 19.1768L44.3165 19.223H42.3385L42.516 18.1932H45.467L45.3179 19.0668C45.2161 19.6918 44.9947 20.2315 44.6538 20.6861C44.3153 21.1383 43.8927 21.4875 43.3861 21.7337C42.8818 21.9775 42.329 22.0994 41.7277 22.0994C41.0601 22.0994 40.4978 21.9491 40.0409 21.6484C39.5863 21.3454 39.2644 20.9157 39.075 20.3594C38.8856 19.8007 38.8548 19.1378 38.9827 18.3707C39.0773 17.7836 39.2454 17.2592 39.4869 16.7976C39.7308 16.3359 40.0291 15.9441 40.3818 15.6222C40.7369 15.2978 41.1311 15.0516 41.5643 14.8835C41.9976 14.7131 42.4521 14.6278 42.928 14.6278C43.3281 14.6278 43.6926 14.687 44.0217 14.8054C44.3508 14.9214 44.6325 15.0871 44.8669 15.3026C45.1036 15.518 45.2847 15.7737 45.4102 16.0696C45.5357 16.3655 45.5949 16.6922 45.5878 17.0497H44.2454Z" fill="url(#paint1_linear_2_2)"/>
<path d="M18.8592 22L16.8863 21.6725L16.4998 24H18.8592V22ZM20.0666 14.7273V12.7273H18.3713L18.0936 14.3997L20.0666 14.7273ZM24.122 14.9759L23.2067 16.7542L23.2171 16.7594L24.122 14.9759ZM24.7932 15.647L22.9636 16.4551L22.9694 16.4677L24.7932 15.647ZM24.8926 16.6129L22.9213 16.2757L22.9207 16.279L24.8926 16.6129ZM24.5943 17.3693L22.9619 16.2138L22.9594 16.2174L24.5943 17.3693ZM24.0546 17.8807L25.0975 19.5872L25.1043 19.583L25.1112 19.5788L24.0546 17.8807ZM23.3692 18.1612L22.9153 16.2134L21.6607 16.5057L21.408 17.769L23.3692 18.1612ZM23.355 18.2322L21.3938 17.84L20.9373 20.1225L23.2625 20.2301L23.355 18.2322ZM24.0581 18.4666L25.1802 16.8111L25.1802 16.8111L24.0581 18.4666ZM24.5411 19.0774L22.6934 19.8431L22.6959 19.849L24.5411 19.0774ZM24.6156 20.0185L26.5874 20.3533L26.5888 20.3451L26.5901 20.3369L24.6156 20.0185ZM24.1717 21.0341L25.7505 22.262L25.7551 22.2559L24.1717 21.0341ZM23.2271 21.7408L22.4301 19.9064L22.4261 19.9082L23.2271 21.7408ZM20.3614 20.8991L18.3881 20.5736L18.0043 22.8991H20.3614V20.8991ZM22.8578 20.6257L24.0554 22.2276L24.0652 22.2201L22.8578 20.6257ZM23.2946 19.9155L21.3212 19.5902L21.321 19.5919L23.2946 19.9155ZM23.2307 19.3331L21.4041 20.1477L21.4083 20.1569L23.2307 19.3331ZM22.8436 18.9212L21.8588 20.6619L21.8675 20.6668L21.8763 20.6716L22.8436 18.9212ZM20.7129 18.7685V16.7685H19.0159L18.7396 18.4429L20.7129 18.7685ZM20.8763 17.8203L18.9023 17.4989L18.5243 19.8203H20.8763V17.8203ZM22.8117 17.696L23.5968 19.5355L23.6075 19.5309L22.8117 17.696ZM23.3017 17.3374L21.7767 16.0434L21.7749 16.0455L23.3017 17.3374ZM23.5467 16.7834L21.5772 16.4358L21.5718 16.4666L21.5673 16.4975L23.5467 16.7834ZM21.203 15.8139V13.8139H19.5023L19.229 15.4925L21.203 15.8139ZM20.8322 22.3275L22.0396 15.0548L18.0936 14.3997L16.8863 21.6725L20.8322 22.3275ZM20.0666 16.7273H22.8507V12.7273H20.0666V16.7273ZM22.8507 16.7273C23.0113 16.7273 23.1172 16.7402 23.1789 16.7522C23.2402 16.7642 23.2419 16.7722 23.2067 16.7541L25.0373 13.1976C24.3335 12.8353 23.5612 12.7273 22.8507 12.7273V16.7273ZM23.2171 16.7594C23.216 16.7589 23.1738 16.7371 23.1171 16.6804C23.0576 16.6209 23.0027 16.5433 22.9637 16.455L26.6227 14.839C26.2813 14.066 25.6902 13.5288 25.0269 13.1923L23.2171 16.7594ZM22.9694 16.4677C22.9421 16.4071 22.9289 16.3499 22.9244 16.3064C22.9202 16.2653 22.9253 16.2523 22.9213 16.2757L26.864 16.9501C26.9808 16.2672 26.9346 15.532 26.617 14.8263L22.9694 16.4677ZM22.9207 16.279C22.9168 16.3022 22.9143 16.3034 22.9202 16.2885C22.9264 16.2727 22.9393 16.2457 22.9619 16.2138L26.2267 18.5248C26.574 18.0343 26.7724 17.491 26.8646 16.9469L22.9207 16.279ZM22.9594 16.2174C22.9602 16.2163 22.9649 16.21 22.9738 16.2015C22.9828 16.193 22.9916 16.1865 22.998 16.1826L25.1112 19.5788C25.5553 19.3025 25.9307 18.945 26.2293 18.5212L22.9594 16.2174ZM23.0117 16.1741C22.9813 16.1927 22.9518 16.2049 22.9153 16.2134L23.8231 20.109C24.2743 20.0039 24.7017 19.8291 25.0975 19.5872L23.0117 16.1741ZM21.408 17.769L21.3938 17.84L25.3161 18.6245L25.3304 18.5535L21.408 17.769ZM23.2625 20.2301C23.2132 20.2278 23.1536 20.2183 23.0901 20.1971C23.0266 20.1759 22.9745 20.1483 22.936 20.1222L25.1802 16.8111C24.6639 16.4611 24.0735 16.2634 23.4475 16.2344L23.2625 20.2301ZM22.936 20.1222C22.8719 20.0787 22.8151 20.0253 22.7698 19.9681C22.7256 19.9121 22.7029 19.8659 22.6934 19.8431L26.3887 18.3117C26.1465 17.7272 25.7505 17.1976 25.1802 16.8111L22.936 20.1222ZM22.6959 19.849C22.622 19.6723 22.6593 19.5873 22.6412 19.7L26.5901 20.3369C26.6903 19.7157 26.6779 19.0034 26.3862 18.3058L22.6959 19.849ZM22.6439 19.6836C22.6345 19.7389 22.6191 19.7724 22.5884 19.8123L25.7551 22.2559C26.1884 21.6944 26.4689 21.0509 26.5874 20.3533L22.6439 19.6836ZM22.593 19.8062C22.591 19.8088 22.5838 19.8179 22.5635 19.833C22.5422 19.849 22.5011 19.8756 22.4301 19.9065L24.0242 23.5751C24.6834 23.2887 25.2842 22.8615 25.7505 22.262L22.593 19.8062ZM22.4261 19.9082C22.3442 19.944 22.1566 20 21.8031 20V24C22.5577 24 23.3194 23.8832 24.0282 23.5733L22.4261 19.9082ZM21.8031 20H18.8592V24H21.8031V20ZM20.3614 22.8991H21.7783V18.8991H20.3614V22.8991ZM21.7783 22.8991C22.4587 22.8991 23.3198 22.7774 24.0553 22.2276L21.6603 19.0238C21.7902 18.9268 21.8931 18.8973 21.914 18.892C21.9322 18.8874 21.8946 18.8991 21.7783 18.8991V22.8991ZM24.0652 22.2201C24.6976 21.7412 25.1339 21.0587 25.2683 20.239L21.321 19.5919C21.3371 19.4935 21.3757 19.3767 21.4463 19.2619C21.516 19.1486 21.5944 19.0738 21.6504 19.0313L24.0652 22.2201ZM25.268 20.2408C25.3577 19.6963 25.3174 19.0939 25.0531 18.5093L21.4083 20.1569C21.3002 19.9179 21.3025 19.7038 21.3212 19.5902L25.268 20.2408ZM25.0573 18.5185C24.7891 17.917 24.3424 17.4644 23.811 17.1707L21.8763 20.6716C21.8005 20.6298 21.7082 20.5645 21.6178 20.4683C21.5263 20.3709 21.4545 20.2607 21.4041 20.1477L25.0573 18.5185ZM23.8285 17.1805C23.27 16.8645 22.6814 16.7685 22.1689 16.7685V20.7685C22.1962 20.7685 22.0574 20.7742 21.8588 20.6619L23.8285 17.1805ZM22.1689 16.7685H20.7129V20.7685H22.1689V16.7685ZM18.7396 18.4429L18.3881 20.5736L22.3347 21.2247L22.6863 19.0941L18.7396 18.4429ZM20.8763 19.8203H22.1796V15.8203H20.8763V19.8203ZM22.1796 19.8203C22.6557 19.8203 23.1359 19.7322 23.5968 19.5355L22.0265 15.8566C22.0601 15.8422 22.0929 15.8326 22.1222 15.8268C22.1511 15.8211 22.1712 15.8203 22.1796 15.8203V19.8203ZM23.6075 19.5309C24.0681 19.3311 24.4873 19.0325 24.8285 18.6292L21.7749 16.0455C21.8557 15.95 21.9482 15.8905 22.0158 15.8612L23.6075 19.5309ZM24.8267 18.6313C25.2151 18.1736 25.4445 17.6347 25.5262 17.0693L21.5673 16.4975C21.5762 16.4355 21.5957 16.3577 21.6333 16.2727C21.6712 16.187 21.7208 16.1093 21.7767 16.0434L24.8267 18.6313ZM25.5163 17.131C25.6556 16.3419 25.4994 15.4472 24.8395 14.7316L21.8989 17.4431C21.7663 17.2994 21.6571 17.1096 21.6017 16.8925C21.5488 16.6849 21.5621 16.521 21.5772 16.4358L25.5163 17.131ZM24.8395 14.7316C24.1258 13.9576 23.1764 13.8139 22.5382 13.8139V17.8139C22.5832 17.8139 22.5267 17.8204 22.4102 17.7821C22.2824 17.74 22.0833 17.6431 21.8989 17.4431L24.8395 14.7316ZM22.5382 13.8139H21.203V17.8139H22.5382V13.8139ZM19.229 15.4925L18.9023 17.4989L22.8503 18.1417L23.177 16.1354L19.229 15.4925ZM25.4315 22L23.4585 21.6725L23.0721 24H25.4315V22ZM26.6389 14.7273V12.7273H24.9436L24.6659 14.3997L26.6389 14.7273ZM27.9564 14.7273L29.9294 15.0544L30.3153 12.7273H27.9564V14.7273ZM26.9336 20.8956L24.9606 20.5685L24.5747 22.8956H26.9336V20.8956ZM30.1368 20.8956L32.1094 21.2254L32.4989 18.8956H30.1368V20.8956ZM29.9521 22V24H31.6455L31.9247 22.3298L29.9521 22ZM27.4045 22.3275L28.6119 15.0548L24.6659 14.3997L23.4585 21.6725L27.4045 22.3275ZM26.6389 16.7273H27.9564V12.7273H26.6389V16.7273ZM25.9833 14.4001L24.9606 20.5685L28.9067 21.2227L29.9294 15.0544L25.9833 14.4001ZM26.9336 22.8956H30.1368V18.8956H26.9336V22.8956ZM28.1642 20.5658L27.9795 21.6702L31.9247 22.3298L32.1094 21.2254L28.1642 20.5658ZM29.9521 20H25.4315V24H29.9521V20ZM37.9004 18.4489L35.9275 18.121L35.9273 18.122L37.9004 18.4489ZM37.144 20.4233L35.4989 19.286L35.4979 19.2875L37.144 20.4233ZM35.7733 21.6697L36.7141 23.4347L36.7169 23.4332L35.7733 21.6697ZM32.3607 21.6449L31.265 23.3181L31.271 23.322L32.3607 21.6449ZM31.3521 20.3345L29.4694 21.0092L29.4719 21.0161L31.3521 20.3345ZM31.2456 18.2891L33.2184 18.6179L33.2186 18.6169L31.2456 18.2891ZM31.9985 16.3146L33.6492 17.4437L33.6492 17.4437L31.9985 16.3146ZM33.3727 15.0611L32.4324 13.2959L32.4324 13.2959L33.3727 15.0611ZM36.7889 15.0859L35.6854 16.754L35.6954 16.7605L36.7889 15.0859ZM37.7904 16.3963L35.9067 17.0685L35.9092 17.0754L37.7904 16.3963ZM36.6043 18.2891L38.578 18.6125L38.5782 18.6108L36.6043 18.2891ZM36.5794 16.929L34.6513 17.4605L34.6545 17.4719L36.5794 16.929ZM36.0361 16.0945L34.8597 17.712L34.8694 17.7189L36.0361 16.0945ZM33.9303 16.1193L34.9402 17.8456L34.9438 17.8435L33.9303 16.1193ZM33.0425 17.0142L31.343 15.9597L31.3385 15.9672L33.0425 17.0142ZM32.5453 18.4489L34.5152 18.7945L34.5179 18.7793L34.5203 18.7642L32.5453 18.4489ZM33.1171 20.6399L31.9573 22.2694L31.9672 22.2763L33.1171 20.6399ZM35.2158 20.6115L34.2059 18.8852L34.2059 18.8852L35.2158 20.6115ZM36.1 19.7202L34.4034 18.6611L34.3988 18.6685L36.1 19.7202ZM35.9273 18.122C35.839 18.6552 35.6798 19.0243 35.4989 19.286L38.7892 21.5606C39.3612 20.7332 39.7062 19.7861 39.8736 18.7757L35.9273 18.122ZM35.4979 19.2875C35.2906 19.5878 35.0676 19.779 34.8297 19.9063L36.7169 23.4332C37.5586 22.9828 38.2494 22.343 38.7902 21.5591L35.4979 19.2875ZM34.8325 19.9048C34.5902 20.034 34.3353 20.0994 34.0368 20.0994V24.0994C34.9789 24.0994 35.8816 23.8784 36.7141 23.4347L34.8325 19.9048ZM34.0368 20.0994C33.7053 20.0994 33.5402 20.0262 33.4503 19.9678L31.271 23.322C32.1139 23.8696 33.0662 24.0994 34.0368 24.0994V20.0994ZM33.4563 19.9717C33.3828 19.9236 33.3041 19.8507 33.2324 19.6529L29.4719 21.0161C29.8121 21.9547 30.4058 22.7554 31.265 23.3181L33.4563 19.9717ZM33.2349 19.6599C33.1787 19.5031 33.1238 19.1857 33.2184 18.6179L29.2728 17.9603C29.1023 18.9834 29.1184 20.0296 29.4694 21.0092L33.2349 19.6599ZM33.2186 18.6169C33.307 18.0844 33.4663 17.7113 33.6492 17.4437L30.3477 15.1855C29.7825 16.0118 29.4399 16.9549 29.2727 17.9612L33.2186 18.6169ZM33.6492 17.4437C33.8559 17.1416 34.0777 16.9516 34.3131 16.8262L32.4324 13.2959C31.5835 13.7482 30.8891 14.3939 30.3477 15.1855L33.6492 17.4437ZM34.3131 16.8262C34.5594 16.695 34.8203 16.6278 35.127 16.6278V12.6278C34.1789 12.6278 33.2703 12.8495 32.4324 13.2959L34.3131 16.8262ZM35.127 16.6278C35.4482 16.6278 35.603 16.6994 35.6855 16.754L37.8924 13.4179C37.0515 12.8616 36.0985 12.6278 35.127 12.6278V16.6278ZM35.6954 16.7605C35.7591 16.8021 35.8354 16.8688 35.9067 17.0685L39.674 15.7241C39.3381 14.7827 38.7468 13.9758 37.8825 13.4114L35.6954 16.7605ZM35.9092 17.0754C35.9664 17.2339 36.022 17.5525 35.9275 18.121L39.8734 18.7767C40.0441 17.7496 40.0262 16.6998 39.6715 15.7172L35.9092 17.0754ZM38.5782 18.6108C38.6945 17.8975 38.7138 17.1287 38.5043 16.3861L34.6545 17.4719C34.6534 17.4679 34.6892 17.6058 34.6303 17.9673L38.5782 18.6108ZM38.5075 16.3975C38.3089 15.6768 37.9032 14.973 37.2028 14.47L34.8694 17.7189C34.7911 17.6627 34.731 17.5958 34.6912 17.5346C34.6536 17.4769 34.6469 17.4443 34.6513 17.4604L38.5075 16.3975ZM37.2124 14.477C36.5508 13.9958 35.7977 13.8104 35.0737 13.8104V17.8104C35.0988 17.8104 35.081 17.8134 35.0339 17.7996C34.9839 17.7848 34.9214 17.7567 34.8598 17.7119L37.2124 14.477ZM35.0737 13.8104C34.3105 13.8104 33.5787 14.006 32.9167 14.3952L34.9438 17.8435C34.9826 17.8207 35.0131 17.8104 35.0737 17.8104V13.8104ZM32.9203 14.393C32.2523 14.7838 31.7332 15.331 31.343 15.9597L34.7419 18.0687C34.8395 17.9114 34.9122 17.862 34.9402 17.8456L32.9203 14.393ZM31.3385 15.9672C30.9311 16.6301 30.6922 17.3703 30.5703 18.1335L34.5203 18.7642C34.5784 18.4005 34.6709 18.1843 34.7465 18.0613L31.3385 15.9672ZM30.5754 18.1033C30.4492 18.8224 30.4219 19.6072 30.6424 20.3666L34.4838 19.2513C34.489 19.2693 34.4796 19.2468 34.4786 19.1676C34.4775 19.0881 34.4851 18.9661 34.5152 18.7945L30.5754 18.1033ZM30.6424 20.3666C30.8505 21.0833 31.2626 21.7749 31.9574 22.2694L34.2768 19.0105C34.3501 19.0627 34.4072 19.125 34.4456 19.1825C34.4817 19.2367 34.4884 19.2673 34.4838 19.2513L30.6424 20.3666ZM31.9672 22.2763C32.6238 22.7377 33.3648 22.9169 34.0794 22.9169V18.9169C34.0524 18.9169 34.0662 18.9137 34.1079 18.9257C34.1524 18.9385 34.2096 18.9632 34.267 19.0035L31.9672 22.2763ZM34.0794 22.9169C34.8381 22.9169 35.5663 22.7236 36.2257 22.3378L34.2059 18.8852C34.1693 18.9066 34.1399 18.9169 34.0794 18.9169V22.9169ZM36.2257 22.3378C36.8929 21.9475 37.412 21.4014 37.8012 20.7718L34.3988 18.6685C34.3051 18.8202 34.2347 18.8684 34.2059 18.8852L36.2257 22.3378ZM37.7966 20.7792C38.2098 20.1173 38.4528 19.3764 38.578 18.6125L34.6306 17.9656C34.5711 18.3286 34.4779 18.5418 34.4034 18.6611L37.7966 20.7792ZM44.2454 17.0497L42.2636 17.3189L42.4987 19.0497H44.2454V17.0497ZM44.1034 16.5348L42.2769 17.3497L42.2817 17.3603L44.1034 16.5348ZM43.8264 16.1442L42.4575 17.6023L42.4655 17.6098L42.4736 17.6172L43.8264 16.1442ZM43.4038 15.8956L44.0525 14.0037L44.0525 14.0037L43.4038 15.8956ZM41.7135 16.1051L42.6918 17.8495L42.6918 17.8495L41.7135 16.1051ZM40.815 16.9716L42.4871 18.0689L42.4903 18.0641L40.815 16.9716ZM40.3072 18.3565L38.334 18.0305L38.3335 18.0333L40.3072 18.3565ZM40.3214 19.7521L38.3862 20.257L38.3862 20.257L40.3214 19.7521ZM40.8683 20.6222L39.6683 22.2222L39.6763 22.2282L39.6843 22.2341L40.8683 20.6222ZM42.8889 20.7038L42.04 18.8929L42.04 18.8929L42.8889 20.7038ZM43.6417 20.1001L42.0538 18.8842L42.0522 18.8863L43.6417 20.1001ZM44.0253 19.1768L44.3384 17.2015L42.355 16.8871L42.0487 18.8717L44.0253 19.1768ZM44.3165 19.223V21.223L44.6296 17.2477L44.3165 19.223ZM42.3385 19.223L40.3676 18.8832L39.9641 21.223H42.3385V19.223ZM42.516 18.1932V16.1932H40.8314L40.5451 17.8534L42.516 18.1932ZM45.467 18.1932L47.4385 18.5298L47.8374 16.1932H45.467V18.1932ZM45.3179 19.0668L43.3464 18.7302L43.3451 18.7377L43.3439 18.7452L45.3179 19.0668ZM44.6538 20.6861L43.0538 19.4861L43.0528 19.4874L44.6538 20.6861ZM43.3861 21.7337L44.2567 23.5342L44.2603 23.5325L43.3861 21.7337ZM40.0409 21.6484L38.9315 23.3126L38.9415 23.3192L40.0409 21.6484ZM39.075 20.3594L37.1808 21.0015L37.1817 21.0039L39.075 20.3594ZM38.9827 18.3707L40.9555 18.6995L40.9571 18.6892L38.9827 18.3707ZM39.4869 16.7976L37.7184 15.8635L37.7147 15.8706L39.4869 16.7976ZM40.3818 15.6222L41.7301 17.0993L41.7306 17.0989L40.3818 15.6222ZM41.5643 14.8835L42.2878 16.7481L42.2966 16.7447L41.5643 14.8835ZM44.0217 14.8054L43.3447 16.6874L43.3568 16.6916L44.0217 14.8054ZM44.8669 15.3026L43.5134 16.775L43.5208 16.7818L44.8669 15.3026ZM45.4102 16.0696L47.2515 15.2889L47.2515 15.2889L45.4102 16.0696ZM45.5878 17.0497V19.0497H47.5484L47.5874 17.0894L45.5878 17.0497ZM46.2272 16.7806C46.1793 16.4272 46.0856 16.0636 45.9251 15.7093L42.2817 17.3603C42.2585 17.309 42.2595 17.2887 42.2636 17.3189L46.2272 16.7806ZM45.9299 15.7199C45.7578 15.3343 45.5102 14.9751 45.1792 14.6711L42.4736 17.6172C42.3746 17.5264 42.3117 17.4276 42.2769 17.3497L45.9299 15.7199ZM45.1953 14.686C44.8526 14.3643 44.459 14.1431 44.0525 14.0037L42.7552 17.7875C42.6801 17.7618 42.5682 17.7062 42.4575 17.6023L45.1953 14.686ZM44.0525 14.0037C43.6322 13.8596 43.2117 13.8104 42.825 13.8104V17.8104C42.8498 17.8104 42.8548 17.812 42.8435 17.8103C42.8319 17.8086 42.8007 17.8031 42.7552 17.7875L44.0525 14.0037ZM42.825 13.8104C42.0817 13.8104 41.3755 14.0016 40.7352 14.3607L42.6918 17.8495C42.7522 17.8156 42.787 17.8104 42.825 17.8104V13.8104ZM40.7352 14.3607C40.0678 14.735 39.5411 15.2638 39.1398 15.8791L42.4903 18.0641C42.5862 17.917 42.6584 17.8682 42.6918 17.8495L40.7352 14.3607ZM39.1429 15.8743C38.7117 16.5314 38.4597 17.2694 38.334 18.0305L42.2805 18.6825C42.3347 18.3546 42.4212 18.1693 42.4871 18.0689L39.1429 15.8743ZM38.3335 18.0333C38.2157 18.7524 38.1934 19.5181 38.3862 20.257L42.2567 19.2473C42.2505 19.2238 42.2188 19.0592 42.2809 18.6798L38.3335 18.0333ZM38.3862 20.257C38.5774 20.9901 38.9763 21.7031 39.6683 22.2222L42.0683 19.0222C42.1381 19.0745 42.1913 19.136 42.226 19.1912C42.2585 19.2429 42.2624 19.2692 42.2567 19.2473L38.3862 20.257ZM39.6843 22.2341C40.3648 22.7339 41.1416 22.9169 41.8768 22.9169V18.9169C41.8354 18.9169 41.8422 18.9118 41.8821 18.9235C41.9256 18.9362 41.9877 18.9629 42.0523 19.0103L39.6843 22.2341ZM41.8768 22.9169C42.5092 22.9169 43.141 22.7945 43.7378 22.5148L42.04 18.8929C42.0308 18.8973 41.9878 18.9169 41.8768 18.9169V22.9169ZM43.7378 22.5148C44.3256 22.2392 44.8329 21.8357 45.2313 21.314L42.0522 18.8863C42.0503 18.8888 42.0497 18.8893 42.0504 18.8886C42.051 18.8879 42.0521 18.887 42.0532 18.8861C42.0543 18.8852 42.0544 18.8852 42.053 18.8861C42.0514 18.8871 42.0474 18.8895 42.04 18.8929L43.7378 22.5148ZM45.2296 21.3161C45.6506 20.7664 45.9004 20.1394 46.0019 19.482L42.0487 18.8717C42.0464 18.8866 42.0441 18.896 42.0427 18.9009C42.0414 18.9057 42.0408 18.9068 42.0416 18.905C42.0423 18.9032 42.0439 18.8997 42.0464 18.8954C42.0489 18.891 42.0516 18.8872 42.0538 18.8842L45.2296 21.3161ZM43.7121 21.1522L44.0033 21.1983L44.6296 17.2477L44.3384 17.2015L43.7121 21.1522ZM44.3165 17.223H42.3385V21.223H44.3165V17.223ZM44.3094 19.5628L44.487 18.533L40.5451 17.8534L40.3676 18.8832L44.3094 19.5628ZM42.516 20.1932H45.467V16.1932H42.516V20.1932ZM43.4956 17.8566L43.3464 18.7302L47.2894 19.4034L47.4385 18.5298L43.4956 17.8566ZM43.3439 18.7452C43.288 19.0886 43.1796 19.3183 43.0538 19.4861L46.2538 21.8861C46.8098 21.1447 47.1442 20.295 47.2919 19.3883L43.3439 18.7452ZM43.0528 19.4874C42.9047 19.6852 42.731 19.8283 42.5119 19.9348L44.2603 23.5325C45.0543 23.1466 45.7258 22.5913 46.2548 21.8847L43.0528 19.4874ZM42.5154 19.9331C42.3023 20.0362 42.0501 20.0994 41.7277 20.0994V24.0994C42.6079 24.0994 43.4613 23.9188 44.2567 23.5342L42.5154 19.9331ZM41.7277 20.0994C41.3639 20.0994 41.205 20.0203 41.1403 19.9777L38.9415 23.3192C39.7906 23.8779 40.7562 24.0994 41.7277 24.0994V20.0994ZM41.1503 19.9843C41.0907 19.9446 41.0272 19.8879 40.9683 19.7148L37.1817 21.0039C37.5015 21.9435 38.082 22.7462 38.9315 23.3125L41.1503 19.9843ZM40.9691 19.7173C40.9139 19.5543 40.8652 19.2412 40.9554 18.6995L37.0099 18.0419C36.8445 19.0343 36.8573 20.047 37.1808 21.0015L40.9691 19.7173ZM40.9571 18.6892C41.0223 18.2849 41.1303 17.9707 41.2591 17.7246L37.7147 15.8706C37.3605 16.5477 37.1324 17.2823 37.0082 18.0523L40.9571 18.6892ZM41.2554 17.7317C41.4015 17.455 41.5628 17.252 41.7301 17.0993L39.0335 14.145C38.4953 14.6362 38.06 15.2169 37.7185 15.8635L41.2554 17.7317ZM41.7306 17.0989C41.9095 16.9355 42.0932 16.8236 42.2877 16.7481L40.8409 13.0189C40.169 13.2796 39.5643 13.6602 39.033 14.1454L41.7306 17.0989ZM42.2966 16.7447C42.4914 16.668 42.6971 16.6278 42.928 16.6278V12.6278C42.2071 12.6278 41.5037 12.7581 40.8321 13.0224L42.2966 16.7447ZM42.928 16.6278C43.1301 16.6278 43.2617 16.6575 43.3448 16.6873L44.6987 12.9235C44.1236 12.7166 43.5261 12.6278 42.928 12.6278V16.6278ZM43.3568 16.6916C43.4554 16.7264 43.4966 16.7596 43.5134 16.775L46.2204 13.8301C45.7684 13.4147 45.2462 13.1164 44.6866 12.9192L43.3568 16.6916ZM43.5208 16.7818C43.5431 16.802 43.5556 16.8191 43.5689 16.8503L47.2515 15.2889C47.0138 14.7282 46.6642 14.234 46.213 13.8233L43.5208 16.7818ZM43.5689 16.8503C43.5726 16.8592 43.5903 16.9023 43.5882 17.01L47.5874 17.0894C47.5994 16.4822 47.4987 15.8719 47.2515 15.2889L43.5689 16.8503ZM45.5878 15.0497H44.2454V19.0497H45.5878V15.0497Z" fill="url(#paint2_linear_2_2)" mask="url(#path-3-outside-2_2_2)"/>
<defs>
<linearGradient id="paint0_linear_2_2" x1="0" y1="5.88732" x2="63" y2="5.88732" gradientUnits="userSpaceOnUse">
<stop stop-color="#6292FA"/>
<stop offset="1" stop-color="#D63EC6"/>
</linearGradient>
<linearGradient id="paint1_linear_2_2" x1="32.2195" y1="12" x2="32.2195" y2="28.5634" gradientUnits="userSpaceOnUse">
<stop stop-color="#6292FA"/>
<stop offset="1" stop-color="#D63EC6"/>
</linearGradient>
<linearGradient id="paint2_linear_2_2" x1="32.2195" y1="12" x2="32.2195" y2="28.5634" gradientUnits="userSpaceOnUse">
<stop/>
<stop offset="1" stop-color="#666666"/>
</linearGradient>
</defs>
</svg>
