<svg width="66" height="29" viewBox="0 0 66 29" fill="none" xmlns="http://www.w3.org/2000/svg">
<g clip-path="url(#clip0_5_2)">
<rect width="66" height="29" fill="white"/>
<mask id="path-1-outside-1_5_2" maskUnits="userSpaceOnUse" x="9" y="3" width="56" height="13" fill="black">
<rect fill="white" x="9" y="3" width="56" height="13"/>
<path d="M14.0727 13H12.6665L16.4342 5.72727H18.0606L19.4172 13H18.0109L17.0344 7.21875H16.9775L14.0727 13ZM14.5912 10.1484H18.4264L18.2488 11.2067H14.4136L14.5912 10.1484ZM27.559 5.72727L26.3517 13H25.1798L22.5768 8.04616H22.52L21.6926 13H20.3751L21.5825 5.72727H22.7615L25.3609 10.6847H25.4284L26.2487 5.72727H27.559ZM33.4761 8.04972C33.4501 7.85795 33.4027 7.68632 33.3341 7.5348C33.2654 7.38092 33.1731 7.25071 33.0571 7.14418C32.9411 7.03527 32.8002 6.95241 32.6345 6.8956C32.4688 6.83878 32.2758 6.81037 32.0557 6.81037C31.665 6.81037 31.2945 6.90862 30.9442 7.10511C30.5938 7.30161 30.2943 7.59044 30.0457 7.97159C29.7971 8.35038 29.6279 8.81203 29.5379 9.35653C29.4479 9.90578 29.4527 10.371 29.5521 10.7521C29.6515 11.1333 29.8338 11.4233 30.099 11.6222C30.3665 11.8187 30.7027 11.9169 31.1075 11.9169C31.4792 11.9169 31.8166 11.8459 32.1196 11.7038C32.4226 11.5618 32.6736 11.3606 32.8724 11.1001C33.0737 10.8374 33.2015 10.5296 33.2559 10.1768L33.5471 10.223H31.5692L31.7467 9.19318H34.6977L34.5486 10.0668C34.4468 10.6918 34.2254 11.2315 33.8845 11.6861C33.546 12.1383 33.1234 12.4875 32.6167 12.7337C32.1125 12.9775 31.5597 13.0994 30.9584 13.0994C30.2907 13.0994 29.7285 12.9491 29.2716 12.6484C28.817 12.3454 28.4951 11.9157 28.3057 11.3594C28.1163 10.8007 28.0855 10.1378 28.2133 9.37074C28.308 8.78362 28.4761 8.25923 28.7176 7.79759C28.9614 7.33594 29.2597 6.94413 29.6125 6.62216C29.9676 6.29782 30.3618 6.05161 30.795 5.88352C31.2282 5.71307 31.6828 5.62784 32.1586 5.62784C32.5587 5.62784 32.9233 5.68703 33.2524 5.8054C33.5815 5.9214 33.8632 6.08712 34.0976 6.30256C34.3343 6.51799 34.5154 6.77367 34.6409 7.0696C34.7664 7.36553 34.8256 7.69223 34.8184 8.04972H33.4761ZM41.1279 5.72727H42.4454L41.657 10.4787C41.5718 10.9995 41.373 11.4576 41.0605 11.853C40.7503 12.2483 40.355 12.5573 39.8744 12.7798C39.3938 13 38.8588 13.1101 38.2693 13.1101C37.675 13.1101 37.1755 13 36.7707 12.7798C36.3659 12.5573 36.0735 12.2483 35.8936 11.853C35.716 11.4576 35.6698 10.9995 35.7551 10.4787L36.5434 5.72727H37.8609L37.0903 10.3686C37.0406 10.6716 37.0631 10.9415 37.1578 11.1783C37.2548 11.4126 37.4134 11.5973 37.6336 11.7322C37.8561 11.8672 38.1343 11.9347 38.4681 11.9347C38.8019 11.9347 39.1026 11.8672 39.3701 11.7322C39.6376 11.5973 39.8566 11.4126 40.0271 11.1783C40.1975 10.9415 40.3076 10.6716 40.3573 10.3686L41.1279 5.72727ZM42.67 13L43.8774 5.72727H45.1949L44.1721 11.8956H47.3753L47.1906 13H42.67ZM49.5415 13H48.1352L51.903 5.72727H53.5294L54.8859 13H53.4797L52.5031 7.21875H52.4463L49.5415 13ZM50.0599 10.1484H53.8952L53.7176 11.2067H49.8824L50.0599 10.1484ZM55.8438 13L57.0512 5.72727H59.7785C60.3372 5.72727 60.7906 5.82434 61.1386 6.01847C61.4866 6.21259 61.7293 6.48485 61.8666 6.83523C62.0039 7.18324 62.0335 7.58925 61.9553 8.05327C61.8796 8.51728 61.7139 8.92093 61.4582 9.2642C61.2049 9.60511 60.8699 9.86908 60.4532 10.0561C60.0389 10.2431 59.5524 10.3366 58.9937 10.3366H57.0512L57.2359 9.2429H59.0044C59.3311 9.2429 59.6057 9.19792 59.8282 9.10795C60.0508 9.01562 60.2259 8.88187 60.3538 8.70668C60.484 8.52912 60.5704 8.31132 60.613 8.05327C60.6533 7.79522 60.6379 7.57505 60.5669 7.39276C60.4982 7.2081 60.3668 7.06842 60.1727 6.97372C59.9809 6.87666 59.7217 6.82812 59.395 6.82812H58.1876L57.1613 13H55.8438ZM60.1478 9.70455L61.4014 13H59.9312L58.7096 9.70455H60.1478Z"/>
</mask>
<path d="M14.0727 13H12.6665L16.4342 5.72727H18.0606L19.4172 13H18.0109L17.0344 7.21875H16.9775L14.0727 13ZM14.5912 10.1484H18.4264L18.2488 11.2067H14.4136L14.5912 10.1484ZM27.559 5.72727L26.3517 13H25.1798L22.5768 8.04616H22.52L21.6926 13H20.3751L21.5825 5.72727H22.7615L25.3609 10.6847H25.4284L26.2487 5.72727H27.559ZM33.4761 8.04972C33.4501 7.85795 33.4027 7.68632 33.3341 7.5348C33.2654 7.38092 33.1731 7.25071 33.0571 7.14418C32.9411 7.03527 32.8002 6.95241 32.6345 6.8956C32.4688 6.83878 32.2758 6.81037 32.0557 6.81037C31.665 6.81037 31.2945 6.90862 30.9442 7.10511C30.5938 7.30161 30.2943 7.59044 30.0457 7.97159C29.7971 8.35038 29.6279 8.81203 29.5379 9.35653C29.4479 9.90578 29.4527 10.371 29.5521 10.7521C29.6515 11.1333 29.8338 11.4233 30.099 11.6222C30.3665 11.8187 30.7027 11.9169 31.1075 11.9169C31.4792 11.9169 31.8166 11.8459 32.1196 11.7038C32.4226 11.5618 32.6736 11.3606 32.8724 11.1001C33.0737 10.8374 33.2015 10.5296 33.2559 10.1768L33.5471 10.223H31.5692L31.7467 9.19318H34.6977L34.5486 10.0668C34.4468 10.6918 34.2254 11.2315 33.8845 11.6861C33.546 12.1383 33.1234 12.4875 32.6167 12.7337C32.1125 12.9775 31.5597 13.0994 30.9584 13.0994C30.2907 13.0994 29.7285 12.9491 29.2716 12.6484C28.817 12.3454 28.4951 11.9157 28.3057 11.3594C28.1163 10.8007 28.0855 10.1378 28.2133 9.37074C28.308 8.78362 28.4761 8.25923 28.7176 7.79759C28.9614 7.33594 29.2597 6.94413 29.6125 6.62216C29.9676 6.29782 30.3618 6.05161 30.795 5.88352C31.2282 5.71307 31.6828 5.62784 32.1586 5.62784C32.5587 5.62784 32.9233 5.68703 33.2524 5.8054C33.5815 5.9214 33.8632 6.08712 34.0976 6.30256C34.3343 6.51799 34.5154 6.77367 34.6409 7.0696C34.7664 7.36553 34.8256 7.69223 34.8184 8.04972H33.4761ZM41.1279 5.72727H42.4454L41.657 10.4787C41.5718 10.9995 41.373 11.4576 41.0605 11.853C40.7503 12.2483 40.355 12.5573 39.8744 12.7798C39.3938 13 38.8588 13.1101 38.2693 13.1101C37.675 13.1101 37.1755 13 36.7707 12.7798C36.3659 12.5573 36.0735 12.2483 35.8936 11.853C35.716 11.4576 35.6698 10.9995 35.7551 10.4787L36.5434 5.72727H37.8609L37.0903 10.3686C37.0406 10.6716 37.0631 10.9415 37.1578 11.1783C37.2548 11.4126 37.4134 11.5973 37.6336 11.7322C37.8561 11.8672 38.1343 11.9347 38.4681 11.9347C38.8019 11.9347 39.1026 11.8672 39.3701 11.7322C39.6376 11.5973 39.8566 11.4126 40.0271 11.1783C40.1975 10.9415 40.3076 10.6716 40.3573 10.3686L41.1279 5.72727ZM42.67 13L43.8774 5.72727H45.1949L44.1721 11.8956H47.3753L47.1906 13H42.67ZM49.5415 13H48.1352L51.903 5.72727H53.5294L54.8859 13H53.4797L52.5031 7.21875H52.4463L49.5415 13ZM50.0599 10.1484H53.8952L53.7176 11.2067H49.8824L50.0599 10.1484ZM55.8438 13L57.0512 5.72727H59.7785C60.3372 5.72727 60.7906 5.82434 61.1386 6.01847C61.4866 6.21259 61.7293 6.48485 61.8666 6.83523C62.0039 7.18324 62.0335 7.58925 61.9553 8.05327C61.8796 8.51728 61.7139 8.92093 61.4582 9.2642C61.2049 9.60511 60.8699 9.86908 60.4532 10.0561C60.0389 10.2431 59.5524 10.3366 58.9937 10.3366H57.0512L57.2359 9.2429H59.0044C59.3311 9.2429 59.6057 9.19792 59.8282 9.10795C60.0508 9.01562 60.2259 8.88187 60.3538 8.70668C60.484 8.52912 60.5704 8.31132 60.613 8.05327C60.6533 7.79522 60.6379 7.57505 60.5669 7.39276C60.4982 7.2081 60.3668 7.06842 60.1727 6.97372C59.9809 6.87666 59.7217 6.82812 59.395 6.82812H58.1876L57.1613 13H55.8438ZM60.1478 9.70455L61.4014 13H59.9312L58.7096 9.70455H60.1478Z" fill="url(#paint0_linear_5_2)"/>
<path d="M14.0727 13V15H15.3061L15.8598 13.8979L14.0727 13ZM12.6665 13L10.8906 12.08L9.37787 15H12.6665V13ZM16.4342 5.72727V3.72727H15.2179L14.6584 4.80727L16.4342 5.72727ZM18.0606 5.72727L20.0267 5.36055L19.7221 3.72727H18.0606V5.72727ZM19.4172 13V15H21.8247L21.3833 12.6333L19.4172 13ZM18.0109 13L16.0389 13.3331L16.3204 15H18.0109V13ZM17.0344 7.21875L19.0064 6.88563L18.7249 5.21875H17.0344V7.21875ZM16.9775 7.21875V5.21875H15.7442L15.1904 6.32081L16.9775 7.21875ZM14.5912 10.1484V8.14844H12.8988L12.6187 9.81749L14.5912 10.1484ZM18.4264 10.1484L20.3988 10.4794L20.7899 8.14844H18.4264V10.1484ZM18.2488 11.2067V13.2067H19.9412L20.2213 11.5376L18.2488 11.2067ZM14.4136 11.2067L12.4412 10.8757L12.0501 13.2067H14.4136V11.2067ZM14.0727 11H12.6665V15H14.0727V11ZM14.4423 13.92L18.2101 6.64727L14.6584 4.80727L10.8906 12.08L14.4423 13.92ZM16.4342 7.72727H18.0606V3.72727H16.4342V7.72727ZM16.0945 6.09399L17.4511 13.3667L21.3833 12.6333L20.0267 5.36055L16.0945 6.09399ZM19.4172 11H18.0109V15H19.4172V11ZM19.983 12.6669L19.0064 6.88563L15.0623 7.55187L16.0389 13.3331L19.983 12.6669ZM17.0344 5.21875H16.9775V9.21875H17.0344V5.21875ZM15.1904 6.32081L12.2856 12.1021L15.8598 13.8979L18.7646 8.11669L15.1904 6.32081ZM14.5912 12.1484H18.4264V8.14844H14.5912V12.1484ZM16.454 9.81749L16.2764 10.8757L20.2213 11.5376L20.3988 10.4794L16.454 9.81749ZM18.2488 9.20668H14.4136V13.2067H18.2488V9.20668ZM16.386 11.5376L16.5636 10.4794L12.6187 9.81749L12.4412 10.8757L16.386 11.5376ZM27.559 5.72727L29.532 6.05482L29.9184 3.72727H27.559V5.72727ZM26.3517 13V15H28.047L28.3246 13.3275L26.3517 13ZM25.1798 13L23.4093 13.9303L23.9714 15H25.1798V13ZM22.5768 8.04616L24.3473 7.11588L23.7852 6.04616H22.5768V8.04616ZM22.52 8.04616V6.04616H20.8263L20.5473 7.71668L22.52 8.04616ZM21.6926 13V15H23.3862L23.6652 13.3295L21.6926 13ZM20.3751 13L18.4021 12.6725L18.0157 15H20.3751V13ZM21.5825 5.72727V3.72727H19.8871L19.6095 5.39972L21.5825 5.72727ZM22.7615 5.72727L24.5327 4.7985L23.971 3.72727H22.7615V5.72727ZM25.3609 10.6847L23.5896 11.6134L24.1513 12.6847H25.3609V10.6847ZM25.4284 10.6847V12.6847H27.1246L27.4015 11.0112L25.4284 10.6847ZM26.2487 5.72727V3.72727H24.5524L24.2755 5.40077L26.2487 5.72727ZM25.586 5.39972L24.3787 12.6725L28.3246 13.3275L29.532 6.05482L25.586 5.39972ZM26.3517 11H25.1798V15H26.3517V11ZM26.9502 12.0697L24.3473 7.11588L20.8063 8.97645L23.4093 13.9303L26.9502 12.0697ZM22.5768 6.04616H22.52V10.0462H22.5768V6.04616ZM20.5473 7.71668L19.7199 12.6705L23.6652 13.3295L24.4926 8.37565L20.5473 7.71668ZM21.6926 11H20.3751V15H21.6926V11ZM22.3481 13.3275L23.5555 6.05482L19.6095 5.39972L18.4021 12.6725L22.3481 13.3275ZM21.5825 7.72727H22.7615V3.72727H21.5825V7.72727ZM20.9902 6.65605L23.5896 11.6134L27.1322 9.75589L24.5327 4.7985L20.9902 6.65605ZM25.3609 12.6847H25.4284V8.68466H25.3609V12.6847ZM27.4015 11.0112L28.2218 6.05378L24.2755 5.40077L23.4552 10.3582L27.4015 11.0112ZM26.2487 7.72727H27.559V3.72727H26.2487V7.72727ZM33.4761 8.04972L31.4943 8.31885L31.7294 10.0497H33.4761V8.04972ZM33.3341 7.5348L31.5076 8.3497L31.5124 8.36026L33.3341 7.5348ZM33.0571 7.14418L31.6882 8.60232L31.6962 8.60982L31.7043 8.61724L33.0571 7.14418ZM32.6345 6.8956L33.2832 5.00371L33.2831 5.0037L32.6345 6.8956ZM30.9442 7.10511L31.9224 8.84952L31.9224 8.84952L30.9442 7.10511ZM30.0457 7.97159L31.7178 9.06891L31.7209 9.06413L30.0457 7.97159ZM29.5379 9.35653L27.5647 9.03052L27.5642 9.03326L29.5379 9.35653ZM29.5521 10.7521L27.6169 11.257L27.6169 11.257L29.5521 10.7521ZM30.099 11.6222L28.899 13.2222L28.907 13.2282L28.915 13.2341L30.099 11.6222ZM32.1196 11.7038L31.2707 9.89292L31.2707 9.89292L32.1196 11.7038ZM32.8724 11.1001L31.2845 9.88418L31.2829 9.88632L32.8724 11.1001ZM33.2559 10.1768L33.5691 8.20152L31.5857 7.88708L31.2794 9.87173L33.2559 10.1768ZM33.5471 10.223V12.223L33.8603 8.24768L33.5471 10.223ZM31.5692 10.223L29.5982 9.8832L29.1948 12.223H31.5692V10.223ZM31.7467 9.19318V7.19318H30.062L29.7758 8.85337L31.7467 9.19318ZM34.6977 9.19318L36.6692 9.52977L37.0681 7.19318H34.6977V9.19318ZM34.5486 10.0668L32.5771 9.73017L32.5758 9.7377L32.5746 9.74524L34.5486 10.0668ZM33.8845 11.6861L32.2845 10.4861L32.2835 10.4874L33.8845 11.6861ZM32.6167 12.7337L33.4874 14.5342L33.4909 14.5325L32.6167 12.7337ZM29.2716 12.6484L28.1622 14.3126L28.1722 14.3192L29.2716 12.6484ZM28.3057 11.3594L26.4115 12.0015L26.4124 12.0039L28.3057 11.3594ZM28.2133 9.37074L30.1861 9.69954L30.1878 9.6892L28.2133 9.37074ZM28.7176 7.79759L26.9491 6.86347L26.9454 6.87059L28.7176 7.79759ZM29.6125 6.62216L30.9608 8.09934L30.9613 8.09892L29.6125 6.62216ZM30.795 5.88352L31.5184 7.74813L31.5273 7.74465L30.795 5.88352ZM33.2524 5.8054L32.5754 7.68738L32.5875 7.69163L33.2524 5.8054ZM34.0976 6.30256L32.7441 7.77503L32.7515 7.78177L34.0976 6.30256ZM34.6409 7.0696L36.4822 6.28888L36.4822 6.28888L34.6409 7.0696ZM34.8184 8.04972V10.0497H36.7791L36.8181 8.08944L34.8184 8.04972ZM35.4579 7.78058C35.4099 7.4272 35.3163 7.06364 35.1558 6.70934L31.5124 8.36026C31.4891 8.30899 31.4902 8.2887 31.4943 8.31885L35.4579 7.78058ZM35.1605 6.71992C34.9885 6.33427 34.7408 5.97505 34.4099 5.67111L31.7043 8.61724C31.6053 8.52637 31.5424 8.42756 31.5076 8.34968L35.1605 6.71992ZM34.426 5.68603C34.0833 5.36431 33.6896 5.14308 33.2832 5.00371L31.9858 8.78749C31.9108 8.76175 31.7989 8.70624 31.6882 8.60232L34.426 5.68603ZM33.2831 5.0037C32.8629 4.85963 32.4424 4.81037 32.0557 4.81037V8.81037C32.0805 8.81037 32.0855 8.81202 32.0742 8.81034C32.0626 8.80864 32.0314 8.8031 31.9859 8.78749L33.2831 5.0037ZM32.0557 4.81037C31.3124 4.81037 30.6062 5.00159 29.9659 5.36071L31.9224 8.84952C31.9829 8.81564 32.0177 8.81037 32.0557 8.81037V4.81037ZM29.9659 5.3607C29.2985 5.73497 28.7717 6.26382 28.3705 6.87906L31.7209 9.06413C31.8169 8.91705 31.8891 8.86825 31.9224 8.84952L29.9659 5.3607ZM28.3736 6.87428C27.9424 7.53141 27.6904 8.26941 27.5647 9.03052L31.5112 9.68255C31.5653 9.35464 31.6519 9.16934 31.7178 9.0689L28.3736 6.87428ZM27.5642 9.03326C27.4464 9.7524 27.4241 10.5181 27.6169 11.257L31.4873 10.2473C31.4812 10.2238 31.4495 10.0592 31.5116 9.67981L27.5642 9.03326ZM27.6169 11.257C27.8081 11.9901 28.2069 12.7031 28.899 13.2222L31.299 10.0222C31.3688 10.0745 31.422 10.136 31.4567 10.1912C31.4892 10.2429 31.4931 10.2692 31.4873 10.2473L27.6169 11.257ZM28.915 13.2341C29.5955 13.7339 30.3722 13.9169 31.1075 13.9169V9.9169C31.0661 9.9169 31.0728 9.91184 31.1128 9.92352C31.1563 9.93622 31.2184 9.96286 31.283 10.0103L28.915 13.2341ZM31.1075 13.9169C31.7399 13.9169 32.3716 13.7945 32.9685 13.5148L31.2707 9.89292C31.2615 9.89725 31.2185 9.9169 31.1075 9.9169V13.9169ZM32.9685 13.5148C33.5563 13.2392 34.0635 12.8357 34.462 12.314L31.2829 9.88632C31.281 9.88876 31.2804 9.8893 31.2811 9.88863C31.2817 9.88794 31.2828 9.88697 31.2839 9.88608C31.285 9.88519 31.2851 9.88523 31.2836 9.88614C31.2821 9.88707 31.2781 9.88947 31.2707 9.89292L32.9685 13.5148ZM34.4603 12.3161C34.8813 11.7664 35.1311 11.1394 35.2325 10.482L31.2794 9.87173C31.2771 9.88656 31.2748 9.89601 31.2734 9.90089C31.2721 9.90571 31.2715 9.90681 31.2722 9.90502C31.273 9.90318 31.2746 9.89974 31.2771 9.89538C31.2796 9.89101 31.2822 9.88716 31.2845 9.88418L34.4603 12.3161ZM32.9428 12.1522L33.234 12.1983L33.8603 8.24768L33.5691 8.20152L32.9428 12.1522ZM33.5471 8.22301H31.5692V12.223H33.5471V8.22301ZM33.5401 10.5628L33.7176 9.533L29.7758 8.85337L29.5982 9.8832L33.5401 10.5628ZM31.7467 11.1932H34.6977V7.19318H31.7467V11.1932ZM32.7262 8.85659L32.5771 9.73017L36.52 10.4034L36.6692 9.52977L32.7262 8.85659ZM32.5746 9.74524C32.5187 10.0886 32.4103 10.3183 32.2845 10.4861L35.4845 12.8861C36.0405 12.1447 36.3749 11.295 36.5225 10.3883L32.5746 9.74524ZM32.2835 10.4874C32.1354 10.6852 31.9617 10.8283 31.7425 10.9348L33.4909 14.5325C34.285 14.1466 34.9565 13.5913 35.4855 12.8847L32.2835 10.4874ZM31.7461 10.9331C31.5329 11.0362 31.2808 11.0994 30.9584 11.0994V15.0994C31.8386 15.0994 32.692 14.9188 33.4874 14.5342L31.7461 10.9331ZM30.9584 11.0994C30.5946 11.0994 30.4357 11.0203 30.371 10.9777L28.1722 14.3192C29.0212 14.8779 29.9869 15.0994 30.9584 15.0994V11.0994ZM30.381 10.9843C30.3214 10.9446 30.2579 10.8879 30.199 10.7148L26.4124 12.0039C26.7322 12.9435 27.3127 13.7462 28.1622 14.3125L30.381 10.9843ZM30.1998 10.7173C30.1445 10.5543 30.0958 10.2412 30.1861 9.69954L26.2405 9.04194C26.0751 10.0343 26.088 11.047 26.4115 12.0015L30.1998 10.7173ZM30.1878 9.6892C30.253 9.28492 30.361 8.97074 30.4898 8.72458L26.9454 6.87059C26.5912 7.54772 26.363 8.28232 26.2389 9.05227L30.1878 9.6892ZM30.4861 8.73169C30.6322 8.45496 30.7935 8.25202 30.9608 8.09934L28.2642 5.14497C27.726 5.63623 27.2907 6.21691 26.9491 6.86348L30.4861 8.73169ZM30.9613 8.09892C31.1402 7.93549 31.3239 7.82358 31.5184 7.7481L30.0716 4.01894C29.3997 4.27964 28.795 4.66015 28.2637 5.1454L30.9613 8.09892ZM31.5273 7.74465C31.7221 7.66801 31.9278 7.62784 32.1586 7.62784V3.62784C31.4378 3.62784 30.7344 3.75813 30.0628 4.02239L31.5273 7.74465ZM32.1586 7.62784C32.3607 7.62784 32.4924 7.65746 32.5754 7.68734L33.9294 3.92345C33.3543 3.71659 32.7567 3.62784 32.1586 3.62784V7.62784ZM32.5875 7.69163C32.6861 7.72639 32.7273 7.75955 32.7441 7.77501L35.451 4.8301C34.9991 4.41469 34.4769 4.11641 33.9173 3.91917L32.5875 7.69163ZM32.7515 7.78177C32.7737 7.80202 32.7863 7.8191 32.7996 7.85032L36.4822 6.28888C36.2445 5.72825 35.8949 5.23397 35.4436 4.82335L32.7515 7.78177ZM32.7996 7.85032C32.8033 7.85919 32.821 7.90228 32.8188 8.00999L36.8181 8.08944C36.8301 7.48219 36.7294 6.87187 36.4822 6.28888L32.7996 7.85032ZM34.8184 6.04972H33.4761V10.0497H34.8184V6.04972ZM41.1279 5.72727V3.72727H39.4326L39.1549 5.3997L41.1279 5.72727ZM42.4454 5.72727L44.4184 6.05464L44.8046 3.72727H42.4454V5.72727ZM41.657 10.4787L39.684 10.1513L39.6833 10.1557L41.657 10.4787ZM41.0605 11.853L39.4914 10.6128L39.4868 10.6186L41.0605 11.853ZM39.8744 12.7798L40.7074 14.5981L40.7148 14.5947L39.8744 12.7798ZM36.7707 12.7798L35.8072 14.5325L35.8151 14.5368L36.7707 12.7798ZM35.8936 11.853L34.0691 12.6724L34.0732 12.6814L35.8936 11.853ZM35.7551 10.4787L33.782 10.1513L33.7813 10.1557L35.7551 10.4787ZM36.5434 5.72727V3.72727H34.8479L34.5704 5.39991L36.5434 5.72727ZM37.8609 5.72727L39.8339 6.05485L40.2203 3.72727H37.8609V5.72727ZM37.0903 10.3686L35.1173 10.041L35.1167 10.0448L37.0903 10.3686ZM37.1578 11.1783L35.3008 11.921L35.3053 11.9323L35.31 11.9435L37.1578 11.1783ZM37.6336 11.7322L36.5885 13.4375L36.5966 13.4424L37.6336 11.7322ZM39.3701 11.7322L38.4694 9.94656L38.4694 9.94656L39.3701 11.7322ZM40.0271 11.1783L41.6446 12.3546L41.6501 12.3469L40.0271 11.1783ZM40.3573 10.3686L38.3843 10.041L38.3837 10.0448L40.3573 10.3686ZM41.1279 7.72727H42.4454V3.72727H41.1279V7.72727ZM40.4724 5.39991L39.684 10.1513L43.6301 10.8061L44.4184 6.05464L40.4724 5.39991ZM39.6833 10.1557C39.6502 10.3578 39.5832 10.4966 39.4914 10.6128L42.6295 13.0932C43.1627 12.4186 43.4934 11.6412 43.6308 10.8017L39.6833 10.1557ZM39.4868 10.6186C39.3824 10.7518 39.2437 10.8679 39.034 10.965L40.7148 14.5947C41.4663 14.2467 42.1183 13.7449 42.6341 13.0874L39.4868 10.6186ZM39.0414 10.9616C38.8508 11.0489 38.6045 11.1101 38.2693 11.1101V15.1101C39.113 15.1101 39.9367 14.9511 40.7074 14.5981L39.0414 10.9616ZM38.2693 11.1101C37.9148 11.1101 37.765 11.044 37.7262 11.0229L35.8151 14.5368C36.586 14.956 37.4353 15.1101 38.2693 15.1101V11.1101ZM37.7341 11.0272C37.7152 11.0168 37.7048 11.0093 37.7006 11.0062C37.6966 11.0031 37.6972 11.0031 37.7004 11.0065C37.7037 11.01 37.7074 11.0145 37.7107 11.0194C37.7139 11.0242 37.7148 11.0265 37.7139 11.0246L34.0732 12.6814C34.4434 13.4949 35.0502 14.1163 35.8072 14.5325L37.7341 11.0272ZM37.718 11.0336C37.7226 11.0439 37.7186 11.041 37.7157 11.0124C37.7125 10.981 37.7105 10.9138 37.7288 10.8017L33.7813 10.1557C33.6467 10.9786 33.6988 11.8478 34.0691 12.6723L37.718 11.0336ZM37.7281 10.8061L38.5164 6.05464L34.5704 5.39991L33.782 10.1513L37.7281 10.8061ZM36.5434 7.72727H37.8609V3.72727H36.5434V7.72727ZM35.8879 5.3997L35.1173 10.041L39.0633 10.6962L39.8339 6.05485L35.8879 5.3997ZM35.1167 10.0448C35.0201 10.6336 35.0455 11.2828 35.3008 11.921L39.0147 10.4355C39.0456 10.5126 39.0587 10.5815 39.063 10.6322C39.067 10.6808 39.0621 10.7032 39.0639 10.6924L35.1167 10.0448ZM35.31 11.9435C35.5717 12.5756 36.0152 13.0861 36.5885 13.4374L38.6787 10.027C38.7351 10.0616 38.8025 10.1146 38.8667 10.1894C38.9311 10.2644 38.9765 10.3428 39.0056 10.413L35.31 11.9435ZM36.5966 13.4424C37.2086 13.8135 37.8703 13.9347 38.4681 13.9347V9.93466C38.3983 9.93466 38.5037 9.92086 38.6706 10.0221L36.5966 13.4424ZM38.4681 13.9347C39.0787 13.9347 39.6934 13.8092 40.2709 13.5179L38.4694 9.94656C38.4774 9.94253 38.4851 9.93926 38.4921 9.93678C38.499 9.93432 38.5039 9.93308 38.5061 9.93259C38.5108 9.93152 38.4998 9.93466 38.4681 9.93466V13.9347ZM40.2709 13.5179C40.8124 13.2448 41.2806 12.8551 41.6445 12.3546L38.4096 10.0019C38.418 9.99032 38.4306 9.97636 38.4457 9.96358C38.4606 9.95099 38.4705 9.94602 38.4694 9.94656L40.2709 13.5179ZM41.6501 12.3469C42.0107 11.8462 42.2339 11.2838 42.3309 10.6924L38.3837 10.0448C38.3818 10.0563 38.3811 10.054 38.3856 10.0429C38.3877 10.0378 38.3905 10.0318 38.3939 10.0256C38.3974 10.0194 38.4009 10.014 38.404 10.0097L41.6501 12.3469ZM42.3303 10.6962L43.1009 6.05485L39.1549 5.3997L38.3843 10.041L42.3303 10.6962ZM42.67 13L40.697 12.6725L40.3106 15H42.67V13ZM43.8774 5.72727V3.72727H42.1821L41.9044 5.39972L43.8774 5.72727ZM45.1949 5.72727L47.1679 6.05441L47.5538 3.72727H45.1949V5.72727ZM44.1721 11.8956L42.1991 11.5685L41.8132 13.8956H44.1721V11.8956ZM47.3753 11.8956L49.3479 12.2254L49.7374 9.8956H47.3753V11.8956ZM47.1906 13V15H48.884L49.1632 13.3298L47.1906 13ZM44.643 13.3275L45.8504 6.05482L41.9044 5.39972L40.697 12.6725L44.643 13.3275ZM43.8774 7.72727H45.1949V3.72727H43.8774V7.72727ZM43.2218 5.40013L42.1991 11.5685L46.1452 12.2227L47.1679 6.05441L43.2218 5.40013ZM44.1721 13.8956H47.3753V9.8956H44.1721V13.8956ZM45.4027 11.5658L45.218 12.6702L49.1632 13.3298L49.3479 12.2254L45.4027 11.5658ZM47.1906 11H42.67V15H47.1906V11ZM49.5415 13V15H50.7748L51.3286 13.8979L49.5415 13ZM48.1352 13L46.3594 12.08L44.8466 15H48.1352V13ZM51.903 5.72727V3.72727H50.6866L50.1271 4.80727L51.903 5.72727ZM53.5294 5.72727L55.4955 5.36055L55.1908 3.72727H53.5294V5.72727ZM54.8859 13V15H57.2935L56.852 12.6333L54.8859 13ZM53.4797 13L51.5076 13.3331L51.7892 15H53.4797V13ZM52.5031 7.21875L54.4752 6.88563L54.1936 5.21875H52.5031V7.21875ZM52.4463 7.21875V5.21875H51.2129L50.6592 6.32081L52.4463 7.21875ZM50.0599 10.1484V8.14844H48.3675L48.0875 9.81749L50.0599 10.1484ZM53.8952 10.1484L55.8676 10.4794L56.2587 8.14844H53.8952V10.1484ZM53.7176 11.2067V13.2067H55.41L55.69 11.5376L53.7176 11.2067ZM49.8824 11.2067L47.9099 10.8757L47.5188 13.2067H49.8824V11.2067ZM49.5415 11H48.1352V15H49.5415V11ZM49.911 13.92L53.6788 6.64727L50.1271 4.80727L46.3594 12.08L49.911 13.92ZM51.903 7.72727H53.5294V3.72727H51.903V7.72727ZM51.5633 6.09399L52.9198 13.3667L56.852 12.6333L55.4955 5.36055L51.5633 6.09399ZM54.8859 11H53.4797V15H54.8859V11ZM55.4517 12.6669L54.4752 6.88563L50.531 7.55187L51.5076 13.3331L55.4517 12.6669ZM52.5031 5.21875H52.4463V9.21875H52.5031V5.21875ZM50.6592 6.32081L47.7544 12.1021L51.3286 13.8979L54.2334 8.11669L50.6592 6.32081ZM50.0599 12.1484H53.8952V8.14844H50.0599V12.1484ZM51.9227 9.81749L51.7452 10.8757L55.69 11.5376L55.8676 10.4794L51.9227 9.81749ZM53.7176 9.20668H49.8824V13.2067H53.7176V9.20668ZM51.8548 11.5376L52.0324 10.4794L48.0875 9.81749L47.9099 10.8757L51.8548 11.5376ZM55.8438 13L53.8708 12.6725L53.4844 15H55.8438V13ZM57.0512 5.72727V3.72727H55.3559L55.0782 5.39972L57.0512 5.72727ZM61.1386 6.01847L62.1129 4.27184L62.1129 4.27183L61.1386 6.01847ZM61.8666 6.83523L60.0044 7.56498L60.0061 7.56927L61.8666 6.83523ZM61.9553 8.05327L59.9831 7.7212L59.9815 7.731L61.9553 8.05327ZM61.4582 9.2642L59.8542 8.06952L59.8528 8.07135L61.4582 9.2642ZM60.4532 10.0561L59.6342 8.23149L59.6303 8.23324L60.4532 10.0561ZM57.0512 10.3366L55.0791 10.0037L54.6853 12.3366H57.0512V10.3366ZM57.2359 9.2429V7.2429H55.5452L55.2638 8.90995L57.2359 9.2429ZM59.8282 9.10795L60.5778 10.9622L60.5862 10.9588L60.5947 10.9553L59.8282 9.10795ZM60.3538 8.70668L58.741 7.52395L58.7382 7.52774L60.3538 8.70668ZM60.613 8.05327L62.5863 8.37913L62.5877 8.37031L62.5891 8.36147L60.613 8.05327ZM60.5669 7.39276L58.6922 8.08973L58.6976 8.10432L58.7033 8.11882L60.5669 7.39276ZM60.1727 6.97372L59.2694 8.75815L59.2826 8.7648L59.2958 8.77126L60.1727 6.97372ZM58.1876 6.82812V4.82812H56.4927L56.2147 6.50006L58.1876 6.82812ZM57.1613 13V15H58.8562L59.1342 13.3281L57.1613 13ZM60.1478 9.70455L62.0171 8.99348L61.5268 7.70455H60.1478V9.70455ZM61.4014 13V15H64.302L63.2707 12.2889L61.4014 13ZM59.9312 13L58.0559 13.6952L58.5396 15H59.9312V13ZM58.7096 9.70455V7.70455H55.8352L56.8343 10.3997L58.7096 9.70455ZM57.8168 13.3275L59.0242 6.05482L55.0782 5.39972L53.8708 12.6725L57.8168 13.3275ZM57.0512 7.72727H59.7785V3.72727H57.0512V7.72727ZM59.7785 7.72727C60.126 7.72727 60.21 7.79061 60.1643 7.7651L62.1129 4.27183C61.3711 3.85807 60.5484 3.72727 59.7785 3.72727V7.72727ZM60.1643 7.7651C60.1614 7.76349 60.1289 7.7442 60.0886 7.69899C60.0472 7.6526 60.0195 7.60326 60.0045 7.56497L63.7287 6.10548C63.4118 5.29683 62.84 4.67743 62.1129 4.27184L60.1643 7.7651ZM60.0061 7.56927C59.9943 7.53916 59.9957 7.52731 59.997 7.54613C59.9986 7.5672 59.9996 7.623 59.9831 7.72121L63.9276 8.38533C64.0507 7.65396 64.0283 6.86482 63.727 6.10118L60.0061 7.56927ZM59.9815 7.731C59.9522 7.91048 59.9002 8.0078 59.8542 8.06952L63.0622 10.4589C63.5276 9.83405 63.807 9.12408 63.9292 8.37553L59.9815 7.731ZM59.8528 8.07135C59.8186 8.11741 59.7633 8.17354 59.6342 8.23149L61.2722 11.8807C61.9765 11.5646 62.5911 11.0928 63.0635 10.4571L59.8528 8.07135ZM59.6303 8.23324C59.5268 8.27996 59.3321 8.33665 58.9937 8.33665V12.3366C59.7727 12.3366 60.551 12.2063 61.2761 11.879L59.6303 8.23324ZM58.9937 8.33665H57.0512V12.3366H58.9937V8.33665ZM59.0233 10.6696L59.208 9.57585L55.2638 8.90995L55.0791 10.0037L59.0233 10.6696ZM57.2359 11.2429H59.0044V7.2429H57.2359V11.2429ZM59.0044 11.2429C59.501 11.2429 60.0479 11.1764 60.5778 10.9622L59.0786 7.25373C59.1243 7.23528 59.1459 7.2332 59.1321 7.23546C59.1181 7.23774 59.0775 7.2429 59.0044 7.2429V11.2429ZM60.5947 10.9553C61.1175 10.7383 61.6017 10.3894 61.9694 9.88561L58.7382 7.52774C58.7896 7.45726 58.8499 7.39679 58.9128 7.34876C58.9746 7.30155 59.0281 7.27459 59.0618 7.26064L60.5947 10.9553ZM61.9666 9.8894C62.3144 9.4151 62.502 8.88928 62.5863 8.37913L58.6397 7.7274C58.6388 7.73335 58.6536 7.64314 58.741 7.52395L61.9666 9.8894ZM62.5891 8.36147C62.6661 7.86769 62.6655 7.27001 62.4304 6.66669L58.7033 8.11882C58.6103 7.88008 58.6404 7.72275 58.6369 7.74507L62.5891 8.36147ZM62.4415 6.69578C62.1759 5.98142 61.6567 5.47235 61.0495 5.17618L59.2958 8.77126C59.2026 8.72579 59.0798 8.64717 58.9601 8.51985C58.8379 8.38998 58.7483 8.24048 58.6922 8.08973L62.4415 6.69578ZM61.0759 5.18929C60.4962 4.89588 59.8867 4.82812 59.395 4.82812V8.82812C59.4628 8.82812 59.4828 8.83344 59.4664 8.83037C59.4504 8.82738 59.3757 8.81191 59.2694 8.75815L61.0759 5.18929ZM59.395 4.82812H58.1876V8.82812H59.395V4.82812ZM56.2147 6.50006L55.1884 12.6719L59.1342 13.3281L60.1605 7.15619L56.2147 6.50006ZM57.1613 11H55.8438V15H57.1613V11ZM58.2785 10.4156L59.532 13.7111L63.2707 12.2889L62.0171 8.99348L58.2785 10.4156ZM61.4014 11H59.9312V15H61.4014V11ZM61.8065 12.3048L60.5849 9.00939L56.8343 10.3997L58.0559 13.6952L61.8065 12.3048ZM58.7096 11.7045H60.1478V7.70455H58.7096V11.7045Z" fill="black" mask="url(#path-1-outside-1_5_2)"/>
<mask id="path-3-outside-2_5_2" maskUnits="userSpaceOnUse" x="21" y="15" width="32" height="13" fill="black">
<rect fill="white" x="21" y="15" width="32" height="13"/>
<path d="M23.8592 25L25.0666 17.7273H27.8507C28.3763 17.7273 28.8001 17.8101 29.122 17.9759C29.444 18.1392 29.6677 18.3629 29.7932 18.647C29.921 18.9311 29.9542 19.2531 29.8926 19.6129C29.8429 19.9065 29.7435 20.1586 29.5943 20.3693C29.4476 20.5777 29.2676 20.7481 29.0546 20.8807C28.8415 21.0109 28.613 21.1044 28.3692 21.1612L28.355 21.2322C28.6107 21.2441 28.845 21.3222 29.0581 21.4666C29.2712 21.611 29.4322 21.8146 29.5411 22.0774C29.65 22.3378 29.6748 22.6515 29.6156 23.0185C29.5517 23.3949 29.4038 23.7334 29.1717 24.0341C28.9397 24.3324 28.6249 24.5679 28.2271 24.7408C27.8318 24.9136 27.3571 25 26.8031 25H23.8592ZM25.3614 23.8991H26.7783C27.2541 23.8991 27.614 23.808 27.8578 23.6257C28.1017 23.4411 28.2473 23.2043 28.2946 22.9155C28.3301 22.7 28.3088 22.5059 28.2307 22.3331C28.1526 22.1579 28.0235 22.0206 27.8436 21.9212C27.6637 21.8194 27.4388 21.7685 27.1689 21.7685H25.7129L25.3614 23.8991ZM25.8763 20.8203H27.1796C27.4068 20.8203 27.6175 20.7789 27.8117 20.696C28.0082 20.6108 28.1715 20.4912 28.3017 20.3374C28.4343 20.1811 28.516 19.9964 28.5467 19.7834C28.5965 19.5017 28.5373 19.2696 28.3692 19.0874C28.2011 18.9051 27.9241 18.8139 27.5382 18.8139H26.203L25.8763 20.8203ZM30.4315 25L31.6389 17.7273H32.9564L31.9336 23.8956H35.1368L34.9521 25H30.4315ZM42.9004 21.4489C42.7726 22.2206 42.5205 22.8788 42.144 23.4233C41.77 23.9654 41.3131 24.3809 40.7733 24.6697C40.2359 24.9562 39.6571 25.0994 39.0368 25.0994C38.3858 25.0994 37.8271 24.9479 37.3607 24.6449C36.8943 24.3395 36.5581 23.9027 36.3521 23.3345C36.1485 22.7663 36.113 22.0845 36.2456 21.2891C36.3735 20.5196 36.6244 19.8615 36.9985 19.3146C37.3725 18.7678 37.8306 18.3499 38.3727 18.0611C38.9149 17.7723 39.4996 17.6278 40.127 17.6278C40.7733 17.6278 41.3273 17.7805 41.7889 18.0859C42.253 18.389 42.5868 18.8258 42.7904 19.3963C42.9963 19.9669 43.033 20.651 42.9004 21.4489ZM41.6043 21.2891C41.6919 20.7517 41.6836 20.2983 41.5794 19.929C41.4776 19.5597 41.2965 19.2815 41.0361 19.0945C40.7757 18.9051 40.4549 18.8104 40.0737 18.8104C39.6618 18.8104 39.2806 18.9134 38.9303 19.1193C38.5823 19.3229 38.2863 19.6212 38.0425 20.0142C37.801 20.4072 37.6353 20.8854 37.5453 21.4489C37.4506 21.9886 37.4565 22.442 37.5631 22.8089C37.6696 23.1759 37.8543 23.4529 38.1171 23.6399C38.3798 23.8246 38.7006 23.9169 39.0794 23.9169C39.489 23.9169 39.8678 23.8151 40.2158 23.6115C40.5638 23.4079 40.8585 23.1108 41.1 22.7202C41.3439 22.3295 41.5119 21.8525 41.6043 21.2891ZM49.2454 20.0497C49.2194 19.858 49.172 19.6863 49.1034 19.5348C49.0347 19.3809 48.9424 19.2507 48.8264 19.1442C48.7104 19.0353 48.5695 18.9524 48.4038 18.8956C48.2381 18.8388 48.0452 18.8104 47.825 18.8104C47.4344 18.8104 47.0639 18.9086 46.7135 19.1051C46.3631 19.3016 46.0636 19.5904 45.815 19.9716C45.5665 20.3504 45.3972 20.812 45.3072 21.3565C45.2173 21.9058 45.222 22.371 45.3214 22.7521C45.4209 23.1333 45.6032 23.4233 45.8683 23.6222C46.1358 23.8187 46.472 23.9169 46.8768 23.9169C47.2485 23.9169 47.5859 23.8459 47.8889 23.7038C48.1919 23.5618 48.4429 23.3606 48.6417 23.1001C48.843 22.8374 48.9708 22.5296 49.0253 22.1768L49.3165 22.223H47.3385L47.516 21.1932H50.467L50.3179 22.0668C50.2161 22.6918 49.9947 23.2315 49.6538 23.6861C49.3153 24.1383 48.8927 24.4875 48.3861 24.7337C47.8818 24.9775 47.329 25.0994 46.7277 25.0994C46.0601 25.0994 45.4978 24.9491 45.0409 24.6484C44.5863 24.3454 44.2644 23.9157 44.075 23.3594C43.8856 22.8007 43.8548 22.1378 43.9827 21.3707C44.0773 20.7836 44.2454 20.2592 44.4869 19.7976C44.7308 19.3359 45.0291 18.9441 45.3818 18.6222C45.7369 18.2978 46.1311 18.0516 46.5643 17.8835C46.9976 17.7131 47.4521 17.6278 47.928 17.6278C48.3281 17.6278 48.6926 17.687 49.0217 17.8054C49.3508 17.9214 49.6325 18.0871 49.8669 18.3026C50.1036 18.518 50.2847 18.7737 50.4102 19.0696C50.5357 19.3655 50.5949 19.6922 50.5878 20.0497H49.2454Z"/>
</mask>
<path d="M23.8592 25L25.0666 17.7273H27.8507C28.3763 17.7273 28.8001 17.8101 29.122 17.9759C29.444 18.1392 29.6677 18.3629 29.7932 18.647C29.921 18.9311 29.9542 19.2531 29.8926 19.6129C29.8429 19.9065 29.7435 20.1586 29.5943 20.3693C29.4476 20.5777 29.2676 20.7481 29.0546 20.8807C28.8415 21.0109 28.613 21.1044 28.3692 21.1612L28.355 21.2322C28.6107 21.2441 28.845 21.3222 29.0581 21.4666C29.2712 21.611 29.4322 21.8146 29.5411 22.0774C29.65 22.3378 29.6748 22.6515 29.6156 23.0185C29.5517 23.3949 29.4038 23.7334 29.1717 24.0341C28.9397 24.3324 28.6249 24.5679 28.2271 24.7408C27.8318 24.9136 27.3571 25 26.8031 25H23.8592ZM25.3614 23.8991H26.7783C27.2541 23.8991 27.614 23.808 27.8578 23.6257C28.1017 23.4411 28.2473 23.2043 28.2946 22.9155C28.3301 22.7 28.3088 22.5059 28.2307 22.3331C28.1526 22.1579 28.0235 22.0206 27.8436 21.9212C27.6637 21.8194 27.4388 21.7685 27.1689 21.7685H25.7129L25.3614 23.8991ZM25.8763 20.8203H27.1796C27.4068 20.8203 27.6175 20.7789 27.8117 20.696C28.0082 20.6108 28.1715 20.4912 28.3017 20.3374C28.4343 20.1811 28.516 19.9964 28.5467 19.7834C28.5965 19.5017 28.5373 19.2696 28.3692 19.0874C28.2011 18.9051 27.9241 18.8139 27.5382 18.8139H26.203L25.8763 20.8203ZM30.4315 25L31.6389 17.7273H32.9564L31.9336 23.8956H35.1368L34.9521 25H30.4315ZM42.9004 21.4489C42.7726 22.2206 42.5205 22.8788 42.144 23.4233C41.77 23.9654 41.3131 24.3809 40.7733 24.6697C40.2359 24.9562 39.6571 25.0994 39.0368 25.0994C38.3858 25.0994 37.8271 24.9479 37.3607 24.6449C36.8943 24.3395 36.5581 23.9027 36.3521 23.3345C36.1485 22.7663 36.113 22.0845 36.2456 21.2891C36.3735 20.5196 36.6244 19.8615 36.9985 19.3146C37.3725 18.7678 37.8306 18.3499 38.3727 18.0611C38.9149 17.7723 39.4996 17.6278 40.127 17.6278C40.7733 17.6278 41.3273 17.7805 41.7889 18.0859C42.253 18.389 42.5868 18.8258 42.7904 19.3963C42.9963 19.9669 43.033 20.651 42.9004 21.4489ZM41.6043 21.2891C41.6919 20.7517 41.6836 20.2983 41.5794 19.929C41.4776 19.5597 41.2965 19.2815 41.0361 19.0945C40.7757 18.9051 40.4549 18.8104 40.0737 18.8104C39.6618 18.8104 39.2806 18.9134 38.9303 19.1193C38.5823 19.3229 38.2863 19.6212 38.0425 20.0142C37.801 20.4072 37.6353 20.8854 37.5453 21.4489C37.4506 21.9886 37.4565 22.442 37.5631 22.8089C37.6696 23.1759 37.8543 23.4529 38.1171 23.6399C38.3798 23.8246 38.7006 23.9169 39.0794 23.9169C39.489 23.9169 39.8678 23.8151 40.2158 23.6115C40.5638 23.4079 40.8585 23.1108 41.1 22.7202C41.3439 22.3295 41.5119 21.8525 41.6043 21.2891ZM49.2454 20.0497C49.2194 19.858 49.172 19.6863 49.1034 19.5348C49.0347 19.3809 48.9424 19.2507 48.8264 19.1442C48.7104 19.0353 48.5695 18.9524 48.4038 18.8956C48.2381 18.8388 48.0452 18.8104 47.825 18.8104C47.4344 18.8104 47.0639 18.9086 46.7135 19.1051C46.3631 19.3016 46.0636 19.5904 45.815 19.9716C45.5665 20.3504 45.3972 20.812 45.3072 21.3565C45.2173 21.9058 45.222 22.371 45.3214 22.7521C45.4209 23.1333 45.6032 23.4233 45.8683 23.6222C46.1358 23.8187 46.472 23.9169 46.8768 23.9169C47.2485 23.9169 47.5859 23.8459 47.8889 23.7038C48.1919 23.5618 48.4429 23.3606 48.6417 23.1001C48.843 22.8374 48.9708 22.5296 49.0253 22.1768L49.3165 22.223H47.3385L47.516 21.1932H50.467L50.3179 22.0668C50.2161 22.6918 49.9947 23.2315 49.6538 23.6861C49.3153 24.1383 48.8927 24.4875 48.3861 24.7337C47.8818 24.9775 47.329 25.0994 46.7277 25.0994C46.0601 25.0994 45.4978 24.9491 45.0409 24.6484C44.5863 24.3454 44.2644 23.9157 44.075 23.3594C43.8856 22.8007 43.8548 22.1378 43.9827 21.3707C44.0773 20.7836 44.2454 20.2592 44.4869 19.7976C44.7308 19.3359 45.0291 18.9441 45.3818 18.6222C45.7369 18.2978 46.1311 18.0516 46.5643 17.8835C46.9976 17.7131 47.4521 17.6278 47.928 17.6278C48.3281 17.6278 48.6926 17.687 49.0217 17.8054C49.3508 17.9214 49.6325 18.0871 49.8669 18.3026C50.1036 18.518 50.2847 18.7737 50.4102 19.0696C50.5357 19.3655 50.5949 19.6922 50.5878 20.0497H49.2454Z" fill="url(#paint1_linear_5_2)"/>
<path d="M23.8592 25L21.8863 24.6725L21.4998 27H23.8592V25ZM25.0666 17.7273V15.7273H23.3713L23.0936 17.3997L25.0666 17.7273ZM29.122 17.9759L28.2067 19.7542L28.2171 19.7594L29.122 17.9759ZM29.7932 18.647L27.9636 19.4551L27.9694 19.4677L29.7932 18.647ZM29.8926 19.6129L27.9213 19.2757L27.9207 19.279L29.8926 19.6129ZM29.5943 20.3693L27.9619 19.2138L27.9594 19.2174L29.5943 20.3693ZM29.0546 20.8807L30.0975 22.5872L30.1043 22.583L30.1112 22.5788L29.0546 20.8807ZM28.3692 21.1612L27.9153 19.2134L26.6607 19.5057L26.408 20.769L28.3692 21.1612ZM28.355 21.2322L26.3938 20.84L25.9373 23.1225L28.2625 23.2301L28.355 21.2322ZM29.0581 21.4666L30.1802 19.8111L30.1802 19.8111L29.0581 21.4666ZM29.5411 22.0774L27.6934 22.8431L27.6959 22.849L29.5411 22.0774ZM29.6156 23.0185L31.5874 23.3533L31.5888 23.3451L31.5901 23.3369L29.6156 23.0185ZM29.1717 24.0341L30.7505 25.262L30.7551 25.2559L29.1717 24.0341ZM28.2271 24.7408L27.4301 22.9064L27.4261 22.9082L28.2271 24.7408ZM25.3614 23.8991L23.3881 23.5736L23.0043 25.8991H25.3614V23.8991ZM27.8578 23.6257L29.0554 25.2276L29.0652 25.2201L27.8578 23.6257ZM28.2946 22.9155L26.3212 22.5902L26.321 22.5919L28.2946 22.9155ZM28.2307 22.3331L26.4041 23.1477L26.4083 23.1569L28.2307 22.3331ZM27.8436 21.9212L26.8588 23.6619L26.8675 23.6668L26.8763 23.6716L27.8436 21.9212ZM25.7129 21.7685V19.7685H24.0159L23.7396 21.4429L25.7129 21.7685ZM25.8763 20.8203L23.9023 20.4989L23.5243 22.8203H25.8763V20.8203ZM27.8117 20.696L28.5968 22.5355L28.6075 22.5309L27.8117 20.696ZM28.3017 20.3374L26.7767 19.0434L26.7749 19.0455L28.3017 20.3374ZM28.5467 19.7834L26.5772 19.4358L26.5718 19.4666L26.5673 19.4975L28.5467 19.7834ZM26.203 18.8139V16.8139H24.5023L24.229 18.4925L26.203 18.8139ZM25.8322 25.3275L27.0396 18.0548L23.0936 17.3997L21.8863 24.6725L25.8322 25.3275ZM25.0666 19.7273H27.8507V15.7273H25.0666V19.7273ZM27.8507 19.7273C28.0113 19.7273 28.1172 19.7402 28.1789 19.7522C28.2402 19.7642 28.2419 19.7722 28.2067 19.7541L30.0373 16.1976C29.3335 15.8353 28.5612 15.7273 27.8507 15.7273V19.7273ZM28.2171 19.7594C28.216 19.7589 28.1738 19.7371 28.1171 19.6804C28.0576 19.6209 28.0027 19.5433 27.9637 19.455L31.6227 17.839C31.2813 17.066 30.6902 16.5288 30.0269 16.1923L28.2171 19.7594ZM27.9694 19.4677C27.9421 19.4071 27.9289 19.3499 27.9244 19.3064C27.9202 19.2653 27.9253 19.2523 27.9213 19.2757L31.864 19.9501C31.9808 19.2672 31.9346 18.532 31.617 17.8263L27.9694 19.4677ZM27.9207 19.279C27.9168 19.3022 27.9143 19.3034 27.9202 19.2885C27.9264 19.2727 27.9393 19.2457 27.9619 19.2138L31.2267 21.5248C31.574 21.0343 31.7724 20.491 31.8646 19.9469L27.9207 19.279ZM27.9594 19.2174C27.9602 19.2163 27.9649 19.21 27.9738 19.2015C27.9828 19.193 27.9916 19.1865 27.998 19.1826L30.1112 22.5788C30.5553 22.3025 30.9307 21.945 31.2293 21.5212L27.9594 19.2174ZM28.0117 19.1741C27.9813 19.1927 27.9518 19.2049 27.9153 19.2134L28.8231 23.109C29.2743 23.0039 29.7017 22.8291 30.0975 22.5872L28.0117 19.1741ZM26.408 20.769L26.3938 20.84L30.3161 21.6245L30.3304 21.5535L26.408 20.769ZM28.2625 23.2301C28.2132 23.2278 28.1536 23.2183 28.0901 23.1971C28.0266 23.1759 27.9745 23.1483 27.936 23.1222L30.1802 19.8111C29.6639 19.4611 29.0735 19.2634 28.4475 19.2344L28.2625 23.2301ZM27.936 23.1222C27.8719 23.0787 27.8151 23.0253 27.7698 22.9681C27.7256 22.9121 27.7029 22.8659 27.6934 22.8431L31.3887 21.3117C31.1465 20.7272 30.7505 20.1976 30.1802 19.8111L27.936 23.1222ZM27.6959 22.849C27.622 22.6723 27.6593 22.5873 27.6412 22.7L31.5901 23.3369C31.6903 22.7157 31.6779 22.0034 31.3862 21.3058L27.6959 22.849ZM27.6439 22.6836C27.6345 22.7389 27.6191 22.7724 27.5884 22.8123L30.7551 25.2559C31.1884 24.6944 31.4689 24.0509 31.5874 23.3533L27.6439 22.6836ZM27.593 22.8062C27.591 22.8088 27.5838 22.8179 27.5635 22.833C27.5422 22.849 27.5011 22.8756 27.4301 22.9065L29.0242 26.5751C29.6834 26.2887 30.2842 25.8615 30.7505 25.262L27.593 22.8062ZM27.4261 22.9082C27.3442 22.944 27.1566 23 26.8031 23V27C27.5577 27 28.3194 26.8832 29.0282 26.5733L27.4261 22.9082ZM26.8031 23H23.8592V27H26.8031V23ZM25.3614 25.8991H26.7783V21.8991H25.3614V25.8991ZM26.7783 25.8991C27.4587 25.8991 28.3198 25.7774 29.0553 25.2276L26.6603 22.0238C26.7902 21.9268 26.8931 21.8973 26.914 21.892C26.9322 21.8874 26.8946 21.8991 26.7783 21.8991V25.8991ZM29.0652 25.2201C29.6976 24.7412 30.1339 24.0587 30.2683 23.239L26.321 22.5919C26.3371 22.4935 26.3757 22.3767 26.4463 22.2619C26.516 22.1486 26.5944 22.0738 26.6504 22.0313L29.0652 25.2201ZM30.268 23.2408C30.3577 22.6963 30.3174 22.0939 30.0531 21.5093L26.4083 23.1569C26.3002 22.9179 26.3025 22.7038 26.3212 22.5902L30.268 23.2408ZM30.0573 21.5185C29.7891 20.917 29.3424 20.4644 28.811 20.1707L26.8763 23.6716C26.8005 23.6298 26.7082 23.5645 26.6178 23.4683C26.5263 23.3709 26.4545 23.2607 26.4041 23.1477L30.0573 21.5185ZM28.8285 20.1805C28.27 19.8645 27.6814 19.7685 27.1689 19.7685V23.7685C27.1962 23.7685 27.0574 23.7742 26.8588 23.6619L28.8285 20.1805ZM27.1689 19.7685H25.7129V23.7685H27.1689V19.7685ZM23.7396 21.4429L23.3881 23.5736L27.3347 24.2247L27.6863 22.0941L23.7396 21.4429ZM25.8763 22.8203H27.1796V18.8203H25.8763V22.8203ZM27.1796 22.8203C27.6557 22.8203 28.1359 22.7322 28.5968 22.5355L27.0265 18.8566C27.0601 18.8422 27.0929 18.8326 27.1222 18.8268C27.1511 18.8211 27.1712 18.8203 27.1796 18.8203V22.8203ZM28.6075 22.5309C29.0681 22.3311 29.4873 22.0325 29.8285 21.6292L26.7749 19.0455C26.8557 18.95 26.9482 18.8905 27.0158 18.8612L28.6075 22.5309ZM29.8267 21.6313C30.2151 21.1736 30.4445 20.6347 30.5262 20.0693L26.5673 19.4975C26.5762 19.4355 26.5957 19.3577 26.6333 19.2727C26.6712 19.187 26.7208 19.1093 26.7767 19.0434L29.8267 21.6313ZM30.5163 20.131C30.6556 19.3419 30.4994 18.4472 29.8395 17.7316L26.8989 20.4431C26.7663 20.2994 26.6571 20.1096 26.6017 19.8925C26.5488 19.6849 26.5621 19.521 26.5772 19.4358L30.5163 20.131ZM29.8395 17.7316C29.1258 16.9576 28.1764 16.8139 27.5382 16.8139V20.8139C27.5832 20.8139 27.5267 20.8204 27.4102 20.7821C27.2824 20.74 27.0833 20.6431 26.8989 20.4431L29.8395 17.7316ZM27.5382 16.8139H26.203V20.8139H27.5382V16.8139ZM24.229 18.4925L23.9023 20.4989L27.8503 21.1417L28.177 19.1354L24.229 18.4925ZM30.4315 25L28.4585 24.6725L28.0721 27H30.4315V25ZM31.6389 17.7273V15.7273H29.9436L29.6659 17.3997L31.6389 17.7273ZM32.9564 17.7273L34.9294 18.0544L35.3153 15.7273H32.9564V17.7273ZM31.9336 23.8956L29.9606 23.5685L29.5747 25.8956H31.9336V23.8956ZM35.1368 23.8956L37.1094 24.2254L37.4989 21.8956H35.1368V23.8956ZM34.9521 25V27H36.6455L36.9247 25.3298L34.9521 25ZM32.4045 25.3275L33.6119 18.0548L29.6659 17.3997L28.4585 24.6725L32.4045 25.3275ZM31.6389 19.7273H32.9564V15.7273H31.6389V19.7273ZM30.9833 17.4001L29.9606 23.5685L33.9067 24.2227L34.9294 18.0544L30.9833 17.4001ZM31.9336 25.8956H35.1368V21.8956H31.9336V25.8956ZM33.1642 23.5658L32.9795 24.6702L36.9247 25.3298L37.1094 24.2254L33.1642 23.5658ZM34.9521 23H30.4315V27H34.9521V23ZM42.9004 21.4489L40.9275 21.121L40.9273 21.122L42.9004 21.4489ZM42.144 23.4233L40.4989 22.286L40.4979 22.2875L42.144 23.4233ZM40.7733 24.6697L41.7141 26.4347L41.7169 26.4332L40.7733 24.6697ZM37.3607 24.6449L36.265 26.3181L36.271 26.322L37.3607 24.6449ZM36.3521 23.3345L34.4694 24.0092L34.4719 24.0161L36.3521 23.3345ZM36.2456 21.2891L38.2184 21.6179L38.2186 21.6169L36.2456 21.2891ZM36.9985 19.3146L38.6492 20.4437L38.6492 20.4437L36.9985 19.3146ZM38.3727 18.0611L37.4324 16.2959L37.4324 16.2959L38.3727 18.0611ZM41.7889 18.0859L40.6854 19.754L40.6954 19.7605L41.7889 18.0859ZM42.7904 19.3963L40.9067 20.0685L40.9092 20.0754L42.7904 19.3963ZM41.6043 21.2891L43.578 21.6125L43.5782 21.6108L41.6043 21.2891ZM41.5794 19.929L39.6513 20.4605L39.6545 20.4719L41.5794 19.929ZM41.0361 19.0945L39.8597 20.712L39.8694 20.7189L41.0361 19.0945ZM38.9303 19.1193L39.9402 20.8456L39.9438 20.8435L38.9303 19.1193ZM38.0425 20.0142L36.343 18.9597L36.3385 18.9672L38.0425 20.0142ZM37.5453 21.4489L39.5152 21.7945L39.5179 21.7793L39.5203 21.7642L37.5453 21.4489ZM38.1171 23.6399L36.9573 25.2694L36.9672 25.2763L38.1171 23.6399ZM40.2158 23.6115L39.2059 21.8852L39.2059 21.8852L40.2158 23.6115ZM41.1 22.7202L39.4034 21.6611L39.3988 21.6685L41.1 22.7202ZM40.9273 21.122C40.839 21.6552 40.6798 22.0243 40.4989 22.286L43.7892 24.5606C44.3612 23.7332 44.7062 22.7861 44.8736 21.7757L40.9273 21.122ZM40.4979 22.2875C40.2906 22.5878 40.0676 22.779 39.8297 22.9063L41.7169 26.4332C42.5586 25.9828 43.2494 25.343 43.7902 24.5591L40.4979 22.2875ZM39.8325 22.9048C39.5902 23.034 39.3353 23.0994 39.0368 23.0994V27.0994C39.9789 27.0994 40.8816 26.8784 41.7141 26.4347L39.8325 22.9048ZM39.0368 23.0994C38.7053 23.0994 38.5402 23.0262 38.4503 22.9678L36.271 26.322C37.1139 26.8696 38.0662 27.0994 39.0368 27.0994V23.0994ZM38.4563 22.9717C38.3828 22.9236 38.3041 22.8507 38.2324 22.6529L34.4719 24.0161C34.8121 24.9547 35.4058 25.7554 36.265 26.3181L38.4563 22.9717ZM38.2349 22.6599C38.1787 22.5031 38.1238 22.1857 38.2184 21.6179L34.2728 20.9603C34.1023 21.9834 34.1184 23.0296 34.4694 24.0092L38.2349 22.6599ZM38.2186 21.6169C38.307 21.0844 38.4663 20.7113 38.6492 20.4437L35.3477 18.1855C34.7825 19.0118 34.4399 19.9549 34.2727 20.9612L38.2186 21.6169ZM38.6492 20.4437C38.8559 20.1416 39.0777 19.9516 39.3131 19.8262L37.4324 16.2959C36.5835 16.7482 35.8891 17.3939 35.3477 18.1855L38.6492 20.4437ZM39.3131 19.8262C39.5594 19.695 39.8203 19.6278 40.127 19.6278V15.6278C39.1789 15.6278 38.2703 15.8495 37.4324 16.2959L39.3131 19.8262ZM40.127 19.6278C40.4482 19.6278 40.603 19.6994 40.6855 19.754L42.8924 16.4179C42.0515 15.8616 41.0985 15.6278 40.127 15.6278V19.6278ZM40.6954 19.7605C40.7591 19.8021 40.8354 19.8688 40.9067 20.0685L44.674 18.7241C44.3381 17.7827 43.7468 16.9758 42.8825 16.4114L40.6954 19.7605ZM40.9092 20.0754C40.9664 20.2339 41.022 20.5525 40.9275 21.121L44.8734 21.7767C45.0441 20.7496 45.0262 19.6998 44.6715 18.7172L40.9092 20.0754ZM43.5782 21.6108C43.6945 20.8975 43.7138 20.1287 43.5043 19.3861L39.6545 20.4719C39.6534 20.4679 39.6892 20.6058 39.6303 20.9673L43.5782 21.6108ZM43.5075 19.3975C43.3089 18.6768 42.9032 17.973 42.2028 17.47L39.8694 20.7189C39.7911 20.6627 39.731 20.5958 39.6912 20.5346C39.6536 20.4769 39.6469 20.4443 39.6513 20.4604L43.5075 19.3975ZM42.2124 17.477C41.5508 16.9958 40.7977 16.8104 40.0737 16.8104V20.8104C40.0988 20.8104 40.081 20.8134 40.0339 20.7996C39.9839 20.7848 39.9214 20.7567 39.8598 20.7119L42.2124 17.477ZM40.0737 16.8104C39.3105 16.8104 38.5787 17.006 37.9167 17.3952L39.9438 20.8435C39.9826 20.8207 40.0131 20.8104 40.0737 20.8104V16.8104ZM37.9203 17.393C37.2523 17.7838 36.7332 18.331 36.343 18.9597L39.7419 21.0687C39.8395 20.9114 39.9122 20.862 39.9402 20.8456L37.9203 17.393ZM36.3385 18.9672C35.9311 19.6301 35.6922 20.3703 35.5703 21.1335L39.5203 21.7642C39.5784 21.4005 39.6709 21.1843 39.7465 21.0613L36.3385 18.9672ZM35.5754 21.1033C35.4492 21.8224 35.4219 22.6072 35.6424 23.3666L39.4838 22.2513C39.489 22.2693 39.4796 22.2468 39.4786 22.1676C39.4775 22.0881 39.4851 21.9661 39.5152 21.7945L35.5754 21.1033ZM35.6424 23.3666C35.8505 24.0833 36.2626 24.7749 36.9574 25.2694L39.2768 22.0105C39.3501 22.0627 39.4072 22.125 39.4456 22.1825C39.4817 22.2367 39.4884 22.2673 39.4838 22.2513L35.6424 23.3666ZM36.9672 25.2763C37.6238 25.7377 38.3648 25.9169 39.0794 25.9169V21.9169C39.0524 21.9169 39.0662 21.9137 39.1079 21.9257C39.1524 21.9385 39.2096 21.9632 39.267 22.0035L36.9672 25.2763ZM39.0794 25.9169C39.8381 25.9169 40.5663 25.7236 41.2257 25.3378L39.2059 21.8852C39.1693 21.9066 39.1399 21.9169 39.0794 21.9169V25.9169ZM41.2257 25.3378C41.8929 24.9475 42.412 24.4014 42.8012 23.7718L39.3988 21.6685C39.3051 21.8202 39.2347 21.8684 39.2059 21.8852L41.2257 25.3378ZM42.7966 23.7792C43.2098 23.1173 43.4528 22.3764 43.578 21.6125L39.6306 20.9656C39.5711 21.3286 39.4779 21.5418 39.4034 21.6611L42.7966 23.7792ZM49.2454 20.0497L47.2636 20.3189L47.4987 22.0497H49.2454V20.0497ZM49.1034 19.5348L47.2769 20.3497L47.2817 20.3603L49.1034 19.5348ZM48.8264 19.1442L47.4575 20.6023L47.4655 20.6098L47.4736 20.6172L48.8264 19.1442ZM48.4038 18.8956L49.0525 17.0037L49.0525 17.0037L48.4038 18.8956ZM46.7135 19.1051L47.6918 20.8495L47.6918 20.8495L46.7135 19.1051ZM45.815 19.9716L47.4871 21.0689L47.4903 21.0641L45.815 19.9716ZM45.3072 21.3565L43.334 21.0305L43.3335 21.0333L45.3072 21.3565ZM45.3214 22.7521L43.3862 23.257L43.3862 23.257L45.3214 22.7521ZM45.8683 23.6222L44.6683 25.2222L44.6763 25.2282L44.6843 25.2341L45.8683 23.6222ZM47.8889 23.7038L47.04 21.8929L47.04 21.8929L47.8889 23.7038ZM48.6417 23.1001L47.0538 21.8842L47.0522 21.8863L48.6417 23.1001ZM49.0253 22.1768L49.3384 20.2015L47.355 19.8871L47.0487 21.8717L49.0253 22.1768ZM49.3165 22.223V24.223L49.6296 20.2477L49.3165 22.223ZM47.3385 22.223L45.3676 21.8832L44.9641 24.223H47.3385V22.223ZM47.516 21.1932V19.1932H45.8314L45.5451 20.8534L47.516 21.1932ZM50.467 21.1932L52.4385 21.5298L52.8374 19.1932H50.467V21.1932ZM50.3179 22.0668L48.3464 21.7302L48.3451 21.7377L48.3439 21.7452L50.3179 22.0668ZM49.6538 23.6861L48.0538 22.4861L48.0528 22.4874L49.6538 23.6861ZM48.3861 24.7337L49.2567 26.5342L49.2603 26.5325L48.3861 24.7337ZM45.0409 24.6484L43.9315 26.3126L43.9415 26.3192L45.0409 24.6484ZM44.075 23.3594L42.1808 24.0015L42.1817 24.0039L44.075 23.3594ZM43.9827 21.3707L45.9555 21.6995L45.9571 21.6892L43.9827 21.3707ZM44.4869 19.7976L42.7184 18.8635L42.7147 18.8706L44.4869 19.7976ZM45.3818 18.6222L46.7301 20.0993L46.7306 20.0989L45.3818 18.6222ZM46.5643 17.8835L47.2878 19.7481L47.2966 19.7447L46.5643 17.8835ZM49.0217 17.8054L48.3447 19.6874L48.3568 19.6916L49.0217 17.8054ZM49.8669 18.3026L48.5134 19.775L48.5208 19.7818L49.8669 18.3026ZM50.4102 19.0696L52.2515 18.2889L52.2515 18.2889L50.4102 19.0696ZM50.5878 20.0497V22.0497H52.5484L52.5874 20.0894L50.5878 20.0497ZM51.2272 19.7806C51.1793 19.4272 51.0856 19.0636 50.9251 18.7093L47.2817 20.3603C47.2585 20.309 47.2595 20.2887 47.2636 20.3189L51.2272 19.7806ZM50.9299 18.7199C50.7578 18.3343 50.5102 17.9751 50.1792 17.6711L47.4736 20.6172C47.3746 20.5264 47.3117 20.4276 47.2769 20.3497L50.9299 18.7199ZM50.1953 17.686C49.8526 17.3643 49.459 17.1431 49.0525 17.0037L47.7552 20.7875C47.6801 20.7618 47.5682 20.7062 47.4575 20.6023L50.1953 17.686ZM49.0525 17.0037C48.6322 16.8596 48.2117 16.8104 47.825 16.8104V20.8104C47.8498 20.8104 47.8548 20.812 47.8435 20.8103C47.8319 20.8086 47.8007 20.8031 47.7552 20.7875L49.0525 17.0037ZM47.825 16.8104C47.0817 16.8104 46.3755 17.0016 45.7352 17.3607L47.6918 20.8495C47.7522 20.8156 47.787 20.8104 47.825 20.8104V16.8104ZM45.7352 17.3607C45.0678 17.735 44.5411 18.2638 44.1398 18.8791L47.4903 21.0641C47.5862 20.917 47.6584 20.8682 47.6918 20.8495L45.7352 17.3607ZM44.1429 18.8743C43.7117 19.5314 43.4597 20.2694 43.334 21.0305L47.2805 21.6825C47.3347 21.3546 47.4212 21.1693 47.4871 21.0689L44.1429 18.8743ZM43.3335 21.0333C43.2157 21.7524 43.1934 22.5181 43.3862 23.257L47.2567 22.2473C47.2505 22.2238 47.2188 22.0592 47.2809 21.6798L43.3335 21.0333ZM43.3862 23.257C43.5774 23.9901 43.9763 24.7031 44.6683 25.2222L47.0683 22.0222C47.1381 22.0745 47.1913 22.136 47.226 22.1912C47.2585 22.2429 47.2624 22.2692 47.2567 22.2473L43.3862 23.257ZM44.6843 25.2341C45.3648 25.7339 46.1416 25.9169 46.8768 25.9169V21.9169C46.8354 21.9169 46.8422 21.9118 46.8821 21.9235C46.9256 21.9362 46.9877 21.9629 47.0523 22.0103L44.6843 25.2341ZM46.8768 25.9169C47.5092 25.9169 48.141 25.7945 48.7378 25.5148L47.04 21.8929C47.0308 21.8973 46.9878 21.9169 46.8768 21.9169V25.9169ZM48.7378 25.5148C49.3256 25.2392 49.8329 24.8357 50.2313 24.314L47.0522 21.8863C47.0503 21.8888 47.0497 21.8893 47.0504 21.8886C47.051 21.8879 47.0521 21.887 47.0532 21.8861C47.0543 21.8852 47.0544 21.8852 47.053 21.8861C47.0514 21.8871 47.0474 21.8895 47.04 21.8929L48.7378 25.5148ZM50.2296 24.3161C50.6506 23.7664 50.9004 23.1394 51.0019 22.482L47.0487 21.8717C47.0464 21.8866 47.0441 21.896 47.0427 21.9009C47.0414 21.9057 47.0408 21.9068 47.0416 21.905C47.0423 21.9032 47.0439 21.8997 47.0464 21.8954C47.0489 21.891 47.0516 21.8872 47.0538 21.8842L50.2296 24.3161ZM48.7121 24.1522L49.0033 24.1983L49.6296 20.2477L49.3384 20.2015L48.7121 24.1522ZM49.3165 20.223H47.3385V24.223H49.3165V20.223ZM49.3094 22.5628L49.487 21.533L45.5451 20.8534L45.3676 21.8832L49.3094 22.5628ZM47.516 23.1932H50.467V19.1932H47.516V23.1932ZM48.4956 20.8566L48.3464 21.7302L52.2894 22.4034L52.4385 21.5298L48.4956 20.8566ZM48.3439 21.7452C48.288 22.0886 48.1796 22.3183 48.0538 22.4861L51.2538 24.8861C51.8098 24.1447 52.1442 23.295 52.2919 22.3883L48.3439 21.7452ZM48.0528 22.4874C47.9047 22.6852 47.731 22.8283 47.5119 22.9348L49.2603 26.5325C50.0543 26.1466 50.7258 25.5913 51.2548 24.8847L48.0528 22.4874ZM47.5154 22.9331C47.3023 23.0362 47.0501 23.0994 46.7277 23.0994V27.0994C47.6079 27.0994 48.4613 26.9188 49.2567 26.5342L47.5154 22.9331ZM46.7277 23.0994C46.3639 23.0994 46.205 23.0203 46.1403 22.9777L43.9415 26.3192C44.7906 26.8779 45.7562 27.0994 46.7277 27.0994V23.0994ZM46.1503 22.9843C46.0907 22.9446 46.0272 22.8879 45.9683 22.7148L42.1817 24.0039C42.5015 24.9435 43.082 25.7462 43.9315 26.3125L46.1503 22.9843ZM45.9691 22.7173C45.9139 22.5543 45.8652 22.2412 45.9554 21.6995L42.0099 21.0419C41.8445 22.0343 41.8573 23.047 42.1808 24.0015L45.9691 22.7173ZM45.9571 21.6892C46.0223 21.2849 46.1303 20.9707 46.2591 20.7246L42.7147 18.8706C42.3605 19.5477 42.1324 20.2823 42.0082 21.0523L45.9571 21.6892ZM46.2554 20.7317C46.4015 20.455 46.5628 20.252 46.7301 20.0993L44.0335 17.145C43.4953 17.6362 43.06 18.2169 42.7185 18.8635L46.2554 20.7317ZM46.7306 20.0989C46.9095 19.9355 47.0932 19.8236 47.2877 19.7481L45.8409 16.0189C45.169 16.2796 44.5643 16.6602 44.033 17.1454L46.7306 20.0989ZM47.2966 19.7447C47.4914 19.668 47.6971 19.6278 47.928 19.6278V15.6278C47.2071 15.6278 46.5037 15.7581 45.8321 16.0224L47.2966 19.7447ZM47.928 19.6278C48.1301 19.6278 48.2617 19.6575 48.3448 19.6873L49.6987 15.9235C49.1236 15.7166 48.5261 15.6278 47.928 15.6278V19.6278ZM48.3568 19.6916C48.4554 19.7264 48.4966 19.7596 48.5134 19.775L51.2204 16.8301C50.7684 16.4147 50.2462 16.1164 49.6866 15.9192L48.3568 19.6916ZM48.5208 19.7818C48.5431 19.802 48.5556 19.8191 48.5689 19.8503L52.2515 18.2889C52.0138 17.7282 51.6642 17.234 51.213 16.8233L48.5208 19.7818ZM48.5689 19.8503C48.5726 19.8592 48.5903 19.9023 48.5882 20.01L52.5874 20.0894C52.5994 19.4822 52.4987 18.8719 52.2515 18.2889L48.5689 19.8503ZM50.5878 18.0497H49.2454V22.0497H50.5878V18.0497Z" fill="url(#paint2_linear_5_2)" mask="url(#path-3-outside-2_5_2)"/>
</g>
<defs>
<linearGradient id="paint0_linear_5_2" x1="6" y1="12.5" x2="69" y2="12.5" gradientUnits="userSpaceOnUse">
<stop stop-color="#6292FA"/>
<stop offset="1" stop-color="#D63EC6"/>
</linearGradient>
<linearGradient id="paint1_linear_5_2" x1="37.2195" y1="15" x2="37.2195" y2="41.7273" gradientUnits="userSpaceOnUse">
<stop stop-color="#6292FA"/>
<stop offset="1" stop-color="#D63EC6"/>
</linearGradient>
<linearGradient id="paint2_linear_5_2" x1="37.2195" y1="15" x2="37.2195" y2="41.7273" gradientUnits="userSpaceOnUse">
<stop/>
<stop offset="1" stop-color="#666666"/>
</linearGradient>
<clipPath id="clip0_5_2">
<rect width="66" height="29" fill="white"/>
</clipPath>
</defs>
</svg>
